<svg width="850" height="723" viewBox="0 0 850 723" fill="none" xmlns="http://www.w3.org/2000/svg">
<g clip-path="url(#clip0_37_615)">
<path d="M323.068 156.001H211.839C205.999 156.001 201.264 160.772 201.264 166.656V310.766C201.264 316.651 205.999 321.421 211.839 321.421H323.068C328.908 321.421 333.643 316.651 333.643 310.766V166.656C333.643 160.772 328.908 156.001 323.068 156.001Z" fill="#F76C6C" stroke="black" stroke-width="2" stroke-linecap="round" stroke-linejoin="round"/>
<path d="M292.283 156.001H279.416V321.574H292.283V156.001Z" fill="#1C0E0C"/>
<path d="M684.068 398.711H795.296C801.137 398.711 805.871 393.94 805.871 388.056V278.959C805.871 273.074 801.137 268.304 795.296 268.304H684.068C678.227 268.304 673.493 273.074 673.493 278.959V388.056C673.493 393.94 678.227 398.711 684.068 398.711Z" fill="#A0E9D9" stroke="black" stroke-width="2" stroke-linecap="round" stroke-linejoin="round"/>
<path d="M714.853 398.831H727.719V268.304H714.853V398.831Z" fill="#1C0E0C"/>
<path d="M790.722 518.237C803.288 525.798 852.199 382.628 849.879 373.818C849.887 373.818 768.526 504.88 790.722 518.237Z" fill="#F4F1ED" stroke="#070707" stroke-width="2" stroke-linecap="round" stroke-linejoin="round"/>
<path d="M780.946 559.45C780.946 559.45 794.856 465.646 849.228 376.291" stroke="#070707" stroke-width="2" stroke-linecap="round" stroke-linejoin="round"/>
<path d="M833.429 485.7C833.429 485.7 807.297 554.645 792.369 547.122C777.715 539.737 833.429 485.7 833.429 485.7Z" fill="#F4F1ED" stroke="#070707" stroke-width="2" stroke-linecap="round" stroke-linejoin="round"/>
<path d="M784.549 559.45C784.549 559.45 816.976 507.967 833.435 485.938" stroke="#070707" stroke-width="2" stroke-linecap="round" stroke-linejoin="round"/>
<path d="M795.57 324.987C795.57 324.987 799.944 480.554 780.946 480.554C758.677 480.554 795.57 324.987 795.57 324.987Z" fill="#F4F1ED" stroke="#070707" stroke-width="2" stroke-linecap="round" stroke-linejoin="round"/>
<path d="M777.424 559.45C777.424 559.45 779.307 421.259 795.57 326.047" stroke="#070707" stroke-width="2" stroke-linecap="round" stroke-linejoin="round"/>
<path d="M731.25 410.029C731.25 410.029 742.667 518.148 761.674 514.82C780.946 511.445 731.25 410.029 731.25 410.029Z" fill="#F4F1ED" stroke="#070707" stroke-width="2" stroke-linecap="round" stroke-linejoin="round"/>
<path d="M731.816 411.145L774.686 560.023" stroke="#070707" stroke-width="2" stroke-linecap="round" stroke-linejoin="round"/>
<path d="M779.307 609.612C772.358 609.611 765.693 606.829 760.779 601.878C755.866 596.926 753.105 590.211 753.105 583.209V576.236C753.105 574.61 753.462 573.005 754.151 571.535C754.839 570.065 755.842 568.767 757.088 567.734L764.047 561.959C766.005 560.337 768.461 559.45 770.995 559.45H787.614C790.148 559.451 792.604 560.338 794.562 561.959L801.521 567.734C802.766 568.767 803.769 570.065 804.458 571.535C805.146 573.005 805.504 574.61 805.504 576.236V583.209C805.504 590.21 802.744 596.924 797.831 601.876C792.919 606.827 786.256 609.61 779.307 609.612Z" fill="#F4F1ED" stroke="#070707" stroke-width="2" stroke-linecap="round" stroke-linejoin="round"/>
<path d="M783.908 425.457L794.882 415.252" stroke="#070707" stroke-width="2" stroke-linecap="round" stroke-linejoin="round"/>
<path d="M783.66 430.68L794.634 420.472" stroke="#070707" stroke-width="2" stroke-linecap="round" stroke-linejoin="round"/>
<path d="M783.66 381.594L787.031 390.82" stroke="#070707" stroke-width="2" stroke-linecap="round" stroke-linejoin="round"/>
<path d="M805.897 468.134H819.942" stroke="#070707" stroke-width="2" stroke-linecap="round" stroke-linejoin="round"/>
<path d="M806.886 464.653H820.93" stroke="#070707" stroke-width="2" stroke-linecap="round" stroke-linejoin="round"/>
<path d="M828.42 414.377H839.645" stroke="#070707" stroke-width="2" stroke-linecap="round" stroke-linejoin="round"/>
<path d="M743.88 483.832L754.548 490.095" stroke="#070707" stroke-width="2" stroke-linecap="round" stroke-linejoin="round"/>
<path d="M744.866 488.559L755.785 495.068" stroke="#070707" stroke-width="2" stroke-linecap="round" stroke-linejoin="round"/>
<path d="M800.221 534.96H809.859" stroke="#070707" stroke-width="2" stroke-linecap="round" stroke-linejoin="round"/>
<path d="M703.52 123.389H302.691C296.714 123.389 291.869 128.271 291.869 134.293V415.657C291.869 421.68 296.714 426.562 302.691 426.562H703.52C709.497 426.562 714.343 421.68 714.343 415.657V134.293C714.343 128.271 709.497 123.389 703.52 123.389Z" fill="#F4F1ED" stroke="#070707" stroke-width="2" stroke-linecap="round" stroke-linejoin="round"/>
<path d="M291.869 148.619H714.343" stroke="#070707" stroke-width="2" stroke-linecap="round" stroke-linejoin="round"/>
<path d="M354.754 133.779H352.614C350.925 133.779 349.556 135.159 349.556 136.86V139.017C349.556 140.718 350.925 142.098 352.614 142.098H354.754C356.443 142.098 357.813 140.718 357.813 139.017V136.86C357.813 135.159 356.443 133.779 354.754 133.779Z" fill="#FFEFF0"/>
<path d="M340.669 133.779H338.529C336.84 133.779 335.471 135.159 335.471 136.86V139.017C335.471 140.718 336.84 142.098 338.529 142.098H340.669C342.358 142.098 343.728 140.718 343.728 139.017V136.86C343.728 135.159 342.358 133.779 340.669 133.779Z" fill="#FFEFF0"/>
<path d="M326.581 133.779H324.441C322.752 133.779 321.383 135.159 321.383 136.86V139.017C321.383 140.718 322.752 142.098 324.441 142.098H326.581C328.27 142.098 329.64 140.718 329.64 139.017V136.86C329.64 135.159 328.27 133.779 326.581 133.779Z" fill="#FFEFF0"/>
<path d="M353.052 132.254H350.912C349.223 132.254 347.853 133.634 347.853 135.336V137.492C347.853 139.194 349.223 140.573 350.912 140.573H353.052C354.741 140.573 356.11 139.194 356.11 137.492V135.336C356.11 133.634 354.741 132.254 353.052 132.254Z" fill="#C5DCDD" stroke="black" stroke-width="2" stroke-linecap="round" stroke-linejoin="round"/>
<path d="M338.964 132.254H336.824C335.134 132.254 333.765 133.634 333.765 135.336V137.492C333.765 139.194 335.134 140.573 336.824 140.573H338.964C340.653 140.573 342.022 139.194 342.022 137.492V135.336C342.022 133.634 340.653 132.254 338.964 132.254Z" fill="#EFAF00" stroke="black" stroke-width="2" stroke-linecap="round" stroke-linejoin="round"/>
<path d="M324.879 132.254H322.739C321.049 132.254 319.68 133.634 319.68 135.336V137.492C319.68 139.194 321.049 140.573 322.739 140.573H324.879C326.568 140.573 327.937 139.194 327.937 137.492V135.336C327.937 133.634 326.568 132.254 324.879 132.254Z" fill="#F46F40" stroke="black" stroke-width="2" stroke-linecap="round" stroke-linejoin="round"/>
<path d="M638.867 337.601H372.341C369.505 337.601 367.207 339.917 367.207 342.774V387.965C367.207 390.822 369.505 393.138 372.341 393.138H638.867C641.703 393.138 644.002 390.822 644.002 387.965V342.774C644.002 339.917 641.703 337.601 638.867 337.601Z" stroke="#070707" stroke-width="2" stroke-linecap="round" stroke-linejoin="round"/>
<path d="M596.204 353.035H564.255V377.898H596.204V353.035Z" fill="#F76C6C" stroke="black" stroke-width="2" stroke-linecap="round" stroke-linejoin="round"/>
<path d="M609.732 377.898H596.204V359.248H602.968L609.732 369.124V377.898Z" fill="#F4F1ED" stroke="#070707" stroke-width="2" stroke-linecap="round" stroke-linejoin="round"/>
<path d="M598.653 362.702H602.105L605.56 367.74H598.653V362.702Z" fill="#F4F1ED" stroke="#070707" stroke-width="2" stroke-linecap="round" stroke-linejoin="round"/>
<path d="M573.678 381.638C575.594 381.638 577.148 380.073 577.148 378.142C577.148 376.211 575.594 374.646 573.678 374.646C571.762 374.646 570.209 376.211 570.209 378.142C570.209 380.073 571.762 381.638 573.678 381.638Z" fill="#F4F1ED" stroke="#070707" stroke-width="2" stroke-linecap="round" stroke-linejoin="round"/>
<path d="M602.921 381.638C604.838 381.638 606.391 380.073 606.391 378.142C606.391 376.211 604.838 374.646 602.921 374.646C601.005 374.646 599.452 376.211 599.452 378.142C599.452 380.073 601.005 381.638 602.921 381.638Z" fill="#F4F1ED" stroke="#070707" stroke-width="2" stroke-linecap="round" stroke-linejoin="round"/>
<path d="M589.79 359.248H579.6" stroke="#070707" stroke-width="2" stroke-linecap="round" stroke-linejoin="round"/>
<path d="M586.113 363.495H575.926" stroke="#070707" stroke-width="2" stroke-linecap="round" stroke-linejoin="round"/>
<path d="M589.79 367.74H579.6" stroke="#070707" stroke-width="2" stroke-linecap="round" stroke-linejoin="round"/>
<path d="M534.686 381.591C542.611 381.591 549.036 375.117 549.036 367.132C549.036 359.147 542.611 352.673 534.686 352.673C526.76 352.673 520.335 359.147 520.335 367.132C520.335 375.117 526.76 381.591 534.686 381.591Z" fill="#F4F1ED" stroke="#070707" stroke-width="2" stroke-linecap="round" stroke-linejoin="round"/>
<path d="M534.747 352.717V381.635" stroke="#070707" stroke-width="2" stroke-linecap="round" stroke-linejoin="round"/>
<path d="M537.283 352.8C537.283 352.8 546.849 363.983 537.283 381.541V352.8Z" fill="#F4F1ED"/>
<path d="M537.283 352.8C537.283 352.8 546.849 363.983 537.283 381.541" stroke="#070707" stroke-width="2" stroke-linecap="round" stroke-linejoin="round"/>
<path d="M532.207 352.8C532.207 352.8 522.641 363.983 532.207 381.541" stroke="#070707" stroke-width="2" stroke-linecap="round" stroke-linejoin="round"/>
<path d="M520.396 367.176H549.094" stroke="#070707" stroke-width="2" stroke-linecap="round" stroke-linejoin="round"/>
<path d="M525.808 378.489C525.808 378.489 534.49 373.23 543.491 378.489" stroke="#070707" stroke-width="2" stroke-linecap="round" stroke-linejoin="round"/>
<path d="M525.808 355.931C525.808 355.931 534.49 361.189 543.491 355.931" stroke="#070707" stroke-width="2" stroke-linecap="round" stroke-linejoin="round"/>
<path d="M493.121 374.238C498.931 374.238 503.641 369.727 503.641 364.162C503.641 358.597 498.931 354.086 493.121 354.086C487.312 354.086 482.602 358.597 482.602 364.162C482.602 369.727 487.312 374.238 493.121 374.238Z" fill="#FFEFF0"/>
<path d="M491.136 373.436C497.116 373.436 501.964 368.793 501.964 363.066C501.964 357.339 497.116 352.697 491.136 352.697C485.155 352.697 480.307 357.339 480.307 363.066C480.307 368.793 485.155 373.436 491.136 373.436Z" fill="#F76C6C" stroke="black" stroke-width="2" stroke-linecap="round" stroke-linejoin="round"/>
<path d="M496.55 357.882C497.258 358.544 497.822 359.346 498.208 360.238C498.594 361.13 498.793 362.093 498.793 363.066C498.793 364.04 498.594 365.002 498.208 365.894C497.822 366.787 497.258 367.589 496.55 368.251" stroke="#070707" stroke-width="2" stroke-linecap="round" stroke-linejoin="round"/>
<path d="M498.78 374.032L505.486 381.138C505.774 381.436 506.163 381.614 506.576 381.634C506.988 381.654 507.393 381.516 507.708 381.247C507.859 381.118 507.983 380.959 508.072 380.78C508.16 380.601 508.212 380.406 508.222 380.206C508.233 380.006 508.204 379.806 508.135 379.619C508.067 379.431 507.961 379.259 507.824 379.114L501.119 372.008C500.831 371.71 500.441 371.533 500.029 371.513C499.617 371.493 499.212 371.631 498.897 371.9C498.745 372.029 498.622 372.188 498.533 372.367C498.445 372.546 498.393 372.741 498.382 372.941C498.371 373.14 498.401 373.34 498.47 373.528C498.538 373.716 498.644 373.887 498.78 374.032Z" fill="#F76C6C" stroke="black" stroke-width="2" stroke-linecap="round" stroke-linejoin="round"/>
<path d="M463.674 357.012H443.353C442.283 357.012 441.417 357.885 441.417 358.963V379.437C441.417 380.515 442.283 381.388 443.353 381.388H463.674C464.743 381.388 465.61 380.515 465.61 379.437V358.963C465.61 357.885 464.743 357.012 463.674 357.012Z" fill="#C5DCDD" stroke="black" stroke-width="2" stroke-linecap="round" stroke-linejoin="round"/>
<path d="M458.05 357.012H439.542C438.473 357.012 437.606 357.885 437.606 358.963V379.437C437.606 380.515 438.473 381.388 439.542 381.388H458.05C459.119 381.388 459.986 380.515 459.986 379.437V358.963C459.986 357.885 459.119 357.012 458.05 357.012Z" fill="#C5DCDD" stroke="black" stroke-width="2" stroke-linecap="round" stroke-linejoin="round"/>
<path d="M449.16 382.71V355.479" stroke="#070707" stroke-width="2" stroke-linecap="round" stroke-linejoin="round"/>
<path d="M436.416 369.141C436.416 369.141 454.861 369.141 466.68 369.141" stroke="#070707" stroke-width="2" stroke-linecap="round" stroke-linejoin="round"/>
<path d="M452.787 349.189H454.566C455.527 349.189 456.449 349.574 457.128 350.259C457.808 350.944 458.19 351.872 458.19 352.841V353.358C458.19 354.326 457.808 355.255 457.128 355.94C456.449 356.624 455.527 357.009 454.566 357.009H449.163V352.838C449.163 351.869 449.545 350.941 450.225 350.256C450.904 349.571 451.826 349.186 452.787 349.186V349.189Z" stroke="#070707" stroke-width="2" stroke-linecap="round" stroke-linejoin="round"/>
<path d="M449.12 357.012H444.183C443.424 357.012 442.696 356.708 442.159 356.167C441.622 355.626 441.32 354.893 441.32 354.127V353.719C441.32 352.954 441.622 352.22 442.159 351.679C442.696 351.138 443.424 350.834 444.183 350.834H446.256C447.016 350.834 447.744 351.138 448.281 351.679C448.818 352.22 449.12 352.954 449.12 353.719V357.012V357.012Z" stroke="#070707" stroke-width="2" stroke-linecap="round" stroke-linejoin="round"/>
<path d="M453.674 362.003L449.117 357.012L446.332 359.82" stroke="#070707" stroke-width="2" stroke-linecap="round" stroke-linejoin="round"/>
<path d="M407.077 348.96H407.526C408.367 348.96 409.173 349.297 409.767 349.896C410.361 350.494 410.695 351.307 410.695 352.153V356.513H403.908V352.153C403.908 351.307 404.242 350.494 404.836 349.896C405.43 349.297 406.237 348.96 407.077 348.96V348.96Z" stroke="#070707" stroke-width="2" stroke-linecap="round" stroke-linejoin="round"/>
<path d="M404.681 348.96H405.13C405.97 348.96 406.776 349.297 407.37 349.896C407.965 350.494 408.299 351.307 408.299 352.153V356.513H401.511V352.153C401.511 351.307 401.845 350.494 402.44 349.896C403.034 349.297 403.84 348.96 404.681 348.96V348.96Z" stroke="#070707" stroke-width="2" stroke-linecap="round" stroke-linejoin="round"/>
<path d="M417.71 381.635H410.38L413.436 356.501H414.655L417.71 381.635Z" fill="#1C0E0C"/>
<path d="M413.436 356.501L410.38 381.635H392.974L396.027 356.501H413.436Z" fill="#F76C6C" stroke="black" stroke-width="2" stroke-linecap="round" stroke-linejoin="round"/>
<path d="M554.424 235.265H495.559C492.723 235.265 490.424 237.581 490.424 240.438V299.748C490.424 302.605 492.723 304.921 495.559 304.921H554.424C557.26 304.921 559.558 302.605 559.558 299.748V240.438C559.558 237.581 557.26 235.265 554.424 235.265Z" fill="#1C0E0C"/>
<path d="M551.549 232.334H492.684C489.848 232.334 487.55 234.65 487.55 237.507V296.816C487.55 299.673 489.848 301.989 492.684 301.989H551.549C554.385 301.989 556.684 299.673 556.684 296.816V237.507C556.684 234.65 554.385 232.334 551.549 232.334Z" fill="#F4F1ED" stroke="#070707" stroke-width="2" stroke-linecap="round" stroke-linejoin="round"/>
<path d="M534.359 294.401H514.685C512.825 294.403 510.989 293.981 509.314 293.168C507.639 292.354 506.167 291.17 505.01 289.704C503.852 288.238 503.038 286.527 502.628 284.699C502.219 282.872 502.224 280.975 502.643 279.149L506.609 265.014C506.746 264.416 507.08 263.883 507.557 263.502C508.033 263.12 508.624 262.911 509.233 262.911H539.794C540.403 262.911 540.993 263.119 541.47 263.501C541.946 263.883 542.281 264.416 542.418 265.014L546.386 279.149C546.804 280.973 546.809 282.869 546.399 284.695C545.99 286.521 545.177 288.23 544.021 289.696C542.865 291.162 541.396 292.346 539.724 293.161C538.051 293.975 536.217 294.399 534.359 294.401Z" fill="#F76C6C"/>
<path d="M531.983 292.248H512.309C510.449 292.248 508.614 291.825 506.939 291.011C505.265 290.197 503.794 289.013 502.637 287.547C501.48 286.08 500.666 284.37 500.256 282.543C499.846 280.715 499.851 278.818 500.27 276.993L504.238 262.861C504.375 262.262 504.709 261.728 505.185 261.346C505.662 260.963 506.253 260.755 506.862 260.755H537.426C538.035 260.755 538.626 260.964 539.103 261.346C539.579 261.729 539.913 262.263 540.05 262.861L544.015 276.993C544.435 278.818 544.44 280.715 544.031 282.542C543.622 284.369 542.808 286.079 541.652 287.545C540.495 289.012 539.025 290.196 537.351 291.01C535.677 291.825 533.842 292.248 531.983 292.248V292.248Z" stroke="#070707" stroke-width="2" stroke-linecap="round" stroke-linejoin="round"/>
<path d="M534.056 258.252C534.057 259.09 533.993 259.926 533.866 260.755H510.425C510.298 259.926 510.235 259.09 510.236 258.252C510.236 250.511 515.565 244.24 522.143 244.24C528.72 244.24 534.056 250.511 534.056 258.252Z" stroke="#070707" stroke-width="2" stroke-linecap="round" stroke-linejoin="round"/>
<path d="M539.394 261.612C538.992 270.836 531.26 278.195 522.143 278.195C513.271 278.195 505.3 270.851 504.897 261.615C505.149 261.344 505.453 261.127 505.791 260.979C506.129 260.831 506.494 260.755 506.862 260.755H537.423C537.792 260.755 538.158 260.831 538.497 260.978C538.835 261.126 539.141 261.342 539.394 261.612Z" stroke="#070707" stroke-width="2" stroke-linecap="round" stroke-linejoin="round"/>
<path d="M523.332 275.489H520.956V281.126H523.332V275.489Z" stroke="#070707" stroke-width="2" stroke-linecap="round" stroke-linejoin="round"/>
<path d="M542.983 240.888C547.204 240.888 550.625 237.441 550.625 233.189C550.625 228.936 547.204 225.489 542.983 225.489C538.763 225.489 535.342 228.936 535.342 233.189C535.342 237.441 538.763 240.888 542.983 240.888Z" fill="#C5DCDD" stroke="black" stroke-width="2" stroke-linecap="round" stroke-linejoin="round"/>
<path d="M540.17 232.965L542.677 236.534L545.8 229.843" stroke="#070707" stroke-width="2" stroke-linecap="round" stroke-linejoin="round"/>
<path d="M640.486 188.814H491.777C489.442 188.814 487.55 190.721 487.55 193.073V215.258C487.55 217.61 489.442 219.517 491.777 219.517H640.486C642.82 219.517 644.713 217.61 644.713 215.258V193.073C644.713 190.721 642.82 188.814 640.486 188.814Z" stroke="#070707" stroke-width="2" stroke-linecap="round" stroke-linejoin="round"/>
<path d="M533.738 214.318H512.113C512.113 214.318 506.198 204.747 504.177 204.747C503.011 204.747 502.533 214.321 502.533 214.321H501.186C501.186 214.321 498.037 194.768 501.527 193.649C503.801 192.921 509.959 194.859 511.65 202.535C513.078 208.998 521.291 210.158 522.204 205.893C522.204 205.89 533.353 209.201 533.738 214.318Z" fill="#F4F1ED" stroke="#070707" stroke-width="2" stroke-linecap="round" stroke-linejoin="round"/>
<path d="M589.212 209.624C589.175 210.079 588.361 212.247 588.361 212.247L546.791 210.828V208.478C546.837 205.443 547.526 202.452 548.811 199.706C549.893 197.436 551.389 198.003 551.389 198.003C551.389 198.003 555.453 202.006 560.013 202.006C560.411 202.003 560.801 201.894 561.144 201.692C561.488 201.491 561.773 201.202 561.972 200.855C562.241 200.432 562.45 199.973 562.593 199.492C562.785 198.865 562.919 198.222 562.993 197.571C563.028 197.296 563.128 197.033 563.284 196.806C563.441 196.578 563.65 196.391 563.893 196.262C564.137 196.133 564.407 196.064 564.682 196.062C564.958 196.061 565.229 196.126 565.474 196.252C567.264 197.18 569.436 199.254 575.256 202.421C575.547 202.579 575.839 202.744 576.16 202.908C583.238 206.665 589.137 205.27 589.212 209.624Z" fill="#F4F1ED" stroke="#070707" stroke-width="2" stroke-linecap="round" stroke-linejoin="round"/>
<path d="M584.539 214.318C585.743 214.318 587.209 213.768 588 212.881C588.489 212.303 588.841 211.619 589.029 210.882C589.216 210.145 589.234 209.375 589.081 208.631H589.049C588.882 209.516 588.418 210.318 587.735 210.901C587.052 211.484 586.192 211.814 585.297 211.835L549.258 210.769C548.704 210.752 548.17 210.562 547.728 210.226C547.286 209.889 546.959 209.424 546.791 208.892V211.33C546.791 212.981 547.981 214.318 549.444 214.318H584.539Z" fill="#F76C6C" stroke="black" stroke-width="2" stroke-linecap="round" stroke-linejoin="round"/>
<path d="M576.839 203.278C567.836 200.176 563.331 198.772 562.593 199.518C562.785 198.892 562.919 198.249 562.993 197.597C563.028 197.322 563.128 197.06 563.284 196.832C563.441 196.604 563.65 196.418 563.893 196.288C564.137 196.159 564.407 196.091 564.682 196.089C564.958 196.087 565.229 196.152 565.474 196.278C567.264 197.192 570.258 199.947 576.839 203.278Z" fill="#F76C6C" stroke="black" stroke-width="2" stroke-linecap="round" stroke-linejoin="round"/>
<path d="M567.013 199.183L568.646 196.681C568.741 196.534 568.865 196.409 569.01 196.312C569.155 196.216 569.318 196.15 569.489 196.119C569.66 196.087 569.835 196.091 570.005 196.13C570.174 196.169 570.334 196.243 570.474 196.346V196.346C570.725 196.531 570.901 196.802 570.968 197.108C571.036 197.413 570.991 197.734 570.842 198.008L570.623 198.411" stroke="#070707" stroke-width="2" stroke-linecap="round" stroke-linejoin="round"/>
<path d="M571.212 200.479L572.407 198.678C572.494 198.553 572.604 198.446 572.733 198.364C572.861 198.283 573.005 198.229 573.155 198.205C573.305 198.181 573.458 198.188 573.605 198.225C573.752 198.263 573.89 198.33 574.011 198.423C574.229 198.59 574.379 198.831 574.432 199.101C574.486 199.372 574.44 199.653 574.302 199.891L573.871 200.679" stroke="#070707" stroke-width="2" stroke-linecap="round" stroke-linejoin="round"/>
<path d="M577.238 202.397C577.716 201.742 577.6 200.99 577.122 200.635C576.993 200.538 576.846 200.469 576.69 200.431C576.534 200.394 576.372 200.388 576.214 200.416C576.055 200.443 575.904 200.503 575.77 200.591C575.635 200.679 575.52 200.794 575.431 200.928L574.699 202.136" stroke="#070707" stroke-width="2" stroke-linecap="round" stroke-linejoin="round"/>
<path d="M630.94 195.4C634.55 195.4 637.477 192.451 637.477 188.814C637.477 185.177 634.55 182.228 630.94 182.228C627.33 182.228 624.403 185.177 624.403 188.814C624.403 192.451 627.33 195.4 630.94 195.4Z" fill="#A0E9D9" stroke="black" stroke-width="2" stroke-linecap="round" stroke-linejoin="round"/>
<path d="M628.791 191.061L633.089 186.567" stroke="#070707" stroke-width="2" stroke-linecap="round" stroke-linejoin="round"/>
<path d="M633.089 191.061L628.791 186.567" stroke="#070707" stroke-width="2" stroke-linecap="round" stroke-linejoin="round"/>
<path d="M601.72 203.816C601.72 203.816 597.055 214.318 603.831 214.318H635.284C635.284 214.318 636.55 209.174 628.38 207.855C627.243 207.67 624.007 207.044 624.007 207.044C624.007 207.044 625.016 211.157 617.826 210.831C610.636 210.505 607.385 204.333 601.72 203.816Z" fill="#F4F1ED" stroke="#070707" stroke-width="2" stroke-linecap="round" stroke-linejoin="round"/>
<path d="M477.249 193.505H376.939C374.103 193.505 371.805 195.821 371.805 198.678V299.745C371.805 302.602 374.103 304.918 376.939 304.918H477.249C480.085 304.918 482.383 302.602 482.383 299.745V198.678C482.383 195.821 480.085 193.505 477.249 193.505Z" fill="#1C0E0C"/>
<path d="M472.651 188.814H372.341C369.505 188.814 367.207 191.13 367.207 193.987V295.053C367.207 297.91 369.505 300.226 372.341 300.226H472.651C475.487 300.226 477.785 297.91 477.785 295.053V193.987C477.785 191.13 475.487 188.814 472.651 188.814Z" fill="#F76C6C" stroke="black" stroke-width="2" stroke-linecap="round" stroke-linejoin="round"/>
<path d="M463.63 233.829L448.95 246.358V279.925H400.074V246.369L385.397 233.829L396.66 219.729C400.074 216.735 405.272 216.265 409.048 216.265H441.358C448.939 216.265 450.86 217.702 452.828 219.265L463.63 233.829Z" fill="#1C0E0C"/>
<path d="M462.409 231.552L447.463 244.304V278.48H397.683V244.304L382.741 231.552L394.205 217.158C397.683 214.109 402.978 213.633 406.82 213.633H439.717C447.434 213.633 449.388 215.102 451.379 216.685L462.409 231.552Z" fill="#F4F1ED" stroke="#070707" stroke-width="2" stroke-linecap="round" stroke-linejoin="round"/>
<path d="M397.689 244.304V232.219" stroke="#070707" stroke-width="2" stroke-linecap="round" stroke-linejoin="round"/>
<path d="M447.44 244.419V232.334" stroke="#070707" stroke-width="2" stroke-linecap="round" stroke-linejoin="round"/>
<path d="M422.57 224.772V278.471" stroke="#070707" stroke-width="2" stroke-linecap="round" stroke-linejoin="round"/>
<path d="M438.026 213.645H426.821C426.716 213.644 426.614 213.677 426.528 213.738C426.442 213.799 426.377 213.886 426.343 213.986L422.57 224.772L418.599 214.074C418.552 213.948 418.468 213.839 418.358 213.762C418.249 213.686 418.118 213.645 417.984 213.645H406.94L412.308 209.042C413.508 208.011 415.034 207.444 416.611 207.444H428.355C429.933 207.444 431.46 208.011 432.661 209.042L438.026 213.645Z" fill="#F4F1ED" stroke="#070707" stroke-width="2" stroke-linecap="round" stroke-linejoin="round"/>
<path d="M414.617 209.074L418.439 213.645L414.066 219.934L406.934 213.645L412.52 208.895C412.67 208.768 412.842 208.671 413.028 208.611C413.215 208.551 413.411 208.529 413.606 208.546C413.8 208.562 413.99 208.618 414.163 208.708C414.337 208.799 414.491 208.923 414.617 209.074Z" fill="#F4F1ED" stroke="#070707" stroke-width="2" stroke-linecap="round" stroke-linejoin="round"/>
<path d="M430.352 209.074L426.527 213.645L430.9 219.934L438.032 213.645L432.445 208.895C432.296 208.768 432.124 208.672 431.938 208.612C431.752 208.553 431.556 208.531 431.362 208.547C431.167 208.564 430.978 208.619 430.805 208.709C430.632 208.8 430.478 208.924 430.352 209.074Z" fill="#F4F1ED" stroke="#070707" stroke-width="2" stroke-linecap="round" stroke-linejoin="round"/>
<path d="M430.046 233.189H439.959V242.662C439.959 243.155 439.764 243.628 439.418 243.977C439.072 244.326 438.603 244.522 438.113 244.522H431.891C431.402 244.522 430.933 244.326 430.586 243.977C430.24 243.628 430.046 243.155 430.046 242.662V233.189Z" fill="#F4F1ED" stroke="#070707" stroke-width="2" stroke-linecap="round" stroke-linejoin="round"/>
<path d="M419.527 229.925C420.192 229.925 420.731 229.382 420.731 228.712C420.731 228.042 420.192 227.499 419.527 227.499C418.862 227.499 418.322 228.042 418.322 228.712C418.322 229.382 418.862 229.925 419.527 229.925Z" fill="#1C0E0C"/>
<path d="M419.527 239.211C420.192 239.211 420.731 238.667 420.731 237.997C420.731 237.327 420.192 236.784 419.527 236.784C418.862 236.784 418.322 237.327 418.322 237.997C418.322 238.667 418.862 239.211 419.527 239.211Z" fill="#1C0E0C"/>
<path d="M419.527 248.496C420.192 248.496 420.731 247.953 420.731 247.283C420.731 246.613 420.192 246.07 419.527 246.07C418.862 246.07 418.322 246.613 418.322 247.283C418.322 247.953 418.862 248.496 419.527 248.496Z" fill="#1C0E0C"/>
<path d="M419.527 257.782C420.192 257.782 420.731 257.239 420.731 256.568C420.731 255.898 420.192 255.355 419.527 255.355C418.862 255.355 418.322 255.898 418.322 256.568C418.322 257.239 418.862 257.782 419.527 257.782Z" fill="#1C0E0C"/>
<path d="M419.527 267.067C420.192 267.067 420.731 266.524 420.731 265.854C420.731 265.184 420.192 264.641 419.527 264.641C418.862 264.641 418.322 265.184 418.322 265.854C418.322 266.524 418.862 267.067 419.527 267.067Z" fill="#1C0E0C"/>
<path d="M457.75 203.184C464.368 203.184 469.733 197.779 469.733 191.111C469.733 184.443 464.368 179.038 457.75 179.038C451.132 179.038 445.767 184.443 445.767 191.111C445.767 197.779 451.132 203.184 457.75 203.184Z" fill="#F4F1ED" stroke="#070707" stroke-width="2" stroke-linecap="round" stroke-linejoin="round"/>
<path d="M454.662 185.712C453.126 185.712 452.091 186.91 452.091 188.691C452.091 190.585 453.035 191.719 454.615 191.719C456.196 191.719 457.164 190.544 457.164 188.629C457.161 186.828 456.207 185.712 454.662 185.712ZM454.642 190.591C453.586 190.591 453.429 189.39 453.429 188.673C453.429 187.498 453.86 186.84 454.642 186.84C455.636 186.84 455.843 187.821 455.843 188.646C455.843 189.939 455.438 190.591 454.642 190.591Z" fill="#1C0E0C"/>
<path d="M461.205 189.992C459.694 189.992 458.636 191.217 458.636 192.968C458.636 194.836 459.604 195.996 461.161 195.996C462.718 195.996 463.709 194.821 463.709 192.906C463.709 191.108 462.75 189.992 461.205 189.992ZM461.187 194.868C460.132 194.868 459.974 193.67 459.974 192.953C459.974 191.778 460.414 191.117 461.187 191.117C462.178 191.117 462.385 192.101 462.385 192.924C462.385 194.172 461.948 194.868 461.187 194.868Z" fill="#1C0E0C"/>
<path d="M461.922 185.847L455.228 195.888H453.892L460.581 185.847H461.922Z" fill="#1C0E0C"/>
<path d="M640.92 235.265H582.055C579.219 235.265 576.92 237.581 576.92 240.438V299.748C576.92 302.605 579.219 304.921 582.055 304.921H640.92C643.756 304.921 646.054 302.605 646.054 299.748V240.438C646.054 237.581 643.756 235.265 640.92 235.265Z" fill="#1C0E0C"/>
<path d="M638.045 232.334H579.18C576.344 232.334 574.046 234.65 574.046 237.507V296.816C574.046 299.673 576.344 301.989 579.18 301.989H638.045C640.881 301.989 643.18 299.673 643.18 296.816V237.507C643.18 234.65 640.881 232.334 638.045 232.334Z" fill="#A0E9D9" stroke="black" stroke-width="2" stroke-linecap="round" stroke-linejoin="round"/>
<path d="M627.584 259.118H596.061C594.992 259.118 594.125 259.992 594.125 261.069V288.702C594.125 289.78 594.992 290.653 596.061 290.653H627.584C628.653 290.653 629.52 289.78 629.52 288.702V261.069C629.52 259.992 628.653 259.118 627.584 259.118Z" fill="white"/>
<path d="M629.558 259.838V287.378C629.558 287.807 629.475 288.233 629.311 288.63C629.148 289.027 628.909 289.388 628.608 289.692C628.306 289.996 627.948 290.237 627.553 290.402C627.159 290.566 626.737 290.65 626.31 290.65H618.438C619.299 290.65 620.126 290.305 620.735 289.691C621.344 289.078 621.686 288.245 621.686 287.378V259.838C621.686 259.408 621.603 258.982 621.44 258.584C621.277 258.187 621.037 257.826 620.736 257.521C620.434 257.217 620.076 256.975 619.682 256.81C619.288 256.645 618.865 256.56 618.438 256.56H626.31C626.737 256.56 627.16 256.645 627.554 256.81C627.948 256.975 628.306 257.217 628.608 257.521C628.909 257.826 629.149 258.187 629.312 258.584C629.475 258.982 629.558 259.408 629.558 259.838Z" stroke="#070707" stroke-width="2" stroke-linecap="round" stroke-linejoin="round"/>
<path d="M621.695 259.838V287.378C621.695 288.245 621.353 289.078 620.743 289.691C620.134 290.305 619.308 290.65 618.447 290.65H593.664C593.237 290.652 592.813 290.569 592.417 290.405C592.021 290.241 591.662 290.001 591.358 289.697C591.055 289.393 590.815 289.031 590.651 288.633C590.486 288.235 590.402 287.808 590.402 287.378V259.838C590.402 258.969 590.744 258.136 591.354 257.521C591.964 256.906 592.79 256.56 593.653 256.56H618.435C618.863 256.559 619.287 256.642 619.683 256.807C620.078 256.971 620.438 257.212 620.741 257.517C621.043 257.822 621.284 258.183 621.447 258.582C621.611 258.98 621.695 259.407 621.695 259.838Z" stroke="#070707" stroke-width="2" stroke-linecap="round" stroke-linejoin="round"/>
<path d="M606.554 292.18V254.098" stroke="#070707" stroke-width="2" stroke-linecap="round" stroke-linejoin="round"/>
<path d="M589.049 273.524H630.739" stroke="#070707" stroke-width="2" stroke-linecap="round" stroke-linejoin="round"/>
<path d="M611.621 245.623H614.108C615.453 245.623 616.743 246.161 617.694 247.119C618.644 248.077 619.179 249.377 619.179 250.732V251.454C619.179 252.809 618.644 254.108 617.694 255.066C616.743 256.024 615.453 256.563 614.108 256.563H606.554V250.729C606.555 249.375 607.089 248.077 608.039 247.119C608.989 246.162 610.278 245.624 611.621 245.623V245.623Z" stroke="#070707" stroke-width="2" stroke-linecap="round" stroke-linejoin="round"/>
<path d="M606.496 256.557H599.595C598.533 256.557 597.515 256.132 596.764 255.375C596.013 254.619 595.592 253.593 595.592 252.523V251.951C595.592 250.881 596.013 249.855 596.764 249.099C597.515 248.342 598.533 247.917 599.595 247.917H602.493C603.554 247.917 604.573 248.342 605.323 249.099C606.074 249.855 606.496 250.881 606.496 251.951V256.557V256.557Z" stroke="#070707" stroke-width="2" stroke-linecap="round" stroke-linejoin="round"/>
<path d="M612.866 263.542L606.496 256.563L602.598 260.49" stroke="#070707" stroke-width="2" stroke-linecap="round" stroke-linejoin="round"/>
<path d="M107.38 246.601C113.594 246.601 118.631 241.526 118.631 235.265C118.631 229.005 113.594 223.929 107.38 223.929C101.166 223.929 96.1291 229.005 96.1291 235.265C96.1291 241.526 101.166 246.601 107.38 246.601Z" stroke="#070707" stroke-width="2" stroke-linecap="round" stroke-linejoin="round"/>
<path d="M135.402 190.159C137.371 190.159 138.967 188.551 138.967 186.567C138.967 184.583 137.371 182.974 135.402 182.974C133.432 182.974 131.836 184.583 131.836 186.567C131.836 188.551 133.432 190.159 135.402 190.159Z" stroke="#070707" stroke-width="2" stroke-linecap="round" stroke-linejoin="round"/>
<path d="M521.367 490.018H522.738C525.297 490.018 527.752 491.043 529.561 492.866C531.371 494.69 532.388 497.163 532.388 499.742V509.142H511.72V499.742C511.72 497.163 512.736 494.691 514.545 492.867C516.354 491.044 518.808 490.019 521.367 490.018V490.018Z" stroke="#070707" stroke-width="2" stroke-linecap="round" stroke-linejoin="round"/>
<path d="M528.338 490.018H529.709C532.268 490.018 534.723 491.043 536.533 492.866C538.342 494.69 539.359 497.163 539.359 499.742V509.142H518.679V499.742C518.679 498.464 518.929 497.199 519.415 496.019C519.9 494.839 520.612 493.766 521.509 492.863C522.406 491.96 523.471 491.244 524.643 490.756C525.814 490.268 527.07 490.017 528.338 490.018Z" stroke="#070707" stroke-width="2" stroke-linecap="round" stroke-linejoin="round"/>
<path d="M570.419 609.594H542.735L554.471 509.124H558.684L570.419 609.594Z" fill="#1C0E0C"/>
<path d="M554.471 509.124L542.735 609.594H478.403L490.142 509.124H554.471Z" stroke="#070707" stroke-width="2" stroke-linecap="round" stroke-linejoin="round"/>
<path d="M546.26 539.798H536.837L538.038 525.971C538.169 524.686 538.763 523.494 539.706 522.619C540.65 521.744 541.879 521.248 543.161 521.224C543.765 521.213 544.363 521.331 544.918 521.572C545.472 521.812 545.97 522.169 546.377 522.618C546.783 523.067 547.091 523.599 547.278 524.177C547.465 524.755 547.527 525.367 547.462 525.971L546.26 539.798Z" fill="white"/>
<path d="M545.432 538.964H536.009L537.21 525.137C537.341 523.851 537.934 522.658 538.877 521.783C539.821 520.908 541.051 520.411 542.333 520.387V520.387C542.937 520.376 543.536 520.495 544.09 520.736C544.645 520.976 545.142 521.333 545.549 521.783C545.955 522.232 546.263 522.764 546.45 523.342C546.637 523.92 546.699 524.532 546.633 525.137L545.432 538.964Z" stroke="#070707" stroke-width="2" stroke-linecap="round" stroke-linejoin="round"/>
<path d="M542.673 524.931C543.096 524.522 543.138 523.874 542.766 523.482C542.394 523.091 541.749 523.105 541.326 523.513C540.903 523.921 540.861 524.57 541.233 524.961C541.605 525.353 542.249 525.339 542.673 524.931Z" stroke="#070707" stroke-width="2" stroke-linecap="round" stroke-linejoin="round"/>
<path d="M542.033 524.106L543.374 508.41C543.419 507.886 543.658 507.398 544.043 507.043C544.427 506.687 544.931 506.49 545.453 506.489V506.489C546.006 506.489 546.537 506.711 546.929 507.105C547.32 507.5 547.54 508.035 547.54 508.593" stroke="#070707" stroke-width="2" stroke-linecap="round" stroke-linejoin="round"/>
<path d="M541.42 533.967C541.661 533.929 541.884 533.817 542.059 533.647C542.21 533.499 542.304 533.301 542.321 533.089C542.337 532.993 542.33 532.896 542.302 532.804C542.273 532.711 542.224 532.627 542.158 532.557C541.989 532.41 541.79 532.302 541.575 532.24L541.091 532.096C540.798 532.016 540.514 531.907 540.243 531.77C540.022 531.653 539.839 531.476 539.715 531.259C539.581 530.996 539.531 530.699 539.572 530.407C539.597 529.981 539.786 529.582 540.097 529.293C540.456 528.985 540.908 528.808 541.38 528.791H541.875C542.117 528.809 542.355 528.868 542.578 528.964C542.772 529.051 542.941 529.187 543.068 529.358C543.167 529.483 543.247 529.623 543.304 529.772C543.351 529.897 543.372 530.03 543.365 530.163C543.35 530.295 543.288 530.417 543.191 530.506C543.093 530.595 542.966 530.646 542.835 530.648C542.777 530.651 542.72 530.643 542.665 530.623C542.611 530.604 542.561 530.574 542.518 530.535C542.475 530.497 542.441 530.45 542.416 530.397C542.391 530.345 542.377 530.288 542.374 530.231C542.353 530.078 542.288 529.935 542.187 529.818C542.087 529.702 541.955 529.618 541.808 529.576L541.313 529.558C541.119 529.609 540.936 529.698 540.776 529.819C540.707 529.881 540.652 529.956 540.613 530.04C540.573 530.123 540.552 530.214 540.549 530.307C540.534 530.391 540.538 530.477 540.561 530.558C540.584 530.64 540.624 530.716 540.68 530.78C540.826 530.91 540.997 531.01 541.181 531.074L541.665 531.218C541.98 531.309 542.231 531.388 542.418 531.461C542.6 531.534 542.765 531.643 542.904 531.782C543.053 531.926 543.165 532.104 543.231 532.302C543.303 532.514 543.329 532.739 543.307 532.963C543.278 533.262 543.178 533.55 543.015 533.803C542.847 534.069 542.616 534.289 542.342 534.443C542.037 534.614 541.699 534.715 541.351 534.737H540.852C540.581 534.71 540.317 534.636 540.071 534.519C539.867 534.419 539.685 534.279 539.534 534.108C539.405 533.958 539.305 533.783 539.243 533.594C539.186 533.426 539.164 533.248 539.178 533.071C539.19 532.939 539.253 532.816 539.353 532.73C539.455 532.632 539.591 532.577 539.732 532.578C539.836 532.574 539.938 532.604 540.024 532.663C540.101 532.718 540.153 532.801 540.17 532.895C540.208 533.062 540.255 533.227 540.313 533.388C540.357 533.509 540.429 533.616 540.523 533.703C540.637 533.807 540.775 533.882 540.925 533.92L541.42 533.967Z" fill="#070707"/>
<path d="M541.047 535.33H541.027C541 535.328 540.973 535.32 540.949 535.308C540.925 535.295 540.904 535.278 540.886 535.257C540.869 535.236 540.856 535.211 540.848 535.185C540.84 535.159 540.837 535.131 540.84 535.104L541.423 528.271C541.429 528.216 541.455 528.166 541.497 528.131C541.539 528.095 541.593 528.078 541.648 528.083C541.703 528.088 541.753 528.115 541.788 528.157C541.824 528.2 541.841 528.254 541.837 528.309L541.254 535.139C541.25 535.191 541.226 535.24 541.188 535.275C541.149 535.311 541.099 535.33 541.047 535.33Z" fill="#070707"/>
<path d="M498.014 522.998H499.008C500.864 522.998 502.643 523.741 503.956 525.063C505.268 526.385 506.005 528.179 506.005 530.048V536.858H491.01V530.051C491.01 529.125 491.191 528.207 491.543 527.351C491.895 526.495 492.41 525.717 493.061 525.062C493.711 524.407 494.484 523.888 495.333 523.534C496.183 523.179 497.094 522.998 498.014 522.998V522.998Z" stroke="#070707" stroke-width="2" stroke-linecap="round" stroke-linejoin="round"/>
<path d="M503.072 522.998H504.066C505.922 522.998 507.702 523.741 509.014 525.063C510.326 526.385 511.064 528.179 511.064 530.048V536.858H496.066V530.051C496.066 528.182 496.803 526.388 498.115 525.066C499.428 523.744 501.207 523.001 503.063 523.001L503.072 522.998Z" stroke="#070707" stroke-width="2" stroke-linecap="round" stroke-linejoin="round"/>
<path d="M533.604 609.762H513.519L522.035 536.864H525.09L533.604 609.762Z" fill="#F4F1ED" stroke="#070707" stroke-width="2" stroke-linecap="round" stroke-linejoin="round"/>
<path d="M522.035 536.864L513.519 609.762H466.84L475.357 536.864H522.035Z" fill="#F4F1ED" stroke="#070707" stroke-width="2" stroke-linecap="round" stroke-linejoin="round"/>
<path d="M201.705 373.624H119.124C115.532 373.624 112.62 376.558 112.62 380.178V473.806C112.62 477.426 115.532 480.36 119.124 480.36H201.705C205.297 480.36 208.209 477.426 208.209 473.806V380.178C208.209 376.558 205.297 373.624 201.705 373.624Z" fill="#A0E9D9" stroke="black" stroke-width="2" stroke-linecap="round" stroke-linejoin="round"/>
<path d="M193.01 383.72C191.967 382.67 190.638 381.954 189.191 381.664C187.744 381.374 186.244 381.523 184.881 382.092C183.518 382.661 182.353 383.624 181.534 384.86C180.714 386.095 180.276 387.548 180.275 389.034V410.928H195.194V389.034C195.195 388.047 195.003 387.07 194.628 386.158C194.254 385.246 193.704 384.418 193.01 383.72V383.72ZM187.736 389.258C187.418 389.258 187.107 389.162 186.842 388.984C186.577 388.806 186.371 388.553 186.249 388.257C186.127 387.96 186.096 387.634 186.158 387.32C186.22 387.005 186.373 386.716 186.598 386.489C186.823 386.263 187.11 386.108 187.422 386.046C187.734 385.983 188.058 386.015 188.352 386.138C188.646 386.261 188.897 386.469 189.074 386.735C189.251 387.002 189.346 387.315 189.346 387.636C189.345 388.064 189.176 388.475 188.876 388.779C188.577 389.082 188.17 389.254 187.745 389.258H187.736Z" stroke="#070707" stroke-width="2" stroke-linecap="round" stroke-linejoin="round"/>
<path d="M192.007 382.322C190.965 381.27 189.635 380.553 188.188 380.262C186.741 379.972 185.24 380.12 183.877 380.689C182.513 381.258 181.348 382.222 180.528 383.459C179.708 384.695 179.271 386.149 179.272 387.636V409.53H194.194V387.636C194.196 386.649 194.003 385.671 193.628 384.759C193.252 383.847 192.702 383.019 192.007 382.322ZM186.733 387.859C186.414 387.86 186.102 387.765 185.837 387.587C185.571 387.409 185.364 387.155 185.242 386.859C185.119 386.562 185.087 386.235 185.149 385.92C185.21 385.604 185.364 385.315 185.589 385.087C185.815 384.86 186.102 384.705 186.415 384.642C186.728 384.579 187.052 384.611 187.347 384.734C187.641 384.857 187.893 385.065 188.071 385.332C188.248 385.599 188.343 385.913 188.343 386.235C188.343 386.665 188.173 387.078 187.871 387.382C187.57 387.687 187.16 387.859 186.733 387.859Z" fill="#F4F1ED" stroke="#070707" stroke-width="2" stroke-linecap="round" stroke-linejoin="round"/>
<path d="M186.733 385.624V372.566C186.733 371.57 187.126 370.614 187.825 369.91C188.525 369.205 189.473 368.809 190.462 368.809C190.952 368.809 191.437 368.906 191.89 369.094C192.343 369.283 192.754 369.56 193.101 369.909C193.447 370.258 193.722 370.672 193.91 371.128C194.098 371.584 194.194 372.073 194.194 372.566V372.942" stroke="#070707" stroke-width="2" stroke-linecap="round" stroke-linejoin="round"/>
<path d="M189.765 398.975C189.634 398.661 189.435 398.38 189.182 398.153C188.945 397.934 188.669 397.762 188.369 397.647C188.066 397.532 187.657 397.402 187.144 397.259H187.109V394.672H187.144C187.386 394.74 187.604 394.872 187.777 395.054C187.951 395.237 188.072 395.463 188.13 395.708C188.158 395.897 188.253 396.068 188.398 396.19C188.544 396.312 188.728 396.376 188.917 396.369C189.019 396.371 189.12 396.352 189.214 396.313C189.308 396.274 189.394 396.216 189.465 396.143C189.538 396.074 189.595 395.99 189.634 395.897C189.674 395.804 189.693 395.704 189.693 395.603C189.685 395.388 189.633 395.177 189.541 394.983C189.429 394.745 189.284 394.524 189.109 394.328C188.885 394.059 188.601 393.846 188.281 393.705C187.918 393.556 187.535 393.462 187.144 393.429H187.109V392.639C187.109 392.537 187.069 392.44 186.998 392.369C186.927 392.297 186.831 392.257 186.73 392.257C186.63 392.257 186.533 392.297 186.462 392.369C186.391 392.44 186.351 392.537 186.351 392.639V393.432C185.626 393.452 184.933 393.734 184.398 394.228C184.026 394.646 183.793 395.171 183.733 395.729C183.674 396.288 183.79 396.851 184.065 397.339C184.29 397.684 184.602 397.963 184.969 398.147C185.413 398.362 185.875 398.534 186.351 398.661V401.563C186.109 401.5 185.884 401.383 185.692 401.222C185.535 401.084 185.406 400.916 185.316 400.726C185.235 400.544 185.138 400.282 185.025 399.941C184.982 399.791 184.888 399.661 184.759 399.574C184.619 399.483 184.454 399.437 184.287 399.442C184.178 399.438 184.07 399.458 183.97 399.499C183.869 399.541 183.779 399.603 183.704 399.683C183.631 399.753 183.573 399.837 183.533 399.929C183.493 400.022 183.472 400.122 183.471 400.223C183.474 400.507 183.533 400.788 183.643 401.049C183.772 401.35 183.954 401.626 184.179 401.863C184.439 402.133 184.745 402.354 185.083 402.515C185.483 402.696 185.909 402.811 186.345 402.856V403.443C186.345 403.544 186.385 403.641 186.456 403.713C186.528 403.785 186.624 403.825 186.724 403.825C186.825 403.825 186.921 403.785 186.992 403.713C187.064 403.641 187.103 403.544 187.103 403.443V402.832H187.138C187.678 402.797 188.202 402.638 188.669 402.365C189.08 402.122 189.418 401.77 189.646 401.349C189.865 400.94 189.979 400.482 189.975 400.018C189.978 399.659 189.906 399.304 189.765 398.975ZM185.517 396.569C185.339 396.356 185.243 396.085 185.247 395.806C185.25 395.527 185.354 395.259 185.538 395.05C185.774 394.858 186.049 394.718 186.343 394.639V397.027C186.04 396.931 185.76 396.775 185.517 396.569ZM188.104 401.111C187.845 401.382 187.505 401.56 187.136 401.619H187.101V398.875H187.136C187.491 398.975 187.824 399.145 188.112 399.377C188.225 399.485 188.314 399.615 188.371 399.76C188.428 399.906 188.454 400.062 188.445 400.218C188.451 400.549 188.328 400.869 188.104 401.111Z" fill="#070707"/>
<path d="M103.736 409.609H90.8665C90.8665 409.609 78.5045 398.578 73.102 392.072C72.3642 391.176 71.6891 390.23 71.0815 389.24C70.5131 388.309 70.2005 387.242 70.1758 386.149C70.151 385.056 70.415 383.976 70.9406 383.02C71.4662 382.064 72.2346 381.265 73.1672 380.706C74.0997 380.148 75.1629 379.849 76.2479 379.84H76.3878C89.4495 379.825 103.745 403.678 103.736 409.609Z" fill="#1C0E0C"/>
<path d="M110.835 409.609H101.779C101.779 409.609 93.0823 401.848 89.2804 397.271C88.7617 396.641 88.2873 395.976 87.8606 395.28C87.4588 394.625 87.2373 393.874 87.219 393.104C87.2007 392.334 87.3862 391.573 87.7564 390.9C88.1266 390.226 88.6682 389.664 89.3255 389.271C89.9828 388.878 90.732 388.669 91.4963 388.664H91.5925C100.782 388.664 110.838 405.438 110.835 409.609Z" fill="#F4F1ED"/>
<path d="M83.9158 367.382C105.578 367.153 113.112 398.341 112.643 409.609H103.736C103.736 403.678 89.4495 379.837 76.3878 379.837C71.755 379.837 69.0231 383.996 70.4196 387.768C70.4196 387.757 61.4426 367.62 83.9158 367.382Z" fill="#F76C6C" stroke="black" stroke-width="2" stroke-linecap="round" stroke-linejoin="round"/>
<path d="M150.152 405.185C151.679 401.501 149.624 397.254 145.819 396.099C128.177 390.738 110.138 409.612 110.138 409.612H105.724C105.724 409.612 114.981 382.119 142.268 386.205C148.242 387.098 156.085 392.894 150.152 405.185Z" fill="#F76C6C" stroke="black" stroke-width="2" stroke-linecap="round" stroke-linejoin="round"/>
<path d="M150.152 405.247C149.332 407.18 148.329 408.986 147.615 409.609H137.586C137.586 409.609 139.985 408.789 142.306 405.247C145.125 400.943 143.819 395.62 139.959 395.259C141.949 395.279 143.929 395.563 145.845 396.105C149.659 397.262 151.714 401.563 150.152 405.247Z" fill="#1C0E0C"/>
<path d="M154.012 408.681H88.4641C80.5144 408.681 74.0699 415.174 74.0699 423.183V500.611C74.0699 508.621 80.5144 515.114 88.4641 515.114H154.012C161.961 515.114 168.406 508.621 168.406 500.611V423.183C168.406 415.174 161.961 408.681 154.012 408.681Z" fill="#1C0E0C"/>
<path d="M136.378 408.681H73.5714C65.6217 408.681 59.1772 415.174 59.1772 423.183V500.611C59.1772 508.621 65.6217 515.114 73.5714 515.114H136.378C144.328 515.114 150.773 508.621 150.773 500.611V423.183C150.773 415.174 144.328 408.681 136.378 408.681Z" fill="#F4F1ED" stroke="#070707" stroke-width="2" stroke-linecap="round" stroke-linejoin="round"/>
<path d="M274.442 389.164H255.75C251.187 389.161 246.743 390.632 243.07 393.361C239.397 396.089 236.689 399.932 235.342 404.324L205.311 502.206C203.454 508.257 199.723 513.549 194.665 517.308C189.606 521.068 183.485 523.095 177.199 523.095H73.2507C69.1047 523.095 65.0782 524.495 61.8147 527.071C58.5511 529.647 56.2387 533.251 55.247 537.307L51.4568 557.606C50.9119 559.833 50.8771 562.157 51.3552 564.4C51.8333 566.643 52.8117 568.747 54.2163 570.553C55.6209 572.359 57.415 573.819 59.4625 574.823C61.5101 575.827 63.7575 576.348 66.0346 576.347H192.766" stroke="#070707" stroke-width="2" stroke-linecap="round" stroke-linejoin="round"/>
<path d="M177.293 523.095H80.8749C74.5906 523.094 68.4719 521.065 63.4148 517.306C58.3577 513.547 54.628 508.256 52.7717 502.206L33.5027 423.927H229.341L205.434 502.174C203.58 508.235 199.847 513.538 194.782 517.303C189.717 521.069 183.587 523.099 177.293 523.095Z" stroke="#070707" stroke-width="2" stroke-linecap="round" stroke-linejoin="round"/>
<path d="M113.206 523.095L82.7729 423.927" stroke="#070707" stroke-width="2" stroke-linecap="round" stroke-linejoin="round"/>
<path d="M138.9 523.095L169.333 423.927" stroke="#070707" stroke-width="2" stroke-linecap="round" stroke-linejoin="round"/>
<path d="M215.107 470.281H45.3429" stroke="#070707" stroke-width="2" stroke-linecap="round" stroke-linejoin="round"/>
<path d="M178.514 615.605C186.725 615.605 193.381 608.898 193.381 600.626C193.381 592.354 186.725 585.647 178.514 585.647C170.304 585.647 163.648 592.354 163.648 600.626C163.648 608.898 170.304 615.605 178.514 615.605Z" fill="#C5DCDD"/>
<path d="M77.5803 615.605C85.7908 615.605 92.4467 608.898 92.4467 600.626C92.4467 592.354 85.7908 585.647 77.5803 585.647C69.3697 585.647 62.7138 592.354 62.7138 600.626C62.7138 608.898 69.3697 615.605 77.5803 615.605Z" fill="#C5DCDD"/>
<path d="M175.427 612.97C183.637 612.97 190.293 606.263 190.293 597.991C190.293 589.719 183.637 583.012 175.427 583.012C167.216 583.012 160.56 589.719 160.56 597.991C160.56 606.263 167.216 612.97 175.427 612.97Z" stroke="#070707" stroke-width="2" stroke-linecap="round" stroke-linejoin="round"/>
<path d="M74.4898 612.97C82.7003 612.97 89.3562 606.263 89.3562 597.991C89.3562 589.719 82.7003 583.012 74.4898 583.012C66.2792 583.012 59.6233 589.719 59.6233 597.991C59.6233 606.263 66.2792 612.97 74.4898 612.97Z" stroke="#070707" stroke-width="2" stroke-linecap="round" stroke-linejoin="round"/>
<path d="M190.506 485.033H175.529C173.195 485.033 171.304 486.939 171.304 489.29V510.855C171.304 513.205 173.195 515.111 175.529 515.111H190.506C192.839 515.111 194.731 513.205 194.731 510.855V489.29C194.731 486.939 192.839 485.033 190.506 485.033Z" fill="#A0E9D9" stroke="black" stroke-width="2" stroke-linecap="round" stroke-linejoin="round"/>
<path d="M673.493 343.438H625.555V354.086H673.493V343.438Z" fill="#1C0E0C"/>
<path d="M667.189 599.604C668.831 603.919 670.195 610.338 664.446 610.338H633.357C633.357 610.338 633.267 605.564 640.526 604.927C652.815 603.849 656.681 594.034 656.853 589.39C657.206 564.368 647.524 488.018 645.911 473.251C656.39 472.926 666.82 471.674 677.082 469.511C671.813 487.486 683.155 502.233 684.038 520.305C684.913 538.326 670.659 578.274 666.53 591.94C666.189 594.378 666.452 597.656 667.189 599.604Z" fill="#FCBE9F" stroke="#070707" stroke-width="2" stroke-linecap="round" stroke-linejoin="round"/>
<path d="M667.189 599.604C667.189 599.604 671.945 610.338 665.032 610.338H632.882C632.882 610.338 631.59 606.278 639.937 604.927C641.104 604.742 644.422 604.098 644.422 604.098C644.422 604.098 643.389 607.1 650.74 606.774C658.09 606.448 661.399 600.141 667.189 599.604Z" fill="#A0E9D9" stroke="black" stroke-width="2" stroke-linecap="round" stroke-linejoin="round"/>
<path d="M676.184 473.336C666.491 476.071 656.558 477.853 646.524 478.659L645.903 473.251C656.38 472.925 666.81 471.674 677.07 469.511L676.184 473.336Z" fill="#1C0E0C"/>
<path d="M583.609 462.958C593.95 467.001 604.707 469.868 615.68 471.503L606.175 487.157C606.175 490.256 619.709 504.606 623.432 517.414C627.928 532.913 623.669 576.065 625.088 582.98C625.978 587.301 621.52 596.293 617.161 600.456C614.537 602.955 611.207 602.024 611.207 602.024C611.207 602.024 618.254 587.827 614.913 576.782C602.598 536.032 578.469 489.537 578.469 483.074C578.469 479.584 580.244 472.975 582.886 465.082L583.609 462.958Z" fill="#FCBE9F" stroke="#070707" stroke-width="2" stroke-linecap="round" stroke-linejoin="round"/>
<path d="M624.602 583.717C626.421 582.728 632.646 588.271 632.328 591.355L617.275 610.111H601.846C601.846 610.111 600.26 603.649 611.196 602.057C622.132 600.464 617.555 587.56 624.602 583.717Z" fill="#A0E9D9" stroke="black" stroke-width="2" stroke-linecap="round" stroke-linejoin="round"/>
<path d="M583.609 462.958C593.95 467.001 604.707 469.868 615.68 471.503L612.149 477.352C602.315 475.254 592.37 470.91 582.88 465.12L583.609 462.958Z" fill="#1C0E0C"/>
<path d="M688.948 466.421C688.948 466.421 635.958 484.54 581.536 462.132C581.536 462.132 621.29 372.966 624.599 366.292C627.908 359.618 627.68 348.89 627.68 348.89C627.68 348.89 626.019 331.735 621.05 326.012C616.082 320.29 613.245 313.854 615.846 305.743C618.447 297.633 621.517 281.655 621.517 281.655L632.41 278.077L670.819 277.36C670.819 277.36 675.572 282.942 674.548 293.432C673.674 302.538 662.332 328.189 672.163 348.881C676.656 356.269 692.479 369.585 694.391 392.874C696.867 422.925 688.948 466.421 688.948 466.421Z" fill="#A0E9D9" stroke="black" stroke-width="2" stroke-linecap="round" stroke-linejoin="round"/>
<path d="M629.404 290.524C629.197 282.363 622.867 277.516 616.467 285.583C611.936 291.287 600.251 311.415 593.568 324.297C586.991 314.247 572.398 296.833 564.281 289.169C564.556 285.785 562.934 276.426 561.949 275.727C560.862 274.955 555.733 267.396 555.733 267.396C555.733 267.396 553.844 268.419 555.593 271.547C557.634 275.178 557.182 276.329 557.182 276.329C557.182 276.329 554.89 276.708 554.613 278.233C554.336 279.758 552.549 278.685 551.73 281C551.252 282.354 550.158 282.88 550.465 284.231C550.756 285.497 556.987 290.776 560.197 291.69C564.637 305.1 578.442 335.8 591.425 343.925C594.227 345.224 598.913 343.77 604.916 336.581C629.943 306.639 629.581 297.415 629.404 290.524Z" fill="#FCBE9F" stroke="#070707" stroke-width="2" stroke-linecap="round" stroke-linejoin="round"/>
<path d="M658.65 247.303C658.413 253.502 657.51 263.099 672.146 279.728C679.994 288.644 656.11 291.22 643.32 284.481C634.523 279.852 632.412 278.086 632.412 278.086C632.412 278.086 640.681 277.343 643.9 268.98C646.121 263.207 643.914 256.642 642.801 247.298L658.65 247.303Z" fill="#FCBE9F" stroke="#070707" stroke-width="2" stroke-linecap="round" stroke-linejoin="round"/>
<path d="M654.883 248.517C654.967 249.31 653.346 263.686 644.722 266.321C645.556 261.739 643.5 253.983 643.04 248.508L654.883 248.517Z" fill="#1C0E0C"/>
<path d="M666.956 249.301C668.927 258.845 696.931 256.234 698.806 279.664" stroke="#070707" stroke-width="2" stroke-linecap="round" stroke-linejoin="round"/>
<path d="M668.991 296.81C658.626 292.028 644.171 277.792 658.448 255.955C656.813 255.341 655.09 254.192 654.556 252.098C653.46 247.747 638.663 242.63 637.987 233.506C637.76 230.448 640.051 223.069 655.597 223.918C671.073 224.767 672.478 243.511 667.551 249.157C667.542 249.164 667.534 249.173 667.527 249.184C669.705 259.826 699.371 259.885 695.123 286.117C693.94 293.444 682.825 303.19 668.991 296.81Z" fill="#1C0E0C"/>
<path d="M653.897 252.024C653.859 252.814 652.387 257.967 641.972 260.428C640.083 260.878 635.1 261.016 634.975 259.841C634.835 258.46 633.996 253.008 633.917 250.091C633.893 249.192 630.957 247.177 631.494 246.525C633.141 244.522 636.054 242.222 636.118 241.396C636.605 235.192 638.914 231.734 641.179 231.858C642.474 231.928 640.83 243.438 653.9 247.201C653.9 247.201 657.614 245.259 658.168 247.309C658.722 249.36 653.897 252.024 653.897 252.024Z" fill="#FCBE9F" stroke="#070707" stroke-width="2" stroke-linecap="round" stroke-linejoin="round"/>
<path d="M348.241 597.524C348.241 597.524 343.413 607.638 346.728 611.295H389.313C389.313 611.295 389.076 604.213 378.817 603.097C369.612 602.095 364.005 597.515 364.005 597.515L348.241 597.524Z" fill="#1C0E0C"/>
<path d="M389.796 611.295H346.072C345.751 611.295 345.492 611.557 345.492 611.88V613.255C345.492 613.577 345.751 613.839 346.072 613.839H389.796C390.117 613.839 390.377 613.577 390.377 613.255V611.88C390.377 611.557 390.117 611.295 389.796 611.295Z" fill="#1C0E0C"/>
<path d="M366.778 602.759L368.21 599.507C368.293 599.316 368.413 599.145 368.564 599.003C368.715 598.861 368.893 598.751 369.087 598.681C369.281 598.61 369.488 598.581 369.694 598.593C369.9 598.606 370.101 598.661 370.286 598.755V598.755C370.615 598.923 370.874 599.206 371.012 599.551C371.15 599.896 371.159 600.28 371.038 600.632L370.84 601.181" stroke="#070707" stroke-width="2" stroke-linecap="round" stroke-linejoin="round"/>
<path d="M370.985 604.272L372.37 600.937C372.443 600.771 372.549 600.621 372.681 600.497C372.813 600.373 372.969 600.278 373.139 600.217C373.309 600.155 373.489 600.13 373.669 600.141C373.849 600.152 374.025 600.2 374.187 600.282C374.475 600.429 374.7 600.676 374.821 600.977C374.942 601.279 374.949 601.615 374.843 601.922L374.723 602.383" stroke="#070707" stroke-width="2" stroke-linecap="round" stroke-linejoin="round"/>
<path d="M375.251 605.629L376.16 602.259C376.212 602.086 376.298 601.924 376.413 601.785C376.528 601.646 376.67 601.531 376.83 601.449C376.991 601.366 377.166 601.318 377.345 601.306C377.525 601.293 377.705 601.318 377.875 601.378V601.378C378.505 601.601 378.919 602.212 378.822 603.105" stroke="#070707" stroke-width="2" stroke-linecap="round" stroke-linejoin="round"/>
<path d="M272.41 597.524C272.41 597.524 267.582 607.638 270.897 611.295H311.105C311.105 611.295 310.866 604.213 300.609 603.097C291.402 602.095 285.798 597.515 285.798 597.515L272.41 597.524Z" fill="#1C0E0C"/>
<path d="M311.586 611.295H270.241C269.92 611.295 269.661 611.557 269.661 611.88V613.255C269.661 613.577 269.92 613.839 270.241 613.839H311.586C311.907 613.839 312.167 613.577 312.167 613.255V611.88C312.167 611.557 311.907 611.295 311.586 611.295Z" fill="#1C0E0C"/>
<path d="M288.556 602.759L289.988 599.507C290.071 599.316 290.192 599.145 290.344 599.003C290.495 598.862 290.673 598.752 290.867 598.682C291.062 598.612 291.268 598.582 291.474 598.594C291.681 598.607 291.882 598.661 292.067 598.755V598.755C292.396 598.923 292.654 599.206 292.792 599.551C292.93 599.897 292.939 600.281 292.816 600.632L292.618 601.181" stroke="#070707" stroke-width="2" stroke-linecap="round" stroke-linejoin="round"/>
<path d="M292.778 604.272L294.163 600.937C294.236 600.771 294.342 600.621 294.474 600.497C294.606 600.373 294.762 600.278 294.932 600.217C295.101 600.155 295.282 600.13 295.462 600.141C295.642 600.152 295.818 600.2 295.979 600.282V600.282C296.267 600.429 296.492 600.676 296.613 600.978C296.734 601.279 296.742 601.615 296.635 601.922L296.516 602.383" stroke="#070707" stroke-width="2" stroke-linecap="round" stroke-linejoin="round"/>
<path d="M297.041 605.629L297.953 602.259C298.005 602.086 298.091 601.924 298.206 601.785C298.321 601.646 298.463 601.531 298.623 601.449C298.783 601.366 298.959 601.318 299.138 601.306C299.318 601.293 299.498 601.318 299.668 601.378V601.378C300.297 601.601 300.711 602.212 300.615 603.105" stroke="#070707" stroke-width="2" stroke-linecap="round" stroke-linejoin="round"/>
<path d="M360.116 379.023C363.323 391.067 364.425 431.549 365.463 491.205C366.218 534.49 369.95 596.111 369.95 596.111C369.95 596.111 360.136 600.406 342.789 597.069C342.789 597.069 326.17 541.901 332.092 501.713C333.036 495.274 324.053 457.136 324.053 457.136C324.053 457.136 288.291 587.216 288.291 597.862C288.291 597.862 274.352 600.561 266.072 597.862C266.072 597.862 253.564 538.603 273.407 504.089C284.093 485.503 281.644 417.529 281.935 412.05C282.918 392.727 292.303 378.174 292.303 378.174L360.116 379.023Z" fill="#A0E9D9" stroke="black" stroke-width="2" stroke-linecap="round" stroke-linejoin="round"/>
<path d="M324.053 457.614C322.87 452.368 316.703 414.432 315.047 412.99C313.391 411.548 310.551 409.653 308.659 407.744" stroke="#070707" stroke-width="2" stroke-linecap="round" stroke-linejoin="round"/>
<path d="M361.239 384.904C336.421 398.229 298.743 391.708 289.761 382.798C290.527 381.214 291.374 379.671 292.297 378.174L360.122 379.023C360.606 380.96 360.979 382.924 361.239 384.904Z" fill="#1C0E0C"/>
<path d="M293.79 356.178C293.594 357.467 293.317 358.743 292.959 359.997C283.171 359.838 274.518 358.396 270.363 354.377C258.275 342.686 267.36 314.1 267.929 312.37C272.159 315.205 278.244 318.372 286.915 321.303C290.825 337.184 294.399 351.951 293.79 356.178Z" fill="#FCBE9F" stroke="#070707" stroke-width="2" stroke-linecap="round" stroke-linejoin="round"/>
<path d="M267.94 312.364C272.171 315.199 278.256 318.366 286.927 321.297C287.828 324.961 288.711 328.559 289.53 331.987C277.868 326.738 271.955 320.478 266.853 316.198L267.94 312.364Z" fill="#1C0E0C"/>
<path d="M447.539 259.891C446.956 259.124 445.971 258.968 445.772 258.651C445.574 258.334 445.641 257.535 445.058 257.021C444.475 256.507 443.621 256.586 443.256 256.287C442.892 255.987 443.14 255.111 442.446 254.362C441.752 253.613 440.761 253.707 440.539 253.481C440.317 253.255 444.186 246.466 442.714 245.588C441.242 244.71 433.705 254.336 432.218 256.592C429.157 261.242 429.127 267.079 428.719 269.171C428.688 269.193 428.658 269.218 428.632 269.247C427.451 270.678 399.523 298.573 394.555 307.873L390.132 301.116L364.737 319.238C364.737 319.238 383.196 346.264 399.52 340.544C414.972 335.13 432.545 282.525 435.787 275.284C441.116 274.223 445.574 268.257 447.026 265.537C448.913 262.029 448.122 260.655 447.539 259.891Z" fill="#FCBE9F" stroke="#070707" stroke-width="2" stroke-linecap="round" stroke-linejoin="round"/>
<path d="M391.365 303.017C387.115 312.897 379.842 321.15 370.609 326.573C368.511 324.245 366.552 321.792 364.743 319.229L390.129 301.122L391.365 303.017Z" fill="#1C0E0C"/>
<path d="M286.915 321.297C290.825 337.184 294.399 351.951 293.79 356.178C292.513 365.046 285.44 375.971 288.755 378.503C298.047 385.644 328.039 393.062 362.533 380.853C362.533 380.853 358.116 372.464 362.892 338.955C363.597 334.002 364.527 327.108 365.472 319.526H365.492C380.989 314.039 392.998 297.735 392.998 297.735C392.998 297.735 385.464 277.578 377.149 270.786C371.901 266.497 344.713 258.813 342.491 257.509L310.231 257.077C308.079 257.259 285.034 264.617 275.562 271.647C266.94 278.045 258.858 303.578 258.858 303.578C258.858 303.578 263.311 313.307 286.915 321.297Z" fill="#F4F1ED" stroke="#070707" stroke-width="2" stroke-linecap="round" stroke-linejoin="round"/>
<path d="M309.266 257.276C311.84 256.069 320.829 246.754 319.412 235.506L339.404 237.798C339.404 237.798 341.401 251.774 344.713 258.83C337.696 260.616 330.48 261.478 323.243 261.395C311.315 261.242 309.266 257.276 309.266 257.276Z" fill="#FCBE9F" stroke="#070707" stroke-width="2" stroke-linecap="round" stroke-linejoin="round"/>
<path d="M342.197 251.813C340.188 251.578 335.905 250.693 333.634 248.581C329.934 245.144 324.742 237.548 324.692 236.158L339.404 237.798C339.404 237.798 340.64 244.807 342.197 251.813Z" fill="#1C0E0C"/>
<path d="M329.52 236.264C329.52 236.264 332.666 241.913 335.891 242.727C339.115 243.54 346.506 242.906 348.754 241.552C350.142 240.717 349.722 233.788 349.457 231.27C349.404 230.786 353.2 229.167 352.955 227.689C352.696 226.121 348.393 222.402 348.014 220.319C346.9 214.206 345.389 208.434 344.894 208.219C344.089 207.864 331.433 208.675 329.937 212.156C328.441 215.637 330.325 226.415 330.325 226.415C330.325 226.415 326.243 224.009 325.018 227.222C323.205 231.931 329.52 236.264 329.52 236.264Z" fill="#FCBE9F" stroke="#070707" stroke-width="2" stroke-linecap="round" stroke-linejoin="round"/>
<path d="M353.18 204.327C357.577 207.905 350.967 222.693 337.564 212.194" stroke="black" stroke-width="2" stroke-linecap="round" stroke-linejoin="round"/>
<path d="M305.26 215.745C307.843 211.101 312.922 214.985 312.922 214.985" stroke="black" stroke-width="2" stroke-linecap="round" stroke-linejoin="round"/>
<path d="M349.107 230.46C349.107 230.46 344.15 234.522 341.354 234.866C338.558 235.21 336.238 226.744 335.375 223.001C333.439 214.312 333.666 210.84 341.681 213.804C352.253 217.714 354.369 204.539 350.291 202.321C347.693 200.911 346.433 201.348 342.771 203.202C338.69 205.282 330.045 198.396 319.765 201.44C310.111 204.295 311.584 214.112 311.584 214.112C311.584 214.112 307.776 213.416 307.085 219.024C306.54 223.459 312.648 231.317 317.356 240.106C318.677 242.571 325.08 241.099 326.657 238.614C326.657 238.614 328.768 234.986 326.126 230.583C323.96 226.976 327.689 224.064 331.404 227.211C330.858 229.734 329.678 236.549 331.914 240.065C335.258 245.324 352.495 246.108 352.923 243.185C353.352 240.262 349.107 230.46 349.107 230.46Z" fill="#1C0E0C"/>
<path d="M654.192 251.416C656.551 251.416 658.463 249.489 658.463 247.113C658.463 244.736 656.551 242.809 654.192 242.809C651.833 242.809 649.92 244.736 649.92 247.113C649.92 249.489 651.833 251.416 654.192 251.416Z" fill="#FCBE9F"/>
<path d="M652.568 249.739C652.568 249.739 652.075 248.044 652.53 246.507C652.685 245.951 652.989 245.448 653.409 245.054C653.83 244.66 654.349 244.39 654.912 244.275" stroke="#070707" stroke-width="2" stroke-linecap="round" stroke-linejoin="round"/>
<path d="M654.912 247.627L652.53 246.513" stroke="#070707" stroke-width="2" stroke-linecap="round" stroke-linejoin="round"/>
<path d="M657.364 253.936C658.46 253.936 659.349 253.041 659.349 251.936C659.349 250.831 658.46 249.936 657.364 249.936C656.267 249.936 655.378 250.831 655.378 251.936C655.378 253.041 656.267 253.936 657.364 253.936Z" fill="#F7F3EF" stroke="#070707" stroke-width="2" stroke-linecap="round" stroke-linejoin="round"/>
<path d="M638.418 243.211C638.955 243.211 639.389 242.57 639.389 241.778C639.389 240.986 638.955 240.344 638.418 240.344C637.882 240.344 637.448 240.986 637.448 241.778C637.448 242.57 637.882 243.211 638.418 243.211Z" fill="#1C0E0C"/>
<path d="M634.993 251.936C634.993 251.936 637.191 252.133 638.418 250.635" stroke="#070707" stroke-width="2" stroke-linecap="round" stroke-linejoin="round"/>
<path d="M333.756 235.885C331.823 236.426 329.756 236.17 328.01 235.175C326.264 234.18 324.982 232.526 324.446 230.579C323.909 228.631 324.163 226.548 325.151 224.789C326.138 223.03 327.779 221.738 329.713 221.197" fill="#FCBE9F"/>
<path d="M333.756 235.885C331.823 236.426 329.756 236.17 328.01 235.175C326.264 234.18 324.982 232.526 324.446 230.579C323.909 228.631 324.163 226.548 325.151 224.789C326.138 223.03 327.779 221.738 329.713 221.197" stroke="#070707" stroke-width="2" stroke-linecap="round" stroke-linejoin="round"/>
<path d="M327.126 227.66C327.126 227.66 330.144 225.683 332.407 229.179L327.126 227.66Z" fill="#FCBE9F"/>
<path d="M327.126 227.66C327.126 227.66 330.144 225.683 332.407 229.179" stroke="#070707" stroke-width="2" stroke-linecap="round" stroke-linejoin="round"/>
<path d="M330.517 227.405L328.963 230.46" stroke="#070707" stroke-width="2" stroke-linecap="round" stroke-linejoin="round"/>
<path d="M344.595 224.218C345.246 224.09 345.618 223.184 345.426 222.195C345.235 221.207 344.552 220.509 343.9 220.637C343.249 220.765 342.877 221.671 343.069 222.659C343.26 223.648 343.943 224.346 344.595 224.218Z" fill="#1C0E0C"/>
<path d="M342.885 216.617L340.112 218.126C339.599 218.405 339.408 219.05 339.685 219.567C339.962 220.084 340.603 220.276 341.116 219.997L343.889 218.488C344.401 218.209 344.593 217.564 344.316 217.047C344.038 216.53 343.398 216.338 342.885 216.617Z" fill="#1C0E0C"/>
<path d="M278.988 291.079L286.915 321.297" stroke="#070707" stroke-width="2" stroke-linecap="round" stroke-linejoin="round"/>
<path d="M376.577 273.365C376.577 273.365 359.641 274.405 357.058 292.9" stroke="#070707" stroke-width="2" stroke-linecap="round" stroke-linejoin="round"/>
</g>
<defs>
<clipPath id="clip0_37_615">
<rect width="850" height="723" fill="white"/>
</clipPath>
</defs>
</svg>
