<svg width="368" height="352" viewBox="0 0 368 352" fill="none" xmlns="http://www.w3.org/2000/svg">
<path d="M354.559 1H39.2344C35.9138 1 33.2218 3.69191 33.2218 7.01255V246.84C33.2218 250.161 35.9138 252.853 39.2344 252.853H354.559C357.88 252.853 360.572 250.161 360.572 246.84V7.01255C360.572 3.69191 357.88 1 354.559 1Z" fill="#F4F1ED" stroke="#070707" stroke-width="2" stroke-linecap="round" stroke-linejoin="round"/>
<path d="M33.2218 19.8702H360.572" stroke="#070707" stroke-width="2" stroke-linecap="round" stroke-linejoin="round"/>
<path d="M74.0543 8.77161H71.2295C70.2911 8.77161 69.5304 9.53233 69.5304 10.4707V13.2956C69.5304 14.234 70.2911 14.9947 71.2295 14.9947H74.0543C74.9928 14.9947 75.7535 14.234 75.7535 13.2956V10.4707C75.7535 9.53233 74.9928 8.77161 74.0543 8.77161Z" fill="#1C0E0C"/>
<path d="M63.4385 8.77161H60.6136C59.6752 8.77161 58.9145 9.53233 58.9145 10.4707V13.2956C58.9145 14.234 59.6752 14.9947 60.6136 14.9947H63.4385C64.3769 14.9947 65.1376 14.234 65.1376 13.2956V10.4707C65.1376 9.53233 64.3769 8.77161 63.4385 8.77161Z" fill="#1C0E0C"/>
<path d="M52.8242 8.77161H49.9993C49.0609 8.77161 48.3002 9.53233 48.3002 10.4707V13.2956C48.3002 14.234 49.0609 14.9947 49.9993 14.9947H52.8242C53.7626 14.9947 54.5233 14.234 54.5233 13.2956V10.4707C54.5233 9.53233 53.7626 8.77161 52.8242 8.77161Z" fill="#1C0E0C"/>
<path d="M72.7715 7.6297H69.9466C69.0082 7.6297 68.2475 8.39042 68.2475 9.32882V12.1537C68.2475 13.0921 69.0082 13.8528 69.9466 13.8528H72.7715C73.7099 13.8528 74.4706 13.0921 74.4706 12.1537V9.32882C74.4706 8.39042 73.7099 7.6297 72.7715 7.6297Z" fill="#C5DCDD" stroke="black" stroke-width="2" stroke-linecap="round" stroke-linejoin="round"/>
<path d="M62.1556 7.6297H59.3307C58.3923 7.6297 57.6316 8.39042 57.6316 9.32882V12.1537C57.6316 13.0921 58.3923 13.8528 59.3307 13.8528H62.1556C63.094 13.8528 63.8547 13.0921 63.8547 12.1537V9.32882C63.8547 8.39042 63.094 7.6297 62.1556 7.6297Z" fill="#FFBF00" stroke="black" stroke-width="2" stroke-linecap="round" stroke-linejoin="round"/>
<path d="M51.5397 7.6297H48.7148C47.7764 7.6297 47.0157 8.39042 47.0157 9.32882V12.1537C47.0157 13.0921 47.7764 13.8528 48.7148 13.8528H51.5397C52.4781 13.8528 53.2388 13.0921 53.2388 12.1537V9.32882C53.2388 8.39042 52.4781 7.6297 51.5397 7.6297Z" fill="#F46F40" stroke="black" stroke-width="2" stroke-linecap="round" stroke-linejoin="round"/>
<path d="M1 229.836C2.2142 228.628 3.85771 227.949 5.57096 227.949C7.28421 227.949 8.92771 228.628 10.1419 229.836V229.836C11.3562 231.045 13 231.724 14.7137 231.724C16.4273 231.724 18.0712 231.045 19.2855 229.836L19.956 229.169C21.1702 227.96 22.8137 227.282 24.527 227.282C26.2402 227.282 27.8838 227.96 29.098 229.169L30.0957 230.162C31.3099 231.371 32.9534 232.049 34.6667 232.049C36.3799 232.049 38.0234 231.371 39.2376 230.162L40.0605 229.342C41.2747 228.133 42.9186 227.454 44.6322 227.454C46.3459 227.454 47.9897 228.133 49.204 229.342" stroke="#070707" stroke-width="2" stroke-linecap="round" stroke-linejoin="round"/>
<path d="M40.0589 229.367C41.2731 228.157 42.917 227.478 44.6306 227.478C46.3443 227.478 47.9881 228.157 49.2024 229.367L50.1321 230.293C51.3464 231.502 52.9902 232.181 54.7039 232.181C56.4175 232.181 58.0614 231.502 59.2757 230.293L59.8426 229.729C61.0568 228.521 62.7003 227.842 64.4135 227.842C66.1268 227.842 67.7703 228.521 68.9845 229.729V229.729C70.1988 230.939 71.8426 231.617 73.5563 231.617C75.2699 231.617 76.9138 230.939 78.128 229.729L78.797 229.06C80.0113 227.851 81.6551 227.172 83.3688 227.172C85.0824 227.172 86.7263 227.851 87.9405 229.06L88.9383 230.055C90.1525 231.264 91.796 231.942 93.5093 231.942C95.2225 231.942 96.866 231.264 98.0802 230.055L98.9031 229.234C100.117 228.025 101.761 227.346 103.475 227.346C105.188 227.346 106.832 228.025 108.047 229.234" stroke="#070707" stroke-width="2" stroke-linecap="round" stroke-linejoin="round"/>
<path d="M1 234.845C2.2142 233.636 3.85771 232.957 5.57096 232.957C7.28421 232.957 8.92771 233.636 10.1419 234.845V234.845C11.3562 236.054 13 236.733 14.7137 236.733C16.4273 236.733 18.0712 236.054 19.2855 234.845L19.9641 234.171C21.1783 232.962 22.8218 232.283 24.5351 232.283C26.2483 232.283 27.8919 232.962 29.106 234.171L30.1038 235.164C31.318 236.372 32.9615 237.051 34.6748 237.051C36.388 237.051 38.0315 236.372 39.2457 235.164L40.0686 234.344C41.2828 233.135 42.9267 232.456 44.6403 232.456C46.354 232.456 47.9978 233.135 49.2121 234.344" stroke="#070707" stroke-width="2" stroke-linecap="round" stroke-linejoin="round"/>
<path d="M40.0589 234.375C41.2731 233.166 42.917 232.487 44.6306 232.487C46.3443 232.487 47.9881 233.166 49.2024 234.375L50.1321 235.301C51.3464 236.511 52.9902 237.189 54.7039 237.189C56.4175 237.189 58.0614 236.511 59.2757 235.301L59.8426 234.738C61.0568 233.529 62.7003 232.85 64.4135 232.85C66.1268 232.85 67.7703 233.529 68.9845 234.738V234.738C70.1988 235.947 71.8426 236.626 73.5563 236.626C75.2699 236.626 76.9138 235.947 78.128 234.738L78.797 234.069C80.0113 232.86 81.6551 232.181 83.3688 232.181C85.0824 232.181 86.7263 232.86 87.9405 234.069L88.9383 235.063C90.1525 236.272 91.796 236.951 93.5093 236.951C95.2225 236.951 96.866 236.272 98.0802 235.063L98.9031 234.242C100.117 233.033 101.761 232.354 103.475 232.354C105.188 232.354 106.832 233.033 108.047 234.242" stroke="#070707" stroke-width="2" stroke-linecap="round" stroke-linejoin="round"/>
<path d="M275.546 50.8999C276.924 50.8999 278.042 49.7824 278.042 48.4039C278.042 47.0254 276.924 45.9078 275.546 45.9078C274.167 45.9078 273.05 47.0254 273.05 48.4039C273.05 49.7824 274.167 50.8999 275.546 50.8999Z" stroke="#070707" stroke-width="2" stroke-linecap="round" stroke-linejoin="round"/>
<path d="M265.516 43.3178C267.486 43.3178 269.083 41.7209 269.083 39.7511C269.083 37.7813 267.486 36.1844 265.516 36.1844C263.546 36.1844 261.95 37.7813 261.95 39.7511C261.95 41.7209 263.546 43.3178 265.516 43.3178Z" fill="#EFAF00" stroke="black" stroke-width="2" stroke-linecap="round" stroke-linejoin="round"/>
<path d="M309.99 127.952C323.405 127.952 334.28 117.077 334.28 103.662C334.28 90.247 323.405 79.372 309.99 79.372C296.575 79.372 285.7 90.247 285.7 103.662C285.7 117.077 296.575 127.952 309.99 127.952Z" fill="#1C0E0C"/>
<path d="M309.99 125.512C323.405 125.512 334.28 114.638 334.28 101.223C334.28 87.8076 323.405 76.9327 309.99 76.9327C296.575 76.9327 285.7 87.8076 285.7 101.223C285.7 114.638 296.575 125.512 309.99 125.512Z" fill="#F4F1ED" stroke="#070707" stroke-width="2" stroke-linecap="round" stroke-linejoin="round"/>
<path d="M314.53 114.665H300.62L303.019 95.0723H316.927L314.53 114.665Z" fill="#F4F1ED"/>
<path d="M320.653 114.665H314.538L316.937 95.0723H318.254L320.653 114.665Z" fill="#FFBF00"/>
<path d="M319.652 114.425H313.63L316.139 93.9288H317.143L319.652 114.425Z" stroke="#070707" stroke-width="2" stroke-linecap="round" stroke-linejoin="round"/>
<path d="M316.139 93.9288L313.63 114.425H299.329L301.836 93.9288H316.139Z" stroke="#070707" stroke-width="2" stroke-linecap="round" stroke-linejoin="round"/>
<path d="M310.275 87.7802H311.263C311.564 87.7802 311.863 87.8395 312.141 87.9548C312.419 88.0701 312.672 88.239 312.885 88.452C313.098 88.665 313.267 88.9178 313.382 89.1961C313.497 89.4743 313.557 89.7726 313.557 90.0738V93.9385H307.98V90.0738C307.98 89.7725 308.039 89.4741 308.155 89.1957C308.27 88.9173 308.439 88.6644 308.652 88.4514C308.865 88.2384 309.118 88.0695 309.397 87.9543C309.675 87.8392 309.974 87.78 310.275 87.7802V87.7802Z" stroke="#070707" stroke-width="2" stroke-linecap="round" stroke-linejoin="round"/>
<path d="M308.646 87.7802H309.634C309.935 87.7802 310.233 87.8395 310.511 87.9548C310.79 88.0701 311.042 88.239 311.255 88.452C311.468 88.665 311.637 88.9178 311.753 89.1961C311.868 89.4743 311.927 89.7726 311.927 90.0738V93.9385H306.35V90.0738C306.35 89.4655 306.592 88.8821 307.022 88.452C307.452 88.0219 308.036 87.7802 308.644 87.7802H308.646Z" stroke="#070707" stroke-width="2" stroke-linecap="round" stroke-linejoin="round"/>
<path d="M333.775 173.964C325.104 187.084 308.762 194.266 301.541 190.206C294.562 186.279 293.953 166.939 302.625 153.811C311.297 140.683 325.787 134.551 334.218 140.116C342.649 145.682 342.447 160.835 333.775 173.964Z" fill="#EFAF00" stroke="black" stroke-width="2" stroke-linecap="round" stroke-linejoin="round"/>
<path d="M302.507 234.435C302.507 234.435 293.773 163.585 334.157 140.437" stroke="#070707" stroke-width="2" stroke-linecap="round" stroke-linejoin="round"/>
<path d="M339.876 156.247L315.693 158.716" stroke="#070707" stroke-width="2" stroke-linecap="round" stroke-linejoin="round"/>
<path d="M339.546 158.8L314.166 161.39" stroke="#070707" stroke-width="2" stroke-linecap="round" stroke-linejoin="round"/>
<path d="M302.913 153.954L309.059 172.115" stroke="#070707" stroke-width="2" stroke-linecap="round" stroke-linejoin="round"/>
<path d="M365.83 210.155C363.149 217.071 351.399 218.968 339.589 214.389C327.78 209.81 323.222 200.715 323.738 197.692C324.386 193.882 338.329 187.377 349.3 189.339C361.767 191.571 368.512 203.233 365.83 210.155Z" fill="#EFAF00" stroke="black" stroke-width="2" stroke-linecap="round" stroke-linejoin="round"/>
<path d="M295.284 234.435C295.284 234.435 294.225 203.313 327.091 196.924C345.087 193.427 359.001 202.47 365.389 210.138" stroke="#070707" stroke-width="2" stroke-linecap="round" stroke-linejoin="round"/>
<path d="M345.056 197.412L356.278 192.269" stroke="#070707" stroke-width="2" stroke-linecap="round" stroke-linejoin="round"/>
<path d="M347.857 198.304L358.307 193.414" stroke="#070707" stroke-width="2" stroke-linecap="round" stroke-linejoin="round"/>
<path d="M340.412 196.51L344.786 215.569" stroke="#070707" stroke-width="2" stroke-linecap="round" stroke-linejoin="round"/>
<path d="M288.698 188.195C294.032 196.246 293.196 207.647 288.86 210.297C286.23 211.905 275.17 209.001 269.838 200.948C264.506 192.894 264.523 183.237 269.689 179.815C274.854 176.392 283.366 180.145 288.698 188.195Z" fill="#EFAF00" stroke="black" stroke-width="2" stroke-linecap="round" stroke-linejoin="round"/>
<path d="M291.355 234.435C291.355 234.435 294.351 194.185 269.844 180.233" stroke="#070707" stroke-width="2" stroke-linecap="round" stroke-linejoin="round"/>
<path d="M266.433 191.984H281.895" stroke="#070707" stroke-width="2" stroke-linecap="round" stroke-linejoin="round"/>
<path d="M267.212 194.658H283.423" stroke="#070707" stroke-width="2" stroke-linecap="round" stroke-linejoin="round"/>
<path d="M289.066 189.305L286.286 200.392" stroke="#070707" stroke-width="2" stroke-linecap="round" stroke-linejoin="round"/>
<path d="M319.236 241.307V269.297C319.236 270.2 319.059 271.094 318.714 271.928C318.369 272.762 317.862 273.521 317.224 274.159C316.585 274.797 315.827 275.303 314.993 275.648C314.158 275.993 313.264 276.17 312.361 276.169H284.373C283.471 276.17 282.577 275.993 281.742 275.648C280.908 275.303 280.15 274.797 279.511 274.158C278.873 273.52 278.366 272.762 278.021 271.928C277.676 271.094 277.499 270.2 277.499 269.297V241.307C277.501 239.485 278.225 237.737 279.514 236.448C280.803 235.16 282.551 234.436 284.373 234.435H312.361C314.184 234.435 315.932 235.159 317.221 236.448C318.51 237.737 319.235 239.485 319.236 241.307V241.307Z" fill="#F4F1ED" stroke="#070707" stroke-width="2" stroke-linecap="round" stroke-linejoin="round"/>
<path d="M312.577 234.435H284.156C280.48 234.435 277.499 237.415 277.499 241.092V269.512C277.499 273.189 280.48 276.169 284.156 276.169H312.577C316.253 276.169 319.234 273.189 319.234 269.512V241.092C319.234 237.415 316.253 234.435 312.577 234.435Z" stroke="#FFC3D5" stroke-width="2" stroke-miterlimit="10"/>
<path d="M319.236 241.307V269.297C319.236 270.2 319.059 271.094 318.714 271.928C318.369 272.762 317.862 273.521 317.224 274.159C316.585 274.797 315.827 275.303 314.993 275.648C314.158 275.993 313.264 276.17 312.361 276.169H284.373C283.471 276.17 282.577 275.993 281.742 275.648C280.908 275.303 280.15 274.797 279.511 274.158C278.873 273.52 278.366 272.762 278.021 271.928C277.676 271.094 277.499 270.2 277.499 269.297V241.307C277.501 239.485 278.225 237.737 279.514 236.448C280.803 235.16 282.551 234.436 284.373 234.435H312.361C314.184 234.435 315.932 235.159 317.221 236.448C318.51 237.737 319.235 239.485 319.236 241.307V241.307Z" stroke="#070707" stroke-width="2" stroke-linecap="round" stroke-linejoin="round"/>
<path d="M89.0987 88.3099C103.267 88.3099 114.752 76.8243 114.752 62.6561C114.752 48.4879 103.267 37.0024 89.0987 37.0024C74.9305 37.0024 63.4449 48.4879 63.4449 62.6561C63.4449 76.8243 74.9305 88.3099 89.0987 88.3099Z" fill="#1C0E0C"/>
<path d="M89.0987 85.0704C103.267 85.0704 114.752 73.5848 114.752 59.4166C114.752 45.2484 103.267 33.7629 89.0987 33.7629C74.9305 33.7629 63.4449 45.2484 63.4449 59.4166C63.4449 73.5848 74.9305 85.0704 89.0987 85.0704Z" fill="#F4F1ED" stroke="#070707" stroke-width="2" stroke-linecap="round" stroke-linejoin="round"/>
<path d="M82.2066 67.0278H99.6303L103.119 55.743H78.7322L82.2066 67.0278Z" fill="#FFBF00"/>
<path d="M69.9839 50.5922H73.6672C74.2167 50.5922 74.7517 50.7682 75.1938 51.0944C75.636 51.4205 75.9621 51.8797 76.1244 52.4047L80.5139 66.6002H98.2535L99.1298 70.1524C99.1954 70.4186 99.1996 70.6964 99.142 70.9645C99.0844 71.2326 98.9666 71.4841 98.7974 71.7C98.6282 71.9158 98.4121 72.0903 98.1655 72.2103C97.9189 72.3303 97.6482 72.3926 97.374 72.3925H81.2525" stroke="#070707" stroke-width="2" stroke-linecap="round" stroke-linejoin="round"/>
<path d="M80.4994 66.6003H98.1985L101.864 54.7469H76.8484L80.4994 66.6003Z" stroke="#070707" stroke-width="2" stroke-linecap="round" stroke-linejoin="round"/>
<path d="M91.6919 66.6003L95.3574 54.7469" stroke="#070707" stroke-width="2" stroke-linecap="round" stroke-linejoin="round"/>
<path d="M87.7397 66.6003L84.0742 54.7469" stroke="#070707" stroke-width="2" stroke-linecap="round" stroke-linejoin="round"/>
<path d="M78.5621 60.288H100.152" stroke="#070707" stroke-width="2" stroke-linecap="round" stroke-linejoin="round"/>
<path d="M83.3404 77.3425C84.3289 77.3425 85.1303 76.5411 85.1303 75.5526C85.1303 74.5642 84.3289 73.7628 83.3404 73.7628C82.3519 73.7628 81.5506 74.5642 81.5506 75.5526C81.5506 76.5411 82.3519 77.3425 83.3404 77.3425Z" stroke="#070707" stroke-width="2" stroke-linecap="round" stroke-linejoin="round"/>
<path d="M96.3552 77.3425C97.3437 77.3425 98.145 76.5411 98.145 75.5526C98.145 74.5642 97.3437 73.7628 96.3552 73.7628C95.3667 73.7628 94.5654 74.5642 94.5654 75.5526C94.5654 76.5411 95.3667 77.3425 96.3552 77.3425Z" stroke="#070707" stroke-width="2" stroke-linecap="round" stroke-linejoin="round"/>
<path d="M89.3206 41.1911V50.3541" stroke="#070707" stroke-width="2" stroke-linecap="round" stroke-linejoin="round"/>
<path d="M84.8484 46.4003L89.2785 50.8303L93.4753 46.6335" stroke="#070707" stroke-width="2" stroke-linecap="round" stroke-linejoin="round"/>
<path d="M223.305 341.091C224.743 344.675 225.938 350.006 220.902 350.006H193.672C193.672 350.006 193.593 346.041 199.95 345.512C210.715 344.619 214.101 336.465 214.252 332.607C214.561 311.824 206.079 248.411 204.667 236.143C213.843 235.873 222.976 234.837 231.963 233.044C227.351 247.972 237.283 260.22 238.057 275.23C238.823 290.202 226.337 323.379 222.72 334.73C222.429 336.74 222.659 339.473 223.305 341.091Z" fill="#FCBE9F" stroke="#070707" stroke-width="2" stroke-linecap="round" stroke-linejoin="round"/>
<path d="M223.305 341.091C223.305 341.091 227.471 350.006 221.415 350.006H193.253C193.253 350.006 192.122 346.634 199.436 345.514C200.458 345.358 203.362 344.824 203.362 344.824C203.362 344.824 202.458 347.317 208.896 347.047C215.335 346.776 218.233 341.53 223.305 341.091Z" fill="#F46F40" stroke="black" stroke-width="2" stroke-linecap="round" stroke-linejoin="round"/>
<path d="M231.184 236.216C222.694 238.487 213.994 239.967 205.206 240.635L204.662 236.143C213.839 235.873 222.975 234.837 231.963 233.044L231.184 236.216Z" fill="#1C0E0C"/>
<path d="M150.092 227.599C159.151 230.957 168.573 233.338 178.185 234.696L169.844 247.699C169.844 250.273 181.702 262.192 184.961 272.83C188.899 285.702 185.168 321.545 186.412 327.288C187.19 330.877 183.286 338.348 179.47 341.806C177.171 343.879 174.252 343.108 174.252 343.108C174.252 343.108 180.425 331.314 177.498 322.14C166.711 288.294 145.574 249.675 145.574 244.307C145.574 241.408 147.13 235.919 149.444 229.363L150.092 227.599Z" fill="#FCBE9F" stroke="#070707" stroke-width="2" stroke-linecap="round" stroke-linejoin="round"/>
<path d="M186 327.898C187.594 327.073 193.047 331.678 192.768 334.242L179.585 349.821H166.067C166.067 349.821 164.678 344.453 174.257 343.133C183.837 341.813 179.828 331.087 186 327.898Z" fill="#F46F40" stroke="black" stroke-width="2" stroke-linecap="round" stroke-linejoin="round"/>
<path d="M150.092 227.599C159.151 230.957 168.573 233.338 178.185 234.696L175.103 239.547C166.488 237.805 157.78 234.196 149.464 229.387L150.092 227.599Z" fill="#1C0E0C"/>
<path d="M242.375 230.47C242.375 230.47 195.955 245.52 148.284 226.908C148.284 226.908 183.107 152.85 186.008 147.304C188.909 141.758 188.705 132.85 188.705 132.85C188.705 132.85 187.249 118.601 182.897 113.848C178.545 109.095 176.06 103.749 178.341 97.0126C180.622 90.2761 183.306 77.0054 183.306 77.0054L192.847 74.0336L226.493 73.4383C226.493 73.4383 230.656 78.0741 229.759 86.787C228.98 94.3507 219.058 115.656 227.67 132.843C231.608 138.979 245.466 150.039 247.144 169.383C249.302 194.343 242.375 230.47 242.375 230.47Z" fill="#F76C6C" stroke="black" stroke-width="2" stroke-linecap="round" stroke-linejoin="round"/>
<path d="M190.209 84.3788C190.025 77.6007 184.481 73.5749 178.875 80.2749C174.906 85.0132 164.67 101.731 158.816 112.43C153.055 104.083 140.275 89.6197 133.162 83.254C133.402 80.4432 131.982 72.6697 131.119 72.089C130.164 71.4473 125.662 65.1792 125.662 65.1792C125.662 65.1792 124.007 66.0283 125.539 68.6268C127.327 71.6425 126.933 72.5989 126.933 72.5989C126.933 72.5989 124.923 72.9137 124.681 74.18C124.438 75.4463 122.873 74.5557 122.155 76.4784C121.736 77.6032 120.778 78.0399 121.047 79.1623C121.302 80.2139 126.762 84.5984 129.572 85.3572C133.461 96.4978 145.554 121.995 156.927 128.744C159.383 129.822 163.485 128.614 168.744 122.644C190.679 97.7568 190.362 90.0955 190.209 84.3788Z" fill="#FCBE9F" stroke="#070707" stroke-width="2" stroke-linecap="round" stroke-linejoin="round"/>
<path d="M215.815 48.4732C215.608 53.6238 214.816 61.5926 227.637 75.4048C234.512 82.8099 213.59 84.9497 202.386 79.3526C194.684 75.5073 192.832 74.0409 192.832 74.0409C192.832 74.0409 200.075 73.4236 202.894 66.4772C204.841 61.6828 202.894 56.2419 201.932 48.4683L215.815 48.4732Z" fill="#FCBE9F" stroke="#070707" stroke-width="2" stroke-linecap="round" stroke-linejoin="round"/>
<path d="M212.525 49.476C212.602 50.1347 211.182 62.0756 203.625 64.2642C204.355 60.458 202.557 54.0166 202.151 49.4686L212.525 49.476Z" fill="#1C0E0C"/>
<path d="M223.104 50.1348C224.83 58.0596 249.358 55.8905 251 75.3512" stroke="#070707" stroke-width="2" stroke-linecap="round" stroke-linejoin="round"/>
<path d="M224.884 89.5929C215.815 85.6207 203.142 73.7969 215.649 55.6636C214.216 55.1537 212.707 54.1996 212.242 52.46C211.279 48.8465 198.318 44.5962 197.725 37.0203C197.529 34.4779 199.533 28.3489 213.151 29.0565C226.707 29.7592 227.938 45.3282 223.622 50.0177L223.602 50.0396C225.509 58.8794 251.503 58.9282 247.782 80.7263C246.737 86.7967 237.012 94.8923 224.884 89.5929Z" fill="#1C0E0C"/>
<path d="M211.665 52.3941C211.631 53.0504 210.339 57.33 201.219 59.3771C199.562 59.7479 195.197 59.865 195.09 58.8891C194.967 57.7423 194.232 53.2114 194.165 50.7886C194.142 50.0444 191.57 48.3682 192.04 47.8266C193.483 46.1626 196.035 44.2545 196.093 43.5665C196.517 38.4134 198.54 35.5417 200.524 35.6441C201.661 35.7027 200.218 45.2622 211.667 48.3877C211.667 48.3877 214.921 46.775 215.406 48.478C215.891 50.1811 211.665 52.3941 211.665 52.3941Z" fill="#FCBE9F" stroke="#070707" stroke-width="2" stroke-linecap="round" stroke-linejoin="round"/>
<path d="M211.92 51.889C213.986 51.889 215.661 50.2887 215.661 48.3146C215.661 46.3404 213.986 44.7401 211.92 44.7401C209.854 44.7401 208.178 46.3404 208.178 48.3146C208.178 50.2887 209.854 51.889 211.92 51.889Z" fill="#FCBE9F"/>
<path d="M210.497 50.4959C210.497 50.4959 210.066 49.088 210.467 47.812C210.601 47.349 210.867 46.9306 211.235 46.6029C211.603 46.2752 212.058 46.0511 212.551 45.9552" stroke="#070707" stroke-width="2" stroke-linecap="round" stroke-linejoin="round"/>
<path d="M212.551 48.7416L210.467 47.8193" stroke="#070707" stroke-width="2" stroke-linecap="round" stroke-linejoin="round"/>
<path d="M214.701 53.9825C215.662 53.9825 216.44 53.2386 216.44 52.3209C216.44 51.4033 215.662 50.6594 214.701 50.6594C213.741 50.6594 212.962 51.4033 212.962 52.3209C212.962 53.2386 213.741 53.9825 214.701 53.9825Z" fill="#F7F3EF" stroke="#070707" stroke-width="2" stroke-linecap="round" stroke-linejoin="round"/>
<path d="M198.103 45.0768C198.573 45.0768 198.954 44.5438 198.954 43.8862C198.954 43.2286 198.573 42.6955 198.103 42.6955C197.634 42.6955 197.253 43.2286 197.253 43.8862C197.253 44.5438 197.634 45.0768 198.103 45.0768Z" fill="#1C0E0C"/>
<path d="M195.102 52.3209C195.102 52.3209 197.028 52.4843 198.103 51.2424" stroke="#070707" stroke-width="2" stroke-linecap="round" stroke-linejoin="round"/>
</svg>
