<svg width="202" height="358" viewBox="0 0 202 358" fill="none" xmlns="http://www.w3.org/2000/svg">
<path d="M168.491 145.924C168.491 145.924 192.049 187.183 181.306 206.918C170.562 226.652 151.66 233.985 129.298 231.431C72.6394 224.99 2.88376 178.853 4.64233 163.979C7.01819 143.896 111.331 166.912 111.331 166.912L120.615 146.125L168.491 145.924Z" fill="#A0E9D9" stroke="black" stroke-width="2" stroke-linecap="round" stroke-linejoin="round"/>
<path d="M5.32546 161.611C2.17595 165.043 -20.8226 212.73 117.995 247.425L123.207 237.293C123.207 237.293 30.1923 134.518 5.32546 161.611Z" fill="#A0E9D9" stroke="black" stroke-width="2" stroke-linecap="round" stroke-linejoin="round"/>
<path d="M123.391 237.293C123.391 237.293 76.8232 185.834 40.7767 165.331" stroke="#4B556A" stroke-width="2" stroke-miterlimit="10"/>
<path d="M117.989 247.425C124.398 248.638 151.646 258.6 157.676 257.271C163.706 255.942 154.143 237.014 150.373 236.219C146.604 235.424 128.039 237.638 123.213 237.293C118.387 236.947 117.989 247.425 117.989 247.425Z" fill="#C48270" stroke="#0F0F0F" stroke-width="2" stroke-linecap="round" stroke-linejoin="round"/>
<path d="M150.966 205.011C126.79 258.919 57.9344 320.406 57.9344 320.406C57.9344 320.406 52.7218 315.638 46.1978 315.345C46.1978 315.345 107.814 170.417 142.601 163.387C170.741 157.699 155.026 195.952 150.966 205.011Z" fill="#A0E9D9" stroke="black" stroke-width="2" stroke-linecap="round" stroke-linejoin="round"/>
<path d="M46.1786 315.009C40.0359 325.368 30.5408 347.148 24.5792 354.698C22.6423 357.153 39.7451 357.89 42.3405 355.696C45.907 352.699 46.1813 341.478 53.2623 340.027C58.217 339.023 63.1827 335.524 60.8699 330.472C57.6161 323.36 58.0908 319.997 58.0908 319.997C52.4858 313.387 46.1786 315.009 46.1786 315.009Z" fill="#C48270" stroke="#0F0F0F" stroke-width="2" stroke-linecap="round" stroke-linejoin="round"/>
<path d="M122.472 68.278C133.778 87.8121 118.905 133.055 112.047 139.822C99.3664 152.354 44.0936 150.579 44.0936 150.579L41.8494 145.208C41.8494 145.208 72.302 127.641 96.6174 126.245C96.6174 126.245 103.106 90.9866 105.257 80.8655C107.97 68.1213 114.664 54.7938 122.472 68.278Z" fill="#C48270" stroke="#0F0F0F" stroke-width="2" stroke-linecap="round" stroke-linejoin="round"/>
<path d="M48.0853 145.669C46.8645 142.442 36.431 144.462 32.2856 146.499C28.7575 148.24 24.4914 152.882 23.7973 153.869C23.1032 154.856 21.5477 159.826 21.5477 159.826C21.5477 159.826 23.0484 161.506 25.073 158.576C27.0977 155.645 32.346 152.293 33.6464 153.03C36.5737 154.684 29.4791 155.334 28.7081 156.512C27.9372 157.691 28.2994 158.407 28.2994 158.407C28.2994 158.407 34.9688 158.085 36.0332 157.928C37.0977 157.772 41.3556 155.746 43.4406 153.904C45.5257 152.061 48.8453 147.683 48.0853 145.669Z" fill="#E38E32"/>
<path d="M167.438 56.4595C170.859 57.5331 181.599 61.758 181.599 61.758C181.599 61.758 180.691 89.1818 177.649 95.6729C164.903 122.853 168.87 147.903 168.87 147.903C168.87 147.903 138.691 153.216 120.233 148.095C120.233 148.095 122.648 127.414 118.7 124.948C114.752 122.482 108.296 116.91 110.091 105.73C111.885 94.55 111.462 65.1819 113.619 63.2842C115.775 61.3865 125.344 56.4537 127.805 56.4624C130.266 56.4711 167.438 56.4595 167.438 56.4595Z" fill="#F4F1ED" stroke="#070707" stroke-width="2" stroke-linecap="round" stroke-linejoin="round"/>
<path d="M73.2101 111.824H5.62451C4.87967 111.824 4.14589 112.014 3.48555 112.379C2.82522 112.743 2.25787 113.271 1.83175 113.917C1.40562 114.563 1.13333 115.309 1.03802 116.09C0.942716 116.871 1.02721 117.665 1.28433 118.405L18.3186 167.391H97.4652L79.8438 116.73C79.3461 115.293 78.443 114.051 77.2566 113.173C76.0703 112.296 74.6578 111.825 73.2101 111.824V111.824Z" fill="#F9A09B" stroke="black" stroke-width="2" stroke-linecap="round" stroke-linejoin="round"/>
<path d="M71.8822 114.322H5.97842C5.25315 114.324 4.53897 114.511 3.89654 114.867C3.25411 115.223 2.70239 115.737 2.28823 116.367C1.87406 116.997 1.60969 117.723 1.51754 118.484C1.4254 119.245 1.50821 120.018 1.75895 120.738L18.357 168.491H95.5338L78.3514 119.095C77.8645 117.695 76.9832 116.487 75.8263 115.633C74.6694 114.779 73.2928 114.322 71.8822 114.322V114.322Z" fill="#F9A09B" stroke="black" stroke-width="2" stroke-linecap="round" stroke-linejoin="round"/>
<path d="M18.3542 167.536H130.269C131.536 167.536 132.751 168.068 133.646 169.016C134.542 169.963 135.045 171.248 135.045 172.588V173.699H23.1306C21.8639 173.699 20.649 173.167 19.7532 172.22C18.8575 171.272 18.3542 169.987 18.3542 168.647V167.536V167.536Z" fill="#F76C6C" stroke="black" stroke-width="2" stroke-linecap="round" stroke-linejoin="round"/>
<path d="M73.2101 111.824H5.62451C4.87967 111.824 4.14589 112.014 3.48555 112.379C2.82522 112.743 2.25787 113.271 1.83175 113.917C1.40562 114.563 1.13333 115.309 1.03802 116.09C0.942716 116.871 1.02721 117.665 1.28433 118.405L18.3186 167.391H97.4652L79.8438 116.73C79.3461 115.293 78.443 114.051 77.2566 113.173C76.0703 112.296 74.6578 111.825 73.2101 111.824V111.824Z" fill="#F76C6C" stroke="black" stroke-width="2" stroke-linecap="round" stroke-linejoin="round"/>
<path d="M49.887 145.682C51.4878 143.802 51.0075 140.584 48.814 138.495C46.6206 136.406 43.5447 136.237 41.9438 138.118C40.3429 139.998 40.8233 143.216 43.0167 145.305C45.2102 147.394 48.2861 147.563 49.887 145.682Z" fill="#F46F40" stroke="black" stroke-width="2" stroke-linecap="round" stroke-linejoin="round"/>
<path d="M108.159 169.753H103.43V171.549H108.159V169.753Z" fill="#F9A09B" stroke="black" stroke-width="2" stroke-linecap="round" stroke-linejoin="round"/>
<path d="M117.196 169.753H112.467V171.549H117.196V169.753Z" fill="#F9A09B" stroke="black" stroke-width="2" stroke-linecap="round" stroke-linejoin="round"/>
<path d="M133.739 2.92901C133.739 2.92901 117.438 -5.16091 107.336 11.7937C97.2347 28.7482 111.098 36.3478 103.844 45.0267C95.9974 54.4195 86.0606 59.9211 94.1099 78.5354C102.318 97.5125 81.3857 90.5165 85.9124 111.644H121.405C121.405 111.644 136.672 105.991 132.104 92.0631C127.536 78.135 117.704 76.2083 126.892 63.9167C133.803 54.6893 165.685 56.5696 168.546 57.3647C171.407 58.1598 183.616 62.5877 183.616 62.5877C183.616 62.5877 188.469 47.232 181.528 38.7765C172.749 28.078 158.104 35.9647 155.432 23.412C153.63 14.9449 150.137 5.11108 144.307 3.25399C138.055 1.26924 133.739 2.92901 133.739 2.92901Z" fill="#1C0E0C"/>
<path d="M132.288 5.05888C132.288 5.05888 128.859 -0.573295 111.457 12.2609C100.7 20.1941 108.22 36.3449 100.969 45.0268C93.1168 54.4195 83.1854 59.9211 91.2347 78.5355C99.4405 97.5125 78.5105 90.5166 83.0372 111.644" stroke="#070707" stroke-width="2" stroke-linecap="round" stroke-linejoin="round"/>
<path d="M146.17 32.4276C146.17 32.4276 145.621 45.2125 150.038 51.7732C153.037 56.2302 150.343 55.8529 160.807 57.1239C160.807 57.1239 161.904 73.5417 137.674 73.5417C119.693 73.5417 126.892 63.9197 126.892 63.9197C126.892 63.9197 134.398 52.4203 131.163 32.4276H146.17Z" fill="#C48270" stroke="#0F0F0F" stroke-width="2" stroke-linecap="round" stroke-linejoin="round"/>
<path d="M146.406 31.4468C146.406 31.4468 146.872 57.1384 127.446 57.1384C127.053 57.1375 126.664 57.0433 126.31 56.8627C127.333 56.1083 133.717 50.5602 130.565 31.1131H146.406C146.406 31.1131 146.406 31.2263 146.406 31.4381V31.4468Z" fill="#1C0E0C"/>
<path d="M146.938 31.0203C146.938 31.0203 144.145 52.9831 130.977 53.0905C122.302 53.1572 117.29 40.2912 115.259 33.5476C112.938 25.8465 115.397 10.4502 127.772 10.6446C138.519 10.8158 144.134 26.3137 144.134 26.3137L146.938 31.0203Z" fill="#C48270" stroke="#0F0F0F" stroke-width="2" stroke-linecap="round" stroke-linejoin="round"/>
<path d="M144.403 29.8973C144.403 29.8973 143.874 27.9967 144.362 26.2789C144.527 25.6534 144.852 25.0883 145.301 24.6458C145.75 24.2034 146.307 23.9009 146.908 23.7718" stroke="#070707" stroke-width="2" stroke-linecap="round" stroke-linejoin="round"/>
<path d="M146.908 27.5296L144.362 26.2789" stroke="#070707" stroke-width="2" stroke-linecap="round" stroke-linejoin="round"/>
<path d="M166.609 63.7484C166.609 63.7484 159.007 84.5913 171.169 95.7918C175.089 99.4015 180.875 96.1023 180.875 96.1023" fill="#C48270"/>
<path d="M166.609 63.7484C166.609 63.7484 159.007 84.5913 171.169 95.7918C175.089 99.4015 180.875 96.1023 180.875 96.1023" stroke="#0F0F0F" stroke-width="2" stroke-linecap="round" stroke-linejoin="round"/>
<path d="M172.315 84.896C176.647 99.4044 182.395 119.931 182.395 119.931C159.599 121.24 125.215 135.864 121.037 137.678C114.093 139.317 104.255 145.266 102.362 146.458C100.601 147.523 97.8108 150.471 96.9713 151.658C96.0989 152.891 94.0303 157.337 94.0303 157.337C94.4677 157.566 94.9654 157.634 95.4435 157.529C95.9216 157.424 96.3525 157.152 96.6668 156.756C97.4899 155.822 98.8424 153.564 99.9343 152.468C98.9439 155.099 98.0139 157.818 98.0139 157.818C98.0139 157.818 100.483 158.454 103.622 157.377C105.13 156.864 106.796 153.805 108.56 151.789C110.324 149.772 114.176 150.729 118.028 150.048C121.879 149.366 124.56 143.374 124.56 143.374L124.505 143.275C134.51 143.449 187.138 143.812 198.598 132.484C205.457 125.717 196.571 81.6519 185.262 62.1206C180.291 53.5316 172.889 54.6865 169.407 60.1532C168.244 61.9755 166.859 63.0404 166.801 65.62" fill="#C48270"/>
<path d="M172.315 84.896C176.647 99.4044 182.395 119.931 182.395 119.931C159.599 121.24 125.215 135.864 121.037 137.678C114.093 139.317 104.255 145.266 102.362 146.458C100.601 147.523 97.8108 150.471 96.9713 151.658C96.0989 152.891 94.0303 157.337 94.0303 157.337C94.4677 157.566 94.9654 157.634 95.4435 157.529C95.9216 157.424 96.3525 157.152 96.6668 156.756C97.4899 155.822 98.8424 153.564 99.9343 152.468C98.9439 155.099 98.0139 157.818 98.0139 157.818C98.0139 157.818 100.483 158.454 103.622 157.377C105.13 156.864 106.796 153.805 108.56 151.789C110.324 149.772 114.176 150.729 118.028 150.048C121.879 149.366 124.56 143.374 124.56 143.374L124.505 143.275C134.51 143.449 187.138 143.812 198.598 132.484C205.457 125.717 196.571 81.6519 185.262 62.1206C180.291 53.5316 172.889 54.6865 169.407 60.1532C168.244 61.9755 166.859 63.0404 166.801 65.62" stroke="#0F0F0F" stroke-width="2" stroke-linecap="round" stroke-linejoin="round"/>
<path d="M99.9755 157.99C99.9344 157.997 99.8922 157.993 99.8532 157.978C99.8142 157.962 99.7799 157.936 99.754 157.901C99.7281 157.867 99.7116 157.825 99.7061 157.782C99.7007 157.738 99.7065 157.693 99.7231 157.653C100.019 156.91 102.65 150.367 103.811 149.482C105.819 147.944 108.436 145.924 108.436 145.924L108.711 146.322C108.711 146.322 106.091 148.353 104.082 149.879C103.191 150.561 100.941 155.86 100.151 157.844C100.136 157.882 100.111 157.915 100.081 157.941C100.05 157.966 100.014 157.983 99.9755 157.99V157.99Z" stroke="#070707" stroke-width="2" stroke-linecap="round" stroke-linejoin="round"/>
<path d="M102.486 157.54C102.44 157.548 102.393 157.542 102.351 157.522C102.295 157.495 102.252 157.445 102.23 157.383C102.209 157.322 102.211 157.254 102.236 157.194C102.343 156.951 104.859 151.176 106.036 150.277C108.044 148.739 110.664 146.722 110.664 146.722L110.938 147.12C110.938 147.12 108.318 149.151 106.31 150.674C105.413 151.359 103.372 155.761 102.659 157.4C102.643 157.437 102.619 157.469 102.589 157.493C102.558 157.517 102.523 157.533 102.486 157.54V157.54Z" stroke="#070707" stroke-width="2" stroke-linecap="round" stroke-linejoin="round"/>
<path d="M143.298 36.1678C143.298 36.1678 143.251 64.4361 157.728 66.476C172.206 68.5159 183.668 58.3513 183.668 58.3513" fill="#1C0E0C"/>
<path d="M125.394 31.3888L124.612 38.2223L127.342 39.9082" stroke="#070707" stroke-width="2" stroke-linecap="round" stroke-linejoin="round"/>
<path d="M131.098 31.5361C131.676 31.3217 131.927 30.4933 131.659 29.6858C131.391 28.8783 130.706 28.3975 130.128 28.612C129.55 28.8264 129.299 29.6548 129.567 30.4622C129.835 31.2697 130.521 31.7505 131.098 31.5361Z" fill="#1C0E0C"/>
<path d="M121.31 34.1819C121.888 33.9675 122.139 33.1391 121.871 32.3316C121.603 31.5241 120.918 31.0434 120.34 31.2578C119.762 31.4722 119.511 32.3006 119.779 33.1081C120.047 33.9155 120.733 34.3963 121.31 34.1819Z" fill="#1C0E0C"/>
<path d="M127.136 25.3764C127.136 25.3764 129.056 22.968 133.172 25.066" stroke="#070707" stroke-width="2" stroke-linecap="round" stroke-linejoin="round"/>
<path d="M117.023 28.7482C117.023 28.7482 118.099 25.8117 122.071 27.0623" stroke="#070707" stroke-width="2" stroke-linecap="round" stroke-linejoin="round"/>
<path d="M123.004 9.53901C123.004 9.53901 129.399 6.73888 131.534 13.4273C133.668 20.1157 137.144 25.7159 144.154 21.8422C151.163 17.9684 148.296 12.876 148.296 12.876" fill="#1C0E0C"/>
<path d="M145.073 31.1101C147.596 31.1101 149.641 28.9471 149.641 26.2788C149.641 23.6106 147.596 21.4475 145.073 21.4475C142.55 21.4475 140.505 23.6106 140.505 26.2788C140.505 28.9471 142.55 31.1101 145.073 31.1101Z" fill="#C48270"/>
<path d="M143.336 29.227C143.336 29.227 142.809 27.3235 143.298 25.6086C143.462 24.9835 143.787 24.4187 144.236 23.9763C144.684 23.5339 145.24 23.2312 145.841 23.1016" stroke="#070707" stroke-width="2" stroke-linecap="round" stroke-linejoin="round"/>
<path d="M145.841 26.8592L143.298 25.6086" stroke="#070707" stroke-width="2" stroke-linecap="round" stroke-linejoin="round"/>
<path d="M143.062 21.1458C141.759 8.5583 129.915 1.3505 129.786 1.30408L135.49 1.71612C136.178 1.96276 142.752 2.92903 148.878 19.6224L143.062 21.1458Z" fill="#EFAF00" stroke="black" stroke-width="2" stroke-linecap="round" stroke-linejoin="round"/>
<path d="M147.607 38.209C150.611 37.7851 152.515 33.2332 151.86 28.0421C151.205 22.8509 148.239 18.9863 145.235 19.4102C142.232 19.8341 140.328 24.386 140.982 29.5772C141.637 34.7683 144.603 38.6329 147.607 38.209Z" fill="#EFAF00" stroke="black" stroke-width="2" stroke-linecap="round" stroke-linejoin="round"/>
<path d="M149.505 37.94C152.508 37.5161 154.413 32.9642 153.758 27.773C153.103 22.5819 150.137 18.7173 147.133 19.1412C144.129 19.5651 142.225 24.117 142.88 29.3081C143.535 34.4993 146.501 38.3639 149.505 37.94Z" fill="#EFAF00" stroke="black" stroke-width="2" stroke-linecap="round" stroke-linejoin="round"/>
<path d="M127.342 43.3698C127.342 43.3698 131.608 44.1475 133.517 39.6905" stroke="#070707" stroke-width="2" stroke-linecap="round" stroke-linejoin="round"/>
</svg>
