<svg width="291" height="316" viewBox="0 0 291 316" fill="none" xmlns="http://www.w3.org/2000/svg">
<path d="M169.141 40.5446L6.55542 203.004C-5.00878 214.559 -0.332184 234.933 14.9773 239.678L230.188 306.375C245.497 311.123 259.953 296.693 256.207 280.377L203.582 51.2192C199.84 34.9204 180.705 28.9901 169.141 40.5446Z" fill="#A0E9D9"/>
<path d="M167.52 243.081H97.0959C86.4054 265.257 81.0555 289.849 81.515 314.703L181.513 314.798C181.152 301.68 179.638 288.626 176.99 275.802C174.672 264.646 171.505 253.704 167.52 243.081Z" fill="#F76C6C"/>
<path d="M161.369 154.034H105.069V217.086H161.369V154.034Z" fill="black"/>
<path d="M139.172 143.529H125.531C121.206 143.529 117.059 141.724 114.002 138.511C110.944 135.299 109.226 130.942 109.226 126.399V108.291C109.226 103.858 110.902 99.6072 113.886 96.4727C116.869 93.3382 120.916 91.5773 125.135 91.5773H139.115C144.689 91.5773 150.035 93.9037 153.977 98.0447C157.918 102.186 160.133 107.802 160.133 113.659V121.507C160.133 127.347 157.924 132.949 153.993 137.079C150.063 141.208 144.731 143.529 139.172 143.529Z" fill="black"/>
<path d="M156.153 137.475L164.505 108.467C164.621 108.062 164.821 107.689 165.091 107.374C165.36 107.059 165.693 106.811 166.064 106.646C166.436 106.482 166.837 106.406 167.24 106.423C167.642 106.44 168.036 106.551 168.394 106.746L177.412 111.674C177.803 111.887 178.14 112.197 178.393 112.577C178.646 112.957 178.808 113.395 178.865 113.854C178.922 114.314 178.873 114.781 178.722 115.216C178.57 115.652 178.321 116.042 177.995 116.354L156.153 137.475Z" fill="#FB6D6D"/>
<path d="M154.012 136.338L177.854 120.743C178.225 120.502 178.642 120.35 179.075 120.301C179.509 120.252 179.947 120.306 180.358 120.459C180.769 120.612 181.142 120.861 181.449 121.186C181.756 121.511 181.99 121.905 182.132 122.338L185.295 131.956C185.445 132.413 185.49 132.901 185.425 133.38C185.361 133.858 185.189 134.314 184.924 134.709C184.659 135.104 184.308 135.427 183.901 135.651C183.494 135.876 183.041 135.996 182.581 136L154.012 136.338Z" fill="#FB6D6D"/>
<path d="M161.369 138.439C160.406 138.439 159.464 138.139 158.663 137.577C157.862 137.015 157.237 136.215 156.869 135.28C156.5 134.345 156.404 133.316 156.592 132.324C156.78 131.331 157.244 130.419 157.925 129.703C158.606 128.988 159.474 128.5 160.419 128.303C161.364 128.105 162.343 128.207 163.233 128.594C164.123 128.981 164.884 129.637 165.419 130.479C165.954 131.32 166.24 132.31 166.24 133.322C166.238 134.679 165.724 135.979 164.811 136.938C163.898 137.898 162.66 138.437 161.369 138.439ZM161.369 129.612C160.671 129.612 159.988 129.83 159.407 130.238C158.827 130.645 158.374 131.225 158.107 131.902C157.84 132.58 157.77 133.326 157.906 134.046C158.042 134.765 158.378 135.426 158.872 135.945C159.366 136.464 159.995 136.817 160.68 136.96C161.365 137.103 162.075 137.03 162.72 136.749C163.365 136.468 163.917 135.993 164.305 135.383C164.693 134.773 164.9 134.056 164.9 133.322C164.898 132.339 164.526 131.396 163.864 130.701C163.202 130.006 162.305 129.614 161.369 129.612Z" fill="black"/>
<path d="M152.555 125.537C152.749 123.616 152.214 121.692 151.067 120.181C149.921 118.671 148.254 117.696 146.428 117.467L146.471 112.501C146.495 110.926 146.222 109.361 145.669 107.897C145.116 106.433 144.293 105.098 143.247 103.969C142.202 102.84 140.954 101.939 139.577 101.318C138.199 100.696 136.718 100.367 135.219 100.348L117.799 100.218C115.517 100.215 113.327 101.163 111.709 102.854C110.092 104.545 109.178 106.841 109.169 109.238L108.985 131.59C108.959 133.465 109.286 135.327 109.945 137.069C110.605 138.811 111.585 140.399 112.83 141.743C114.074 143.087 115.559 144.16 117.198 144.9C118.838 145.641 120.6 146.035 122.385 146.059H123.189L123.082 158.448L146.1 158.62L146.227 143.947H146.207L146.311 132.146C147.917 131.968 149.415 131.213 150.552 130.009C151.69 128.805 152.397 127.225 152.555 125.537Z" fill="white"/>
<path d="M197.341 187.498L169.734 204.595L186.879 241.846C186.879 241.846 194.618 257.282 209.13 250.046C212.058 248.559 214.669 246.463 216.805 243.886C218.941 241.309 220.558 238.305 221.558 235.053L236.476 187.498C236.476 187.498 258.392 179.681 261.641 159.563C261.767 158.926 261.777 158.269 261.671 157.628C261.506 156.668 261.089 155.776 260.469 155.051C260.691 154.52 260.871 153.971 261.005 153.408C261.306 152.13 261.594 150.884 260.609 149.828C260.2 149.362 259.634 149.08 259.032 149.041C258.429 149.001 257.835 149.208 257.373 149.617C257.601 148.308 257.259 147.154 256.492 146.647C256.177 146.452 255.812 146.362 255.447 146.39C253.715 146.499 252.455 148.994 252.097 149.691C250.63 152.507 247.531 157.269 242.941 163.945C242.941 163.945 249.544 154.537 246.03 151.947C244.982 151.176 243.729 152.257 243.039 153.024C241.762 154.432 241.27 156.378 240.322 157.997C239.072 160.028 237.401 161.735 235.434 162.991C232.335 165.061 228.905 166.159 226.078 168.682C224.79 169.819 223.643 171.12 222.661 172.554C221.511 174.25 221.106 176.253 220.115 177.967L204.768 204.345L197.341 187.498Z" fill="white"/>
<path d="M201.639 252.675C191.69 252.675 186.35 242.303 186.286 242.173L168.866 204.317L197.639 186.498L204.849 202.867L219.535 177.608C219.943 176.864 220.295 176.087 220.587 175.285C220.98 174.186 221.49 173.138 222.108 172.16C223.121 170.674 224.306 169.326 225.635 168.147C227.404 166.564 229.407 165.522 231.33 164.515C232.607 163.881 233.85 163.176 235.056 162.404C236.943 161.209 238.547 159.578 239.746 157.635C240.076 157.045 240.375 156.437 240.64 155.812C241.146 154.682 241.668 153.517 242.546 152.545C244.439 150.434 245.779 150.916 246.409 151.38C246.751 151.634 247.039 151.959 247.256 152.335C247.472 152.711 247.613 153.13 247.668 153.566C247.764 154.338 247.723 155.122 247.548 155.878C249.43 152.989 250.723 150.856 251.504 149.36L251.524 149.315C251.973 148.452 253.336 145.823 255.403 145.696C255.906 145.652 256.409 145.776 256.841 146.048C257.21 146.315 257.516 146.669 257.733 147.081C257.95 147.493 258.072 147.953 258.09 148.424C258.621 148.284 259.178 148.294 259.703 148.455C260.229 148.615 260.705 148.919 261.082 149.336C262.338 150.677 261.956 152.285 261.651 153.577C261.544 154.037 261.406 154.488 261.239 154.928C261.732 155.597 262.082 156.371 262.264 157.195C262.446 158.019 262.456 158.875 262.294 159.704C260.954 168.091 256.073 175.686 248.224 181.645C244.763 184.279 240.99 186.431 237.002 188.047L222.195 235.271C221.162 238.612 219.498 241.699 217.302 244.347C215.106 246.996 212.423 249.151 209.415 250.683C206.997 251.949 204.34 252.629 201.639 252.675ZM170.605 204.873L187.482 241.539C188.891 244.094 190.766 246.332 193 248.124C197.753 251.851 203.083 252.284 208.842 249.409C211.686 247.959 214.222 245.92 216.297 243.415C218.373 240.91 219.946 237.99 220.922 234.831L235.95 186.945L236.268 186.832C236.483 186.755 257.846 178.906 260.988 159.444C261.1 158.886 261.11 158.312 261.018 157.751C260.873 156.92 260.513 156.148 259.976 155.519L259.688 155.167L259.862 154.752C260.07 154.259 260.237 153.748 260.361 153.225C260.673 151.898 260.83 151.05 260.137 150.307C259.849 149.971 259.449 149.765 259.019 149.731C258.59 149.697 258.165 149.838 257.832 150.124L256.365 151.532L256.723 149.483C256.898 148.48 256.666 147.576 256.147 147.242C255.95 147.12 255.721 147.067 255.494 147.09C254.616 147.143 253.678 148.118 252.713 149.98L252.69 150.022C251.3 152.69 248.506 157.061 243.645 164.139L243.494 164.36L242.412 163.53L242.63 163.213C243.97 161.207 246.77 156.396 246.365 153.781C246.338 153.53 246.261 153.289 246.139 153.072C246.017 152.855 245.854 152.667 245.658 152.521C244.988 152.028 243.953 153.045 243.538 153.506C242.807 154.309 242.355 155.326 241.863 156.403C241.573 157.074 241.25 157.728 240.895 158.363C239.595 160.486 237.852 162.271 235.799 163.583C234.548 164.384 233.256 165.113 231.93 165.768C229.98 166.785 228.138 167.743 226.493 169.214C225.258 170.319 224.158 171.582 223.22 172.973C222.661 173.865 222.2 174.822 221.846 175.823C221.526 176.692 221.143 177.535 220.701 178.343L204.701 205.845L197.06 188.501L170.605 204.873Z" fill="black"/>
<path d="M145.5 128.349C145.407 128.354 145.315 128.354 145.222 128.349C144.681 128.291 144.168 128.066 143.749 127.702C143.33 127.339 143.023 126.852 142.866 126.305C142.71 125.758 142.711 125.175 142.87 124.628C143.03 124.082 143.339 123.598 143.761 123.236C144.182 122.875 144.695 122.653 145.237 122.598C145.778 122.543 146.323 122.658 146.802 122.929C147.281 123.199 147.673 123.612 147.928 124.117C148.184 124.621 148.291 125.194 148.237 125.762C148.168 126.474 147.851 127.134 147.346 127.614C146.841 128.095 146.185 128.361 145.503 128.363L145.5 128.349ZM145.5 123.978C145.227 123.978 144.96 124.061 144.731 124.217C144.502 124.374 144.322 124.596 144.211 124.859C144.1 125.121 144.065 125.411 144.108 125.694C144.151 125.977 144.271 126.241 144.455 126.454C144.638 126.666 144.876 126.818 145.14 126.892C145.403 126.965 145.682 126.956 145.941 126.867C146.2 126.777 146.429 126.611 146.6 126.387C146.771 126.163 146.876 125.893 146.904 125.607C146.94 125.216 146.828 124.826 146.591 124.522C146.354 124.218 146.013 124.025 145.641 123.985L145.5 123.978Z" fill="black"/>
<path d="M123.49 145.373L137.225 145.021C137.315 145.017 137.402 145.047 137.472 145.106C137.542 145.165 137.589 145.248 137.605 145.34C137.622 145.432 137.606 145.528 137.561 145.609C137.515 145.69 137.444 145.751 137.359 145.781L123.434 151.06L123.49 145.373Z" fill="black"/>
<path d="M143.443 126.519C143.276 126.52 143.115 126.455 142.992 126.338C142.868 126.221 142.79 126.06 142.773 125.885C142.697 125.104 142.819 124.316 143.125 123.6C143.432 122.884 143.912 122.265 144.518 121.806C145.101 121.389 145.769 121.124 146.469 121.034C147.168 120.944 147.878 121.032 148.538 121.289C148.624 121.32 148.703 121.368 148.77 121.432C148.837 121.496 148.891 121.573 148.929 121.659C148.967 121.745 148.988 121.839 148.991 121.934C148.993 122.029 148.978 122.123 148.945 122.212C148.912 122.3 148.862 122.381 148.798 122.448C148.735 122.516 148.659 122.57 148.575 122.606C148.492 122.642 148.402 122.66 148.312 122.658C148.221 122.657 148.132 122.637 148.049 122.598C147.597 122.428 147.113 122.371 146.636 122.432C146.159 122.493 145.702 122.67 145.302 122.95C144.888 123.264 144.559 123.687 144.35 124.177C144.14 124.667 144.057 125.207 144.11 125.741C144.119 125.833 144.11 125.926 144.085 126.014C144.059 126.103 144.018 126.185 143.962 126.257C143.906 126.328 143.838 126.388 143.76 126.432C143.683 126.475 143.598 126.503 143.51 126.512L143.443 126.519Z" fill="black"/>
<path d="M75.9741 185.439L103.581 202.536L86.4362 239.787C86.4362 239.787 78.6943 255.223 64.1855 247.987C61.2565 246.501 58.645 244.406 56.5088 241.829C54.3725 239.252 52.756 236.246 51.757 232.994L36.8361 185.439C36.8361 185.439 14.9204 177.622 11.6742 157.504C11.5486 156.867 11.5384 156.21 11.6441 155.569C11.8079 154.61 12.222 153.718 12.84 152.992C12.6174 152.461 12.4381 151.912 12.304 151.349C12.0025 150.075 11.7144 148.825 12.7027 147.769C13.1122 147.304 13.6767 147.023 14.2788 146.983C14.8808 146.944 15.4742 147.15 15.9354 147.558C15.7076 146.249 16.0527 145.095 16.8165 144.588C17.1326 144.394 17.4967 144.305 17.8617 144.331C19.5936 144.44 20.8532 146.935 21.2117 147.632C22.6823 150.448 25.7811 155.213 30.3672 161.886C30.3672 161.886 23.7644 152.479 27.2785 149.888C28.3271 149.117 29.58 150.201 30.2734 150.965C31.5498 152.373 32.0389 154.323 32.9869 155.938C34.2387 157.967 35.9092 159.674 37.8746 160.932C40.9733 163.002 44.4037 164.1 47.2345 166.623C48.5207 167.761 49.6684 169.062 50.6515 170.495C51.7972 172.191 52.2059 174.19 53.1975 175.904L68.5405 202.283L75.9741 185.439Z" fill="white"/>
<path d="M71.676 250.616C68.9738 250.573 66.3154 249.892 63.8973 248.624C60.8895 247.092 58.2073 244.936 56.0118 242.288C53.8162 239.64 52.1525 236.553 51.1204 233.212L36.29 185.988C32.3008 184.374 28.5283 182.222 25.0675 179.586C17.2218 173.631 12.3576 166.032 10.9975 157.621C10.8387 156.796 10.851 155.945 11.0337 155.125C11.2164 154.306 11.5651 153.538 12.0561 152.873C11.8926 152.431 11.755 151.98 11.644 151.521C11.3392 150.226 10.974 148.621 12.2135 147.277C12.591 146.861 13.0667 146.557 13.5922 146.397C14.1177 146.237 14.6742 146.226 15.2051 146.365C15.2237 145.895 15.3463 145.435 15.5632 145.023C15.7801 144.61 16.0853 144.257 16.4546 143.99C16.8868 143.717 17.3895 143.594 17.8918 143.638C19.9587 143.768 21.3222 146.393 21.7711 147.256L21.7945 147.301C22.5885 148.825 23.8615 150.934 25.7509 153.827C25.5736 153.068 25.5327 152.281 25.6303 151.507C25.6843 151.071 25.8242 150.651 26.041 150.275C26.2579 149.899 26.547 149.574 26.8899 149.322C27.5197 148.857 28.8597 148.392 30.7524 150.487C31.6268 151.458 32.1527 152.626 32.6586 153.753C32.9222 154.378 33.2209 154.987 33.553 155.576C34.746 157.518 36.3441 159.15 38.2263 160.348C39.4326 161.119 40.676 161.824 41.9515 162.46C43.8878 163.466 45.8911 164.512 47.6465 166.092C48.9764 167.271 50.1624 168.619 51.1774 170.104C51.7941 171.082 52.3032 172.131 52.6949 173.23C52.9904 174.032 53.3432 174.809 53.7502 175.556L68.4399 200.812L75.6491 184.443L104.426 202.265L87.0056 240.096C86.9654 240.241 81.6222 250.616 71.676 250.616ZM14.4848 147.671C13.9944 147.681 13.5275 147.893 13.185 148.262C12.4882 149.005 12.6457 149.857 12.9606 151.18C13.0824 151.703 13.2483 152.215 13.4564 152.707L13.6306 153.123L13.3458 153.475C12.8064 154.101 12.4454 154.874 12.304 155.706C12.2107 156.259 12.2198 156.825 12.3308 157.374C15.4798 176.879 36.836 184.71 37.0538 184.788L37.3687 184.9L52.3934 232.786C53.3685 235.946 54.9411 238.867 57.0169 241.372C59.0928 243.878 61.629 245.917 64.4735 247.368C70.2456 250.247 75.5888 249.807 80.3492 246.051C82.5747 244.26 84.4417 242.025 85.8432 239.473L102.707 202.828L76.2722 186.456L68.6309 203.779L52.6313 176.274C52.1875 175.467 51.8044 174.624 51.4856 173.754C51.1302 172.753 50.6695 171.797 50.1121 170.903C49.1606 169.522 48.05 168.27 46.8056 167.176C45.1608 165.705 43.3216 164.748 41.3719 163.73C40.0526 163.075 38.7677 162.345 37.5228 161.545C35.4686 160.233 33.7251 158.449 32.4241 156.325C32.0676 155.692 31.7455 155.037 31.4593 154.365C30.9769 153.288 30.5213 152.274 29.7843 151.468C29.3689 151.007 28.3304 149.99 27.6604 150.483C27.4656 150.63 27.3021 150.818 27.1804 151.035C27.0586 151.252 26.9814 151.493 26.9535 151.743C26.5482 154.358 29.3253 159.134 30.6821 161.165L30.9065 161.492L29.8245 162.323L29.6737 162.101C24.8028 155.006 22.0089 150.648 20.6287 147.988L20.6053 147.942C19.6371 146.08 18.7025 145.109 17.8214 145.052C17.5941 145.031 17.366 145.084 17.1682 145.204C16.6489 145.556 16.4178 146.443 16.5953 147.449L16.9504 149.494L15.4865 148.086C15.2146 147.82 14.8567 147.671 14.4848 147.671Z" fill="black"/>
<path d="M112.04 123.503C112.79 123.503 113.397 122.864 113.397 122.077C113.397 121.29 112.79 120.652 112.04 120.652C111.291 120.652 110.683 121.29 110.683 122.077C110.683 122.864 111.291 123.503 112.04 123.503Z" fill="black"/>
<path d="M126.593 123.27C127.342 123.27 127.949 122.632 127.949 121.845C127.949 121.058 127.342 120.419 126.593 120.419C125.843 120.419 125.236 121.058 125.236 121.845C125.236 122.632 125.843 123.27 126.593 123.27Z" fill="black"/>
<path d="M117.407 128.381C117.33 128.38 117.254 128.366 117.182 128.338C116.177 127.986 115.172 127.465 115.172 126.543C115.184 126.371 115.228 126.203 115.301 126.048C115.375 125.893 115.477 125.756 115.601 125.642C115.688 125.55 115.77 125.452 115.846 125.35C116.186 124.888 116.389 124.331 116.432 123.749L116.995 117.572C117.012 117.386 117.099 117.214 117.236 117.094C117.374 116.975 117.551 116.917 117.729 116.935C117.906 116.953 118.07 117.044 118.184 117.189C118.297 117.333 118.352 117.519 118.335 117.706L117.765 123.886C117.698 124.731 117.4 125.538 116.908 126.209C116.804 126.35 116.713 126.455 116.636 126.543C116.953 126.74 117.29 126.897 117.641 127.011C117.791 127.066 117.918 127.175 117.999 127.318C118.08 127.461 118.109 127.63 118.083 127.794C118.056 127.959 117.975 128.108 117.854 128.215C117.733 128.322 117.579 128.381 117.42 128.381H117.407Z" fill="black"/>
<path d="M119.43 134.533C118.404 134.503 117.403 134.188 116.529 133.621C116.452 133.573 116.384 133.508 116.331 133.432C116.278 133.355 116.24 133.268 116.22 133.176C116.199 133.083 116.197 132.988 116.212 132.894C116.228 132.801 116.261 132.712 116.311 132.632C116.36 132.553 116.424 132.485 116.499 132.432C116.574 132.379 116.658 132.343 116.746 132.325C116.835 132.307 116.926 132.308 117.014 132.329C117.103 132.349 117.186 132.387 117.26 132.442C117.283 132.46 118.663 133.371 120.02 133.058C120.391 132.959 120.739 132.782 121.043 132.537C121.346 132.292 121.599 131.984 121.785 131.633C121.88 131.475 122.031 131.363 122.205 131.322C122.378 131.281 122.56 131.314 122.71 131.414C122.86 131.514 122.966 131.673 123.005 131.855C123.044 132.037 123.013 132.228 122.918 132.386C122.574 133.04 122.069 133.585 121.455 133.963C120.841 134.341 120.142 134.538 119.43 134.533Z" fill="black"/>
<path d="M97.0958 243.081L91.2333 213.165C90.2356 208.078 90.4893 202.807 91.9703 197.852L105.069 154.031H116.75L119.43 160.281C125.182 173.701 143.413 173.412 148.78 159.82L151.064 154.031H161.369L174.277 198.584C175.942 204.327 176.025 210.448 174.514 216.238L167.52 243.081H97.0958Z" fill="#F76C6C"/>
<path d="M134.612 110.421H128.14C126.139 110.421 124.221 109.586 122.806 108.099C121.391 106.613 120.596 104.597 120.596 102.495V97.3985H134.612V110.421Z" fill="black"/>
<path d="M161.369 154.034L175.127 202.311L201.003 186.273C198.144 180.765 194.967 175.445 191.492 170.343C185.358 161.348 182.179 156.804 176.792 154.506C171.067 152.042 165.315 152.897 161.369 154.034Z" fill="black"/>
<path d="M152.592 118.1H140.967C139.847 118.1 138.737 117.867 137.701 117.416C136.666 116.965 135.725 116.304 134.933 115.471C134.14 114.638 133.512 113.649 133.083 112.561C132.655 111.473 132.435 110.307 132.435 109.129V105.074H152.595L152.592 118.1Z" fill="black"/>
<path d="M148.485 97.3985H128.452V110.424H148.485V97.3985Z" fill="black"/>
<path d="M158.099 167.158C166.902 167.158 174.039 159.661 174.039 150.413C174.039 141.164 166.902 133.667 158.099 133.667C149.296 133.667 142.16 141.164 142.16 150.413C142.16 159.661 149.296 167.158 158.099 167.158Z" fill="black"/>
<path d="M146.448 178.833C152.966 178.833 158.25 173.281 158.25 166.433C158.25 159.585 152.966 154.034 146.448 154.034C139.93 154.034 134.646 159.585 134.646 166.433C134.646 173.281 139.93 178.833 146.448 178.833Z" fill="black"/>
<path d="M167.637 179.536C174.155 179.536 179.439 173.985 179.439 167.137C179.439 160.289 174.155 154.738 167.637 154.738C161.119 154.738 155.835 160.289 155.835 167.137C155.835 173.985 161.119 179.536 167.637 179.536Z" fill="black"/>
<path d="M143.584 221.587H122.851C119.758 221.584 116.794 220.291 114.608 217.994C112.421 215.696 111.192 212.581 111.189 209.332V194.6C111.189 193.022 111.785 191.509 112.846 190.393C113.907 189.276 115.346 188.648 116.847 188.645H149.587C151.088 188.647 152.527 189.274 153.588 190.389C154.65 191.504 155.247 193.016 155.248 194.593V209.325C155.247 212.576 154.017 215.692 151.83 217.991C149.643 220.29 146.678 221.584 143.584 221.587ZM116.847 190.053C115.702 190.055 114.604 190.534 113.795 191.385C112.985 192.236 112.53 193.39 112.529 194.593V209.325C112.532 212.201 113.62 214.958 115.555 216.991C117.49 219.025 120.114 220.169 122.851 220.173H143.584C146.321 220.17 148.946 219.026 150.882 216.992C152.817 214.959 153.906 212.201 153.908 209.325V194.6C153.908 193.395 153.453 192.24 152.643 191.387C151.833 190.534 150.734 190.055 149.587 190.053H116.847Z" fill="white"/>
<path d="M155.835 195.709C162.353 195.709 167.637 190.157 167.637 183.309C167.637 176.461 162.353 170.91 155.835 170.91C149.317 170.91 144.033 176.461 144.033 183.309C144.033 190.157 149.317 195.709 155.835 195.709Z" fill="black"/>
<path d="M197.241 216.734C197.119 216.734 197 216.698 196.896 216.632C196.792 216.566 196.708 216.472 196.651 216.359C196.594 216.246 196.568 216.12 196.574 215.992C196.581 215.865 196.62 215.742 196.688 215.636L204.209 203.962C204.258 203.885 204.321 203.819 204.395 203.768C204.468 203.717 204.55 203.682 204.637 203.664C204.723 203.646 204.812 203.647 204.899 203.665C204.985 203.684 205.067 203.72 205.14 203.772C205.213 203.823 205.276 203.89 205.324 203.967C205.373 204.044 205.407 204.131 205.423 204.222C205.44 204.312 205.44 204.406 205.422 204.497C205.405 204.587 205.37 204.673 205.321 204.75L197.797 216.424C197.735 216.52 197.653 216.598 197.556 216.652C197.459 216.706 197.351 216.734 197.241 216.734Z" fill="black"/>
<path d="M253.179 169.992C253.044 169.992 252.911 169.949 252.8 169.869C252.688 169.789 252.602 169.675 252.553 169.542C252.504 169.41 252.494 169.265 252.525 169.126C252.556 168.988 252.627 168.862 252.727 168.767C256.851 164.818 259.688 155.21 259.715 155.115C259.741 155.026 259.783 154.944 259.839 154.872C259.895 154.801 259.964 154.742 260.041 154.698C260.119 154.655 260.204 154.628 260.292 154.619C260.38 154.61 260.468 154.62 260.552 154.647C260.637 154.674 260.715 154.718 260.783 154.777C260.851 154.836 260.907 154.908 260.949 154.99C260.99 155.071 261.016 155.161 261.024 155.253C261.033 155.345 261.024 155.438 260.998 155.526C260.877 155.935 258.027 165.596 253.628 169.809C253.505 169.926 253.345 169.991 253.179 169.992Z" fill="black"/>
<path d="M249.015 166.183C248.876 166.184 248.74 166.139 248.627 166.055C248.513 165.971 248.427 165.852 248.381 165.714C248.334 165.577 248.33 165.427 248.368 165.287C248.406 165.146 248.484 165.022 248.593 164.931C252.409 161.679 256.697 149.494 256.74 149.374C256.808 149.21 256.934 149.08 257.09 149.009C257.247 148.939 257.424 148.934 257.584 148.995C257.744 149.056 257.876 149.18 257.953 149.34C258.029 149.5 258.045 149.685 257.996 149.857C257.815 150.374 253.537 162.527 249.437 166.025C249.318 166.127 249.169 166.183 249.015 166.183Z" fill="black"/>
<path d="M76.0712 214.689C75.9624 214.689 75.8551 214.661 75.7588 214.608C75.6625 214.554 75.58 214.477 75.5185 214.383L67.9944 202.705C67.9408 202.629 67.9025 202.542 67.8816 202.45C67.8608 202.357 67.858 202.262 67.8733 202.168C67.8886 202.075 67.9217 201.985 67.9706 201.906C68.0196 201.826 68.0833 201.758 68.1581 201.704C68.2328 201.651 68.3171 201.615 68.4057 201.596C68.4943 201.578 68.5855 201.579 68.6737 201.599C68.762 201.619 68.8456 201.657 68.9194 201.712C68.9932 201.766 69.0557 201.836 69.1032 201.917L76.6273 213.591C76.6955 213.697 76.7349 213.82 76.7413 213.948C76.7477 214.076 76.7209 214.203 76.6637 214.316C76.6066 214.429 76.5212 214.523 76.4168 214.589C76.3124 214.655 76.193 214.689 76.0712 214.689Z" fill="black"/>
<path d="M20.1329 167.936C19.9669 167.936 19.8069 167.871 19.684 167.753C15.2888 163.53 12.4346 153.879 12.314 153.471C12.2832 153.381 12.2701 153.286 12.2754 153.191C12.2807 153.096 12.3044 153.003 12.3449 152.917C12.3855 152.832 12.4422 152.756 12.5115 152.695C12.5808 152.633 12.6612 152.587 12.748 152.559C12.8348 152.531 12.9261 152.522 13.0163 152.532C13.1065 152.543 13.1939 152.572 13.2729 152.619C13.352 152.666 13.4212 152.729 13.4764 152.804C13.5315 152.88 13.5715 152.967 13.5937 153.059C13.6239 153.154 16.4613 162.763 20.5818 166.715C20.6808 166.811 20.7499 166.936 20.7803 167.074C20.8106 167.211 20.8008 167.356 20.7519 167.488C20.7031 167.619 20.6176 167.733 20.5066 167.813C20.3956 167.893 20.2642 167.936 20.1296 167.936H20.1329Z" fill="black"/>
<path d="M24.2937 164.125C24.1398 164.124 23.9908 164.068 23.8716 163.966C19.7678 160.471 15.4966 148.315 15.309 147.801C15.2786 147.714 15.2648 147.622 15.2684 147.529C15.2721 147.437 15.293 147.346 15.33 147.262C15.367 147.178 15.4194 147.103 15.4842 147.04C15.549 146.977 15.6249 146.929 15.7076 146.897C15.7903 146.865 15.8782 146.85 15.9662 146.854C16.0542 146.858 16.1407 146.88 16.2206 146.919C16.3006 146.958 16.3725 147.013 16.4322 147.081C16.4919 147.149 16.5382 147.229 16.5686 147.315C16.6121 147.439 20.8968 159.634 24.7158 162.875C24.8229 162.967 24.9003 163.091 24.9376 163.231C24.9748 163.371 24.97 163.519 24.9238 163.656C24.8775 163.793 24.7922 163.911 24.6794 163.995C24.5666 164.079 24.4319 164.124 24.2937 164.125Z" fill="black"/>
<path d="M131.514 315.452C131.336 315.452 131.166 315.378 131.04 315.246C130.914 315.114 130.844 314.935 130.844 314.748V280.683C130.844 280.496 130.914 280.317 131.04 280.185C131.166 280.053 131.336 279.979 131.514 279.979C131.691 279.979 131.862 280.053 131.988 280.185C132.113 280.317 132.184 280.496 132.184 280.683V314.748C132.184 314.935 132.113 315.114 131.988 315.246C131.862 315.378 131.691 315.452 131.514 315.452Z" fill="white"/>
<path d="M131.514 260.091C131.336 260.091 131.166 260.016 131.04 259.884C130.914 259.752 130.844 259.573 130.844 259.387V243.081C130.844 242.894 130.914 242.715 131.04 242.583C131.166 242.451 131.336 242.377 131.514 242.377C131.691 242.377 131.862 242.451 131.988 242.583C132.113 242.715 132.184 242.894 132.184 243.081V259.387C132.184 259.573 132.113 259.752 131.988 259.884C131.862 260.016 131.691 260.091 131.514 260.091Z" fill="white"/>
<path d="M173.238 261.227C173.199 261.231 173.16 261.231 173.121 261.227C164.843 259.7 160.525 254.892 158.364 251.102C156.947 248.679 156.017 245.977 155.63 243.162C155.622 243.069 155.63 242.976 155.656 242.887C155.681 242.798 155.723 242.715 155.779 242.643C155.835 242.572 155.904 242.512 155.982 242.468C156.06 242.424 156.145 242.397 156.233 242.388C156.321 242.378 156.41 242.387 156.495 242.414C156.58 242.441 156.658 242.485 156.727 242.544C156.795 242.603 156.852 242.675 156.894 242.757C156.936 242.839 156.962 242.929 156.97 243.021C157.357 245.639 158.234 248.151 159.55 250.412C162.491 255.508 167.138 258.676 173.362 259.827C173.54 259.843 173.704 259.932 173.819 260.075C173.934 260.218 173.99 260.404 173.975 260.59C173.96 260.777 173.875 260.95 173.739 261.071C173.602 261.191 173.426 261.25 173.248 261.234L173.238 261.227Z" fill="white"/>
<path d="M92.6169 262.164C91.6166 262.16 90.6174 262.091 89.6253 261.956C89.4476 261.932 89.2862 261.835 89.1766 261.686C89.067 261.537 89.0181 261.349 89.0408 261.162C89.0634 260.976 89.1557 260.806 89.2974 260.691C89.4391 260.576 89.6185 260.524 89.7962 260.548C94.781 261.22 98.7943 260.172 101.726 257.44C107.142 252.39 107.139 243.169 107.139 243.077C107.139 242.891 107.21 242.712 107.335 242.58C107.461 242.448 107.631 242.373 107.809 242.373C107.987 242.373 108.157 242.448 108.283 242.58C108.409 242.712 108.479 242.891 108.479 243.077C108.479 243.479 108.479 253.016 102.62 258.496C100.007 260.935 96.6503 262.164 92.6169 262.164Z" fill="white"/>
<path d="M71.9742 184.89L92.1881 197.123L105.069 154.034C105.069 154.034 87.21 148.804 71.9742 184.89Z" fill="black"/>
<path d="M80.3056 141.712H28.3806C25.7791 141.71 23.2849 140.623 21.4453 138.69C19.6058 136.757 18.5712 134.137 18.5685 131.404V87.7621C18.5667 86.4061 18.8194 85.063 19.312 83.8096C19.8046 82.5563 20.5275 81.4172 21.4394 80.4575C22.3513 79.4979 23.4343 78.7364 24.6265 78.2167C25.8187 77.6971 27.0966 77.4294 28.3873 77.4289H80.3123C82.9139 77.4317 85.4081 78.5187 87.2476 80.4513C89.0872 82.3839 90.1218 85.0043 90.1245 87.7375V131.379C90.1263 132.735 89.8736 134.078 89.381 135.332C88.8884 136.585 88.1655 137.724 87.2536 138.684C86.3417 139.643 85.2587 140.405 84.0665 140.925C82.8743 141.444 81.5964 141.712 80.3056 141.712ZM28.3873 78.8367C26.1412 78.8395 23.9878 79.7781 22.3996 81.4468C20.8113 83.1154 19.9179 85.3777 19.9152 87.7375V131.379C19.9179 133.739 20.8113 136.001 22.3996 137.67C23.9878 139.339 26.1412 140.277 28.3873 140.28H80.3123C82.5588 140.278 84.7126 139.34 86.3011 137.671C87.8896 136.002 88.7827 133.739 88.7845 131.379V87.7375C88.7827 85.3762 87.8886 83.1123 86.2987 81.4432C84.7088 79.7742 82.5532 78.8367 80.3056 78.8367H28.3873Z" fill="black"/>
<path d="M84.195 102.35H66.6142C66.4365 102.35 66.2661 102.276 66.1405 102.144C66.0148 102.012 65.9442 101.833 65.9442 101.647C65.9442 101.46 66.0148 101.281 66.1405 101.149C66.2661 101.017 66.4365 100.943 66.6142 100.943H84.195C84.3727 100.943 84.5431 101.017 84.6688 101.149C84.7944 101.281 84.865 101.46 84.865 101.647C84.865 101.833 84.7944 102.012 84.6688 102.144C84.5431 102.276 84.3727 102.35 84.195 102.35Z" fill="black"/>
<path d="M84.195 109.622H66.6142C66.4365 109.622 66.2661 109.548 66.1405 109.415C66.0148 109.283 65.9442 109.104 65.9442 108.918C65.9442 108.731 66.0148 108.552 66.1405 108.42C66.2661 108.288 66.4365 108.214 66.6142 108.214H84.195C84.3727 108.214 84.5431 108.288 84.6688 108.42C84.7944 108.552 84.865 108.731 84.865 108.918C84.865 109.104 84.7944 109.283 84.6688 109.415C84.5431 109.548 84.3727 109.622 84.195 109.622Z" fill="black"/>
<path d="M79.6089 116.889H66.6142C66.4365 116.889 66.2661 116.815 66.1405 116.683C66.0148 116.551 65.9442 116.372 65.9442 116.186C65.9442 115.999 66.0148 115.82 66.1405 115.688C66.2661 115.556 66.4365 115.482 66.6142 115.482H79.6089C79.7866 115.482 79.957 115.556 80.0826 115.688C80.2083 115.82 80.2789 115.999 80.2789 116.186C80.2789 116.372 80.2083 116.551 80.0826 116.683C79.957 116.815 79.7866 116.889 79.6089 116.889Z" fill="black"/>
<path d="M56.5608 123.805H33.61L31.5162 116.062H57.9812L56.5608 123.805ZM34.6083 122.397H55.4553L56.3498 117.47H33.275L34.6083 122.397Z" fill="black"/>
<path d="M45.3149 123.805C45.1372 123.805 44.9668 123.731 44.8411 123.599C44.7155 123.467 44.6449 123.288 44.6449 123.101V116.766C44.6449 116.58 44.7155 116.401 44.8411 116.269C44.9668 116.137 45.1372 116.062 45.3149 116.062C45.4926 116.062 45.663 116.137 45.7887 116.269C45.9143 116.401 45.9849 116.58 45.9849 116.766V123.101C45.9849 123.288 45.9143 123.467 45.7887 123.599C45.663 123.731 45.4926 123.805 45.3149 123.805Z" fill="black"/>
<path d="M55.3414 125.034C56.3479 125.034 57.1638 124.168 57.1638 123.101C57.1638 122.034 56.3479 121.169 55.3414 121.169C54.335 121.169 53.519 122.034 53.519 123.101C53.519 124.168 54.335 125.034 55.3414 125.034Z" fill="black"/>
<path d="M45.3015 125.034C46.3172 125.034 47.1406 124.168 47.1406 123.101C47.1406 122.034 46.3172 121.169 45.3015 121.169C44.2858 121.169 43.4623 122.034 43.4623 123.101C43.4623 124.168 44.2858 125.034 45.3015 125.034Z" fill="black"/>
<path d="M34.7993 125.034C35.8039 125.034 36.6183 124.168 36.6183 123.101C36.6183 122.034 35.8039 121.169 34.7993 121.169C33.7946 121.169 32.9802 122.034 32.9802 123.101C32.9802 124.168 33.7946 125.034 34.7993 125.034Z" fill="black"/>
<path d="M28.853 103.494C28.7492 103.495 28.6468 103.47 28.5538 103.421C28.4608 103.373 28.3797 103.303 28.317 103.216L24.565 98.0038C24.3916 97.7609 24.2859 97.4721 24.2598 97.1697C24.2337 96.8673 24.2882 96.5633 24.4171 96.2916C24.5461 96.0198 24.7445 95.7912 24.9901 95.6311C25.2357 95.4711 25.5188 95.386 25.8078 95.3853H37.2682C37.7104 95.3855 38.1464 95.496 38.5401 95.7077C38.9338 95.9194 39.274 96.2263 39.5328 96.6031L44.7119 102.287C44.8195 102.424 44.8738 102.599 44.864 102.776C44.8541 102.953 44.7808 103.12 44.6587 103.243C44.5366 103.366 44.3748 103.436 44.2057 103.439C44.0366 103.442 43.8728 103.377 43.7471 103.258L38.4507 97.4548C38.3175 97.2508 38.139 97.0839 37.9306 96.9687C37.7222 96.8534 37.4903 96.7931 37.2548 96.7931H25.7944C25.7539 96.7924 25.714 96.8039 25.6795 96.8264C25.6451 96.8489 25.6175 96.8813 25.6001 96.9198C25.5823 96.9572 25.5748 96.9991 25.5783 97.0407C25.5819 97.0824 25.5964 97.1221 25.6202 97.1556L29.3856 102.364C29.4393 102.438 29.4786 102.522 29.5012 102.612C29.5239 102.701 29.5295 102.795 29.5176 102.887C29.5058 102.979 29.4768 103.067 29.4323 103.147C29.3878 103.227 29.3287 103.297 29.2583 103.353C29.1414 103.446 28.9991 103.495 28.853 103.494Z" fill="black"/>
<path d="M45.3149 117.625H57.8238L60.946 102.906C60.9943 102.673 60.9919 102.431 60.9391 102.199C60.8862 101.966 60.7843 101.75 60.6407 101.564C60.4972 101.379 60.3158 101.23 60.11 101.129C59.9042 101.027 59.6792 100.976 59.4519 100.978H45.3149V117.625Z" fill="#C7B8F8"/>
<path d="M31.7675 117.625H45.3149V100.978H28.585C28.3363 100.977 28.091 101.039 27.8695 101.157C27.6479 101.276 27.4565 101.448 27.3111 101.66C27.1657 101.872 27.0705 102.118 27.0334 102.376C26.9962 102.634 27.0182 102.898 27.0976 103.146L31.7675 117.625Z" fill="#C7B8F8"/>
<path d="M45.3149 115.665C45.1372 115.665 44.9668 115.59 44.8411 115.458C44.7155 115.326 44.6449 115.147 44.6449 114.961V102.769C44.6449 102.583 44.7155 102.403 44.8411 102.271C44.9668 102.139 45.1372 102.065 45.3149 102.065C45.4926 102.065 45.663 102.139 45.7887 102.271C45.9143 102.403 45.9849 102.583 45.9849 102.769V114.947C45.9867 115.04 45.9707 115.133 45.9378 115.22C45.9049 115.307 45.8559 115.387 45.7935 115.454C45.7311 115.52 45.6566 115.573 45.5744 115.61C45.4923 115.646 45.404 115.665 45.3149 115.665Z" fill="black"/>
<path d="M278.803 265.303H249.658C247.675 265.301 245.773 264.473 244.371 262.999C242.968 261.526 242.179 259.528 242.178 257.444V196.849C242.181 194.769 242.969 192.775 244.368 191.303C245.768 189.832 247.665 189.002 249.645 188.997H278.79C280.773 188.999 282.675 189.827 284.077 191.301C285.48 192.774 286.269 194.772 286.27 196.856V257.444C286.268 259.525 285.481 261.52 284.081 262.993C282.682 264.466 280.784 265.296 278.803 265.303ZM249.645 190.405C248.017 190.406 246.456 191.087 245.305 192.296C244.153 193.506 243.506 195.145 243.504 196.856V257.444C243.506 259.154 244.153 260.794 245.305 262.004C246.456 263.213 248.017 263.893 249.645 263.895H278.79C280.418 263.893 281.979 263.213 283.13 262.004C284.281 260.794 284.929 259.154 284.93 257.444V196.849C284.927 195.142 284.28 193.506 283.132 192.299C281.984 191.091 280.428 190.41 278.803 190.405H249.645Z" fill="black"/>
<path d="M273.125 234.177H255.323C253.61 234.177 252.221 235.636 252.221 237.436V248.73C252.221 250.53 253.61 251.989 255.323 251.989H273.125C274.838 251.989 276.227 250.53 276.227 248.73V237.436C276.227 235.636 274.838 234.177 273.125 234.177Z" fill="#C7B8F8"/>
<path d="M275.601 241.268H252.898C252.72 241.268 252.55 241.194 252.424 241.062C252.298 240.93 252.228 240.751 252.228 240.564C252.228 240.378 252.298 240.199 252.424 240.067C252.55 239.935 252.72 239.861 252.898 239.861H275.601C275.778 239.861 275.949 239.935 276.074 240.067C276.2 240.199 276.271 240.378 276.271 240.564C276.271 240.751 276.2 240.93 276.074 241.062C275.949 241.194 275.778 241.268 275.601 241.268Z" fill="black"/>
<path d="M259.896 249.793H256.985C256.367 249.768 255.783 249.493 255.354 249.026C254.925 248.558 254.686 247.934 254.686 247.285C254.686 246.636 254.925 246.012 255.354 245.544C255.783 245.076 256.367 244.802 256.985 244.777H259.896C260.513 244.802 261.098 245.076 261.527 245.544C261.955 246.012 262.195 246.636 262.195 247.285C262.195 247.934 261.955 248.558 261.527 249.026C261.098 249.493 260.513 249.768 259.896 249.793ZM256.985 246.185C256.717 246.201 256.466 246.324 256.282 246.528C256.098 246.733 255.995 247.004 255.995 247.285C255.995 247.566 256.098 247.837 256.282 248.042C256.466 248.246 256.717 248.369 256.985 248.385H259.896C260.163 248.369 260.415 248.246 260.599 248.042C260.783 247.837 260.885 247.566 260.885 247.285C260.885 247.004 260.783 246.733 260.599 246.528C260.415 246.324 260.163 246.201 259.896 246.185H256.985Z" fill="black"/>
<path d="M274.133 202.586H254.274C252.561 202.586 251.172 204.045 251.172 205.845V217.139C251.172 218.939 252.561 220.398 254.274 220.398H274.133C275.846 220.398 277.235 218.939 277.235 217.139V205.845C277.235 204.045 275.846 202.586 274.133 202.586Z" fill="#6DC8C2"/>
<path d="M264.204 215.991C263.354 215.991 262.524 215.727 261.818 215.231C261.112 214.735 260.561 214.03 260.236 213.206C259.911 212.382 259.826 211.474 259.992 210.599C260.157 209.724 260.566 208.92 261.167 208.289C261.768 207.658 262.533 207.228 263.366 207.054C264.199 206.88 265.063 206.969 265.847 207.311C266.632 207.652 267.303 208.231 267.775 208.973C268.247 209.715 268.499 210.587 268.499 211.479C268.498 212.676 268.045 213.823 267.24 214.669C266.434 215.515 265.343 215.99 264.204 215.991ZM264.204 208.375C263.62 208.375 263.048 208.557 262.562 208.898C262.076 209.239 261.698 209.724 261.474 210.291C261.25 210.859 261.192 211.483 261.306 212.085C261.42 212.687 261.701 213.24 262.115 213.674C262.528 214.108 263.054 214.404 263.627 214.524C264.201 214.644 264.795 214.582 265.335 214.347C265.874 214.112 266.336 213.714 266.661 213.204C266.985 212.693 267.159 212.093 267.159 211.479C267.158 210.656 266.846 209.867 266.292 209.285C265.738 208.703 264.987 208.376 264.204 208.375Z" fill="black"/>
<path d="M253.628 215.991H251.172V214.584H253.628C254.283 214.506 254.888 214.178 255.327 213.662C255.766 213.146 256.009 212.478 256.009 211.786C256.009 211.093 255.766 210.425 255.327 209.909C254.888 209.393 254.283 209.065 253.628 208.988H251.172V207.58H253.628C254.626 207.676 255.555 208.16 256.231 208.939C256.907 209.717 257.281 210.732 257.281 211.786C257.281 212.839 256.907 213.854 256.231 214.633C255.555 215.411 254.626 215.895 253.628 215.991Z" fill="black"/>
<path d="M277.276 216.012H274.81C273.808 215.921 272.875 215.438 272.195 214.659C271.515 213.88 271.138 212.862 271.138 211.805C271.138 210.748 271.515 209.73 272.195 208.951C272.875 208.172 273.808 207.689 274.81 207.597H277.266V209.005H274.81C274.152 209.079 273.543 209.405 273.101 209.922C272.659 210.439 272.414 211.11 272.414 211.805C272.414 212.5 272.659 213.171 273.101 213.687C273.543 214.204 274.152 214.531 274.81 214.605H277.266L277.276 216.012Z" fill="black"/>
<path d="M281.765 144.232H199.659C197.093 144.225 194.633 143.151 192.818 141.244C191.003 139.338 189.979 136.754 189.971 134.058V81.2018C189.978 78.5046 191.001 75.92 192.817 74.0128C194.632 72.1056 197.092 71.0308 199.659 71.0234H281.765C284.332 71.0308 286.792 72.1056 288.607 74.0128C290.423 75.92 291.446 78.5046 291.453 81.2018V134.058C291.445 136.754 290.421 139.338 288.606 141.244C286.791 143.151 284.331 144.225 281.765 144.232ZM199.659 72.4347C197.447 72.4421 195.328 73.3685 193.764 75.0117C192.2 76.6549 191.318 78.8815 191.311 81.2053V134.058C191.314 136.382 192.194 138.611 193.759 140.255C195.325 141.899 197.446 142.823 199.659 142.825H281.765C283.977 142.823 286.099 141.899 287.664 140.255C289.23 138.611 290.11 136.382 290.113 134.058V81.2018C290.106 78.8779 289.224 76.6514 287.66 75.0082C286.096 73.365 283.976 72.4386 281.765 72.4312L199.659 72.4347Z" fill="black"/>
<path d="M232.701 85.1859H206.926C204.271 85.1859 202.118 87.447 202.118 90.2363V122.031C202.118 124.821 204.271 127.082 206.926 127.082H232.701C235.356 127.082 237.508 124.821 237.508 122.031V90.2363C237.508 87.447 235.356 85.1859 232.701 85.1859Z" fill="#C7B8F8"/>
<path d="M220.483 107.63H219.143V127.085H220.483V107.63Z" fill="black"/>
<path d="M253.042 86.0657H246.804C245.87 86.0657 245.112 86.8614 245.112 87.843V94.3963C245.112 95.3779 245.87 96.1737 246.804 96.1737H253.042C253.976 96.1737 254.733 95.3779 254.733 94.3963V87.843C254.733 86.8614 253.976 86.0657 253.042 86.0657Z" fill="#6DC8C2"/>
<path d="M266.536 86.0657H260.298C259.363 86.0657 258.606 86.8614 258.606 87.843V94.3963C258.606 95.3779 259.363 96.1737 260.298 96.1737H266.536C267.47 96.1737 268.227 95.3779 268.227 94.3963V87.843C268.227 86.8614 267.47 86.0657 266.536 86.0657Z" fill="#6DC8C2"/>
<path d="M280.033 86.0657H273.795C272.861 86.0657 272.103 86.8614 272.103 87.843V94.3963C272.103 95.3779 272.861 96.1737 273.795 96.1737H280.033C280.967 96.1737 281.724 95.3779 281.724 94.3963V87.843C281.724 86.8614 280.967 86.0657 280.033 86.0657Z" fill="#6DC8C2"/>
<path d="M281.728 106.085H245.779C245.601 106.085 245.431 106.01 245.305 105.878C245.179 105.746 245.109 105.567 245.109 105.381C245.109 105.194 245.179 105.015 245.305 104.883C245.431 104.751 245.601 104.677 245.779 104.677H281.728C281.905 104.677 282.076 104.751 282.201 104.883C282.327 105.015 282.398 105.194 282.398 105.381C282.398 105.567 282.327 105.746 282.201 105.878C282.076 106.01 281.905 106.085 281.728 106.085Z" fill="black"/>
<path d="M281.728 113.535H245.779C245.601 113.535 245.431 113.461 245.305 113.329C245.179 113.197 245.109 113.018 245.109 112.831C245.109 112.645 245.179 112.466 245.305 112.334C245.431 112.202 245.601 112.128 245.779 112.128H281.728C281.905 112.128 282.076 112.202 282.201 112.334C282.327 112.466 282.398 112.645 282.398 112.831C282.398 113.018 282.327 113.197 282.201 113.329C282.076 113.461 281.905 113.535 281.728 113.535Z" fill="black"/>
<path d="M269.215 120.986H245.765C245.588 120.986 245.417 120.912 245.292 120.78C245.166 120.648 245.095 120.469 245.095 120.282C245.095 120.096 245.166 119.916 245.292 119.784C245.417 119.652 245.588 119.578 245.765 119.578H269.215C269.393 119.578 269.564 119.652 269.689 119.784C269.815 119.916 269.885 120.096 269.885 120.282C269.885 120.469 269.815 120.648 269.689 120.78C269.564 120.912 269.393 120.986 269.215 120.986Z" fill="black"/>
<path d="M226.486 107.63H213.059C212.919 107.63 212.78 107.6 212.65 107.544C212.52 107.487 212.402 107.404 212.303 107.3C212.203 107.195 212.125 107.071 212.071 106.934C212.018 106.798 211.99 106.651 211.991 106.503V99.3694C211.991 99.2004 212.055 99.0384 212.168 98.919C212.282 98.7995 212.436 98.7324 212.597 98.7324H226.945C227.025 98.7319 227.104 98.748 227.178 98.7798C227.252 98.8117 227.319 98.8585 227.376 98.9177C227.433 98.9769 227.478 99.0473 227.508 99.1248C227.539 99.2023 227.555 99.2854 227.555 99.3694V106.503C227.555 106.651 227.528 106.798 227.474 106.934C227.421 107.071 227.342 107.195 227.243 107.3C227.144 107.404 227.026 107.487 226.896 107.544C226.766 107.6 226.627 107.63 226.486 107.63Z" fill="#FFBB45"/>
<path d="M219.773 101.287C224.071 101.287 227.555 100.144 227.555 98.7323C227.555 97.3212 224.071 96.1772 219.773 96.1772C215.475 96.1772 211.991 97.3212 211.991 98.7323C211.991 100.144 215.475 101.287 219.773 101.287Z" fill="black"/>
<path d="M166.468 243.785H98.1276C97.9499 243.785 97.7795 243.711 97.6539 243.579C97.5282 243.447 97.4576 243.268 97.4576 243.081C97.4576 242.894 97.5282 242.715 97.6539 242.583C97.7795 242.451 97.9499 242.377 98.1276 242.377H166.468C166.645 242.377 166.816 242.451 166.941 242.583C167.067 242.715 167.138 242.894 167.138 243.081C167.138 243.268 167.067 243.447 166.941 243.579C166.816 243.711 166.645 243.785 166.468 243.785Z" fill="white"/>
<path d="M164.111 28.6774V19.5527C164.111 8.86391 155.674 0 145.5 0C135.326 0 126.889 8.86391 126.889 19.5528V28.6775C122.67 28.6775 119.444 32.0666 119.444 36.4986V62.5688C119.444 67.0008 122.67 70.3899 126.889 70.3899H164.111C168.33 70.3899 171.556 67.0008 171.556 62.5688V36.4985C171.556 32.3272 168.33 28.6774 164.111 28.6774ZM129.37 19.5528C129.37 10.1675 136.567 2.60717 145.5 2.60717C154.433 2.60717 161.63 10.1675 161.63 19.5528V28.6775H159.148V19.5528C159.148 11.7317 152.944 5.21407 145.5 5.21407C138.055 5.21407 131.852 11.7316 131.852 19.5528V28.6775H129.37V19.5528ZM156.667 19.5528V28.6775H134.333V19.5528C134.333 13.0353 139.296 7.82123 145.5 7.82123C151.704 7.82123 156.667 13.0352 156.667 19.5528ZM169.074 62.5688C169.074 65.4365 166.841 67.7828 164.111 67.7828H126.889C124.159 67.7828 121.926 65.4365 121.926 62.5688V36.4985C121.926 33.6307 124.159 31.2844 126.889 31.2844H164.111C166.841 31.2844 169.074 33.6307 169.074 36.4985V62.5688Z" fill="black"/>
<path d="M169.074 62.5688C169.074 65.4365 166.841 67.7828 164.111 67.7828H126.889C124.159 67.7828 121.926 65.4365 121.926 62.5688V36.4985C121.926 33.6307 124.159 31.2844 126.889 31.2844H164.111C166.841 31.2844 169.074 33.6307 169.074 36.4985V62.5688Z" fill="#F76C6C"/>
<path d="M145.5 39.1055C142.026 39.1055 139.296 41.9731 139.296 45.623C139.296 47.7086 140.289 49.5336 141.778 50.837V56.0511C141.778 58.1367 143.515 59.9617 145.5 59.9617C147.485 59.9617 149.223 58.1367 149.223 56.0511V50.837C150.711 49.5336 151.704 47.7086 151.704 45.623C151.704 41.9731 148.974 39.1055 145.5 39.1055ZM146.741 49.273V56.0512C146.741 56.8333 146.244 57.3547 145.5 57.3547C144.756 57.3547 144.259 56.8333 144.259 56.0512V49.273C142.771 48.7516 141.778 47.1872 141.778 45.6231C141.778 43.5375 143.515 41.7125 145.5 41.7125C147.485 41.7125 149.223 43.5375 149.223 45.6231C149.222 47.448 148.23 48.7516 146.741 49.273Z" fill="black"/>
<path d="M146.741 49.273V56.0512C146.741 56.8333 146.244 57.3547 145.5 57.3547C144.756 57.3547 144.259 56.8333 144.259 56.0512V49.273C142.771 48.7516 141.778 47.1872 141.778 45.6231C141.778 43.5375 143.515 41.7125 145.5 41.7125C147.485 41.7125 149.223 43.5375 149.223 45.6231C149.222 47.448 148.23 48.7516 146.741 49.273Z" fill="white"/>
</svg>
