<svg width="32" height="32" viewBox="0 0 32 32" fill="none" xmlns="http://www.w3.org/2000/svg">
<path d="M16 29C13.9 29 6 17.941 6 13C6 10.3478 7.05357 7.8043 8.92893 5.92893C10.8043 4.05357 13.3478 3 16 3C18.6522 3 21.1957 4.05357 23.0711 5.92893C24.9464 7.8043 26 10.3478 26 13C26 17.941 18.1 29 16 29ZM16 5C13.879 5.00238 11.8456 5.846 10.3458 7.34578C8.846 8.84555 8.00238 10.879 8 13C8 17.043 14.228 25.246 16 26.831C17.772 25.246 24 17.043 24 13C23.9976 10.879 23.154 8.84555 21.6542 7.34578C20.1544 5.846 18.121 5.00238 16 5Z" fill="#F76C6C"/>
<path d="M16 5C13.879 5.00238 11.8456 5.846 10.3458 7.34578C8.846 8.84555 8.00238 10.879 8 13C8 17.043 14.228 25.246 16 26.831C17.772 25.246 24 17.043 24 13C23.9976 10.879 23.154 8.84555 21.6542 7.34578C20.1544 5.846 18.121 5.00238 16 5Z" fill="#F76C6C"/>
<path d="M16 18C15.0111 18 14.0444 17.7068 13.2222 17.1574C12.3999 16.6079 11.759 15.8271 11.3806 14.9134C11.0022 13.9998 10.9031 12.9945 11.0961 12.0246C11.289 11.0546 11.7652 10.1637 12.4645 9.46447C13.1637 8.76521 14.0546 8.289 15.0246 8.09608C15.9945 7.90315 16.9998 8.00217 17.9134 8.3806C18.8271 8.75904 19.6079 9.39991 20.1574 10.2222C20.7068 11.0444 21 12.0111 21 13C20.9984 14.3256 20.4711 15.5964 19.5338 16.5338C18.5964 17.4711 17.3256 17.9984 16 18ZM16 10C15.4067 10 14.8266 10.1759 14.3333 10.5056C13.8399 10.8352 13.4554 11.3038 13.2284 11.852C13.0013 12.4001 12.9419 13.0033 13.0576 13.5853C13.1734 14.1672 13.4591 14.7018 13.8787 15.1213C14.2982 15.5409 14.8328 15.8266 15.4147 15.9424C15.9967 16.0581 16.5999 15.9987 17.1481 15.7716C17.6962 15.5446 18.1648 15.1601 18.4944 14.6667C18.8241 14.1734 19 13.5933 19 13C19 12.2044 18.6839 11.4413 18.1213 10.8787C17.5587 10.3161 16.7957 10 16 10Z" fill="#EDF5E1"/>
<path d="M16 10C15.4067 10 14.8266 10.1759 14.3333 10.5056C13.8399 10.8352 13.4554 11.3038 13.2284 11.852C13.0013 12.4001 12.9419 13.0033 13.0576 13.5853C13.1734 14.1672 13.4591 14.7018 13.8787 15.1213C14.2982 15.5409 14.8328 15.8266 15.4147 15.9424C15.9967 16.0581 16.5999 15.9987 17.1481 15.7716C17.6962 15.5446 18.1648 15.1601 18.4944 14.6667C18.8241 14.1734 19 13.5933 19 13C19 12.2044 18.6839 11.4413 18.1213 10.8787C17.5587 10.3161 16.7957 10 16 10Z" fill="#EDF5E1"/>
</svg>
