<svg width="359" height="747" viewBox="0 0 359 747" fill="none" xmlns="http://www.w3.org/2000/svg">
<path d="M184.73 681.081C181.07 688.456 167.464 708.693 167.347 718.443C167.275 726.344 173.758 732.486 170.414 737.964C166.048 745.139 112.071 740.256 110.624 739.924C109.177 739.592 135.442 726.539 142.534 713.165C148.027 702.764 151.99 691.581 154.293 679.98L184.73 681.081Z" fill="#FCBE9F" stroke="#070707" stroke-width="2" stroke-linecap="round" stroke-linejoin="round"/>
<path d="M108.502 740.688H171.385C172.732 740.688 173.824 741.813 173.824 743.2V743.353C173.824 744.741 172.732 745.866 171.385 745.866H108.502C107.155 745.866 106.063 744.741 106.063 743.353V743.2C106.063 741.813 107.155 740.688 108.502 740.688Z" fill="#A0E9D9" stroke="black" stroke-width="2" stroke-linecap="round" stroke-linejoin="round"/>
<path d="M144.573 740.688L130.84 723.363C130.84 723.363 108.522 731.654 108.522 740.656L144.573 740.688Z" fill="#FF7B7B" stroke="black" stroke-width="2" stroke-linecap="round" stroke-linejoin="round"/>
<path d="M147.227 740.688C147.227 740.688 152.155 721.235 167.371 719.565C167.371 719.565 176.677 730.532 170.521 740.688H147.227Z" fill="#FF7B7B" stroke="black" stroke-width="2" stroke-linecap="round" stroke-linejoin="round"/>
<path d="M153.414 684.178C158.874 686.754 169.156 691.153 178.293 692.475C180.982 687.776 183.462 683.652 184.735 681.086L154.309 679.959C154.309 679.959 154.038 681.518 153.414 684.178Z" fill="#1C0E0C"/>
<path d="M323.33 681.081C321.72 687.302 315.886 708.567 317.977 716.194C320.068 723.821 325.943 729.431 324.322 737.211C322.604 745.497 275.438 740.256 273.986 739.924C272.534 739.592 299.039 724.438 299.351 713.165C299.663 701.893 296.171 681.081 296.171 681.081H323.33Z" fill="#FCBE9F" stroke="#070707" stroke-width="2" stroke-linecap="round" stroke-linejoin="round"/>
<path d="M266.383 740.688H324.818C326.165 740.688 327.257 741.812 327.257 743.2V743.353C327.257 744.741 326.165 745.865 324.818 745.865H266.383C265.036 745.865 263.944 744.741 263.944 743.353V743.2C263.944 741.812 265.036 740.688 266.383 740.688Z" fill="#A0E9D9" stroke="black" stroke-width="2" stroke-linecap="round" stroke-linejoin="round"/>
<path d="M308.201 741.004C308.201 741.004 302.066 733.313 293.445 731.048C283.987 728.567 279.395 729.889 274.292 732.549C269.353 735.12 266.587 740.672 266.587 740.672L308.201 741.004Z" fill="#FF7B7B" stroke="black" stroke-width="2" stroke-linecap="round" stroke-linejoin="round"/>
<path d="M308.411 740.898C308.411 740.898 307.899 722.868 319.46 720.529C319.46 720.529 330.58 730.748 324.424 740.898H308.411Z" fill="#FF7B7B" stroke="black" stroke-width="2" stroke-linecap="round" stroke-linejoin="round"/>
<path d="M323.33 681.087H296.176C296.176 681.087 296.845 685.085 297.571 690.521C307.46 691.479 317.619 688.103 321.95 686.417C322.512 684.189 323.003 682.335 323.33 681.087Z" fill="#1C0E0C"/>
<path d="M170.593 539.329C186.822 399.099 196.812 353.794 201.664 343.233L269.512 351.55C269.604 351.576 269.691 351.613 269.783 351.645C301.453 352.372 324.696 350.881 324.696 350.881C324.246 367.342 330.32 499.95 331.757 516.806C332.846 529.605 334.18 577.318 333.49 611.825C333.117 630.44 337.458 632.947 337.58 640.796C337.821 653.401 330.238 657.578 332.692 666.606C336.808 681.708 323.326 680.913 323.326 680.913C323.326 680.913 305.655 684.526 292.26 680.913C292.26 680.913 290.971 671.252 288.44 656.761C283.588 628.944 279.109 583.312 273.833 554.046C271.977 543.754 264.205 501.899 257.052 458.442C245.656 499.349 234.254 545.039 224.038 584.482C216.154 614.901 206.624 633.026 207.611 646.948C208.459 658.895 196.776 663.246 197.896 670.799C199.312 680.328 189.312 682.256 189.312 682.256C176.253 687.139 149.513 678.295 149.513 678.295C149.513 678.295 163.036 604.661 170.593 539.329Z" fill="#1C0E0C"/>
<path d="M256.873 458.374L246.422 396.481L236.606 393.121" stroke="#F4F1ED" stroke-width="2" stroke-linecap="round" stroke-linejoin="round"/>
<path d="M223.905 168.101C212.145 171.077 189.27 186.437 187.092 212.542C185.118 236.13 183.676 265.912 164.595 281.193C145.514 296.474 170.521 337.433 202.747 328.853C234.974 320.272 223.905 168.101 223.905 168.101Z" fill="#1C0E0C"/>
<path d="M187.158 297.98C182.178 302.389 165.945 289.442 160.571 282.178C156.016 276.004 152.789 264.163 152.462 261.846C152.135 259.528 153.883 249.609 153.883 249.609C153.883 249.609 157.974 248.103 158.863 254.956C159.753 261.809 165.837 272.338 168.741 272.249C175.271 272.085 163.588 264.516 163.306 261.777C163.025 259.038 164.288 258.169 164.288 258.169C164.288 258.169 175.537 264.785 177.229 266.028C178.921 267.271 184.484 274.603 186.432 279.649C188.38 284.696 190.226 295.231 187.158 297.98Z" fill="#FCBE9F" stroke="#070707" stroke-width="2" stroke-linecap="round" stroke-linejoin="round"/>
<path d="M324.338 355.38C270.581 357.608 213.813 355.648 200.58 347.668C189.567 341.036 211.44 305.428 209.615 268.13C208.536 246.138 205.647 189.028 209.615 181.57C213.582 174.111 219.616 171.314 232.306 165.03C237.71 162.354 292.433 163.787 292.433 163.787C316.796 170.376 326.281 183.608 318.75 274.098L324.338 355.38Z" fill="#A0E9D9" stroke="#070707" stroke-width="2" stroke-linecap="round" stroke-linejoin="round"/>
<path d="M273.925 236.541L270.3 419.69C308.406 439.021 338.061 420.485 338.061 420.485C337.591 356.354 324.481 347.873 330.458 276.126C333.388 240.628 352.663 215.84 348.328 199.405C341.599 173.942 306.862 167.801 292.055 163.797C292.055 163.797 278.107 173.7 273.925 236.541Z" fill="#FF7B7B"/>
<path d="M273.925 236.541L270.3 419.69C308.406 439.021 338.061 420.485 338.061 420.485C337.591 356.354 324.481 347.873 330.458 276.126C333.388 240.628 352.663 215.84 348.328 199.405C341.599 173.942 306.862 167.801 292.055 163.797C292.055 163.797 278.107 173.7 273.925 236.541Z" stroke="black" stroke-width="2" stroke-linecap="round" stroke-linejoin="round"/>
<path d="M213.654 253.855L204.773 416.866C186.806 423.224 180.006 413.643 180.006 413.643C180.006 369.423 196.781 336.38 195.426 277.332C193.345 186.537 209.073 171.193 233.436 164.609C233.436 164.603 208.214 178.33 213.654 253.855Z" fill="#FF7B7B"/>
<path d="M213.654 253.855L204.773 416.866C186.806 423.224 180.006 413.643 180.006 413.643C180.006 369.423 196.781 336.38 195.426 277.332C193.345 186.537 209.073 171.193 233.436 164.609C233.436 164.603 208.214 178.33 213.654 253.855Z" stroke="black" stroke-width="2" stroke-linecap="round" stroke-linejoin="round"/>
<path d="M223.358 298.386C224.512 300.369 225.997 302.127 227.745 303.579C246.412 319.308 302.792 341.7 330.273 335.079C329.926 331.123 329.655 327.236 329.445 323.39C297.413 324.87 241.907 311.275 225.561 300.214C224.771 299.679 224.033 299.067 223.358 298.386Z" fill="#1C0E0C"/>
<path d="M316.382 211.568C310.144 238.052 310.758 276.357 310.758 276.357C310.758 276.357 280.515 269.383 233.875 269.252C221.093 269.215 212.641 291.485 225.546 300.219C247.782 315.263 342.504 335.021 351.978 315.084C359.248 299.808 359.136 230.278 352.244 202.792C347.381 183.355 326.592 168.227 316.382 211.568Z" fill="#FF7B7B"/>
<path d="M316.382 211.568C310.144 238.052 310.758 276.357 310.758 276.357C310.758 276.357 280.515 269.383 233.875 269.252C221.093 269.215 212.641 291.485 225.546 300.219C247.782 315.263 342.504 335.021 351.978 315.084C359.248 299.808 359.136 230.278 352.244 202.792C347.381 183.355 326.592 168.227 316.382 211.568Z" stroke="black" stroke-width="2" stroke-linecap="round" stroke-linejoin="round"/>
<path d="M229.126 270.01C230.782 269.857 233.017 276.205 233.017 285.886C233.017 304.322 224.258 299.149 222.873 297.337C215.669 287.898 221.272 270.721 229.126 270.01Z" fill="#1C0E0C"/>
<path d="M162.177 275.072H183.984C184.251 275.072 184.514 275.007 184.752 274.881C184.989 274.754 185.194 274.571 185.348 274.347C185.503 274.123 185.603 273.863 185.641 273.591C185.678 273.318 185.652 273.041 185.563 272.781L171.186 230.204C170.951 229.512 170.512 228.913 169.931 228.489C169.35 228.065 168.656 227.838 167.944 227.839H148.301C147.928 227.839 147.562 227.93 147.231 228.106C146.9 228.281 146.615 228.536 146.399 228.849C146.183 229.161 146.043 229.522 145.991 229.902C145.938 230.282 145.975 230.669 146.097 231.031L160.572 273.913C160.687 274.256 160.904 274.552 161.192 274.76C161.48 274.969 161.825 275.078 162.177 275.072Z" fill="#F46F40" stroke="black" stroke-width="2" stroke-linecap="round" stroke-linejoin="round"/>
<path d="M161.4 275.072H181.647C181.914 275.072 182.177 275.007 182.415 274.881C182.652 274.754 182.857 274.571 183.011 274.347C183.166 274.123 183.266 273.863 183.304 273.591C183.341 273.318 183.315 273.041 183.227 272.781L168.849 230.204C168.614 229.512 168.175 228.913 167.594 228.489C167.014 228.065 166.319 227.838 165.607 227.839H147.539C147.166 227.838 146.799 227.93 146.469 228.105C146.138 228.281 145.853 228.536 145.637 228.849C145.422 229.161 145.282 229.523 145.231 229.903C145.179 230.282 145.216 230.669 145.34 231.031L159.82 273.913C159.933 274.252 160.147 274.545 160.43 274.753C160.713 274.96 161.052 275.072 161.4 275.072Z" fill="#EFAF00" stroke="black" stroke-width="2" stroke-linecap="round" stroke-linejoin="round"/>
<path d="M145.34 231.031L159.82 273.913C159.934 274.252 160.147 274.545 160.43 274.753C160.713 274.961 161.052 275.072 161.4 275.072H181.657C181.924 275.072 182.186 275.006 182.423 274.88C182.66 274.754 182.865 274.572 183.02 274.349C183.175 274.125 183.276 273.867 183.314 273.595C183.353 273.323 183.328 273.046 183.242 272.786L179.234 260.776C166.794 260.718 156.118 253.797 152.013 241.687L147.217 227.86C146.875 227.909 146.549 228.036 146.261 228.231C145.972 228.427 145.73 228.685 145.55 228.988C145.371 229.292 145.259 229.632 145.223 229.985C145.186 230.339 145.226 230.696 145.34 231.031Z" fill="#1C0E0C"/>
<path d="M153.889 268.377C155.009 270.115 157.407 278.085 168.634 281.193C179.862 284.301 194.495 281.804 196.812 282.773C198.468 283.484 213.372 289.621 221.711 293.05C222.432 293.344 223.207 293.471 223.982 293.424C224.756 293.377 225.51 293.155 226.193 292.775C226.875 292.395 227.468 291.866 227.93 291.224C228.393 290.583 228.713 289.845 228.869 289.062C229.826 284.206 231.037 277.126 229.856 269.984C229.856 269.984 202.247 268.34 200.314 266.823C198.381 265.306 191.745 257.5 187.399 256.383C183.82 255.456 180.696 254.803 179.443 254.587C179.617 255.151 180.522 259.254 181.386 261.798C182.311 264.532 162.438 261.956 160.628 260.961C158.818 259.965 155.627 254.113 152.958 251.4C150.289 248.687 148.464 249.546 148.464 249.546L153.889 268.377Z" fill="#FCBE9F" stroke="#070707" stroke-width="2" stroke-linecap="round" stroke-linejoin="round"/>
<path d="M270.034 128.627C274.39 125.556 289.059 105.339 283.624 85.6232C278.189 65.9072 270.207 57.7058 258.678 59.3808C258.678 59.3808 249.894 53.2601 232.689 63.8687C216.134 74.0717 219.774 78.1645 219.774 92.1812C219.774 107.789 224.094 104.296 226.835 110.38C229.269 115.79 227.668 144.292 240.456 140.631C254.516 136.607 270.034 128.627 270.034 128.627Z" fill="#1C0E0C"/>
<path d="M270.14 118.487C269.91 124.876 269.701 151.872 291.758 163.945C291.758 163.945 238.993 193.969 234.524 165.13C234.524 165.13 240.726 150.687 240.726 118.487H270.14Z" fill="#FCBE9F" stroke="#070707" stroke-width="2" stroke-linecap="round" stroke-linejoin="round"/>
<path d="M237.679 154.295C267.334 148.09 270.141 118.476 270.141 118.476H240.726C240.726 133.057 239.064 147.595 237.679 154.295Z" fill="#1C0E0C"/>
<path d="M238.165 140.789C258.902 144.245 271.398 116.617 271.398 116.617C275.836 114.025 268.668 106.962 267.19 106.935C264.486 108.542 259.797 107.552 255.472 98.7497C252.624 92.9555 254.383 87.9145 251.576 85.1649C250.82 84.4744 250.006 83.8556 249.142 83.3161C247.038 81.9911 244.619 81.2911 242.153 81.2934C223.966 81.2934 223.352 97.4223 223.266 103.733C223.143 112.856 226.492 138.845 238.165 140.789Z" fill="#FCBE9F" stroke="#070707" stroke-width="2" stroke-linecap="round" stroke-linejoin="round"/>
<path d="M239.623 106.367C239.528 104.691 240.327 103.28 241.406 103.215C242.486 103.151 243.438 104.456 243.533 106.132C243.628 107.808 242.83 109.219 241.75 109.284C240.67 109.349 239.718 108.043 239.623 106.367Z" fill="#1C0E0C"/>
<path d="M225.458 106.366C225.363 104.69 226.162 103.279 227.241 103.214C228.321 103.149 229.273 104.455 229.368 106.131C229.463 107.806 228.665 109.217 227.585 109.282C226.505 109.347 225.553 108.041 225.458 106.366Z" fill="#1C0E0C"/>
<path d="M232.505 105.313L228.88 114.821L231.712 118.487" fill="#FCBE9F"/>
<path d="M232.505 105.313L228.88 114.821L231.712 118.487" stroke="#070707" stroke-width="2" stroke-linecap="round" stroke-linejoin="round"/>
<path d="M265.361 119.208C260.631 119.208 256.797 115.258 256.797 110.385C256.797 105.513 260.631 101.562 265.361 101.562C270.091 101.562 273.925 105.513 273.925 110.385C273.925 115.258 270.091 119.208 265.361 119.208Z" fill="#FCBE9F"/>
<path d="M268.837 106.593C268.837 106.593 263.831 104.855 261.883 110.807L268.837 106.593Z" fill="#FCBE9F"/>
<path d="M268.837 106.593C268.837 106.593 263.831 104.855 261.883 110.807" stroke="#070707" stroke-width="2" stroke-linecap="round" stroke-linejoin="round"/>
<path d="M264.788 107.552L267.61 110.385" stroke="#070707" stroke-width="2" stroke-linecap="round" stroke-linejoin="round"/>
<path d="M246.136 98.6022C246.136 98.6022 243.671 95.0994 238.978 97.8016" stroke="#070707" stroke-width="2" stroke-linecap="round" stroke-linejoin="round"/>
<path d="M229.938 98.6022C229.938 98.6022 227.474 95.0994 222.78 97.8016" stroke="#070707" stroke-width="2" stroke-linecap="round" stroke-linejoin="round"/>
<path d="M242.562 120.599C242.562 120.599 239.657 125.066 234.524 125.677" stroke="#070707" stroke-width="2" stroke-linecap="round" stroke-linejoin="round"/>
<path d="M65.7791 178.278C30.5271 178.278 1.94977 148.836 1.94977 112.519C1.94977 76.2012 30.5271 46.76 65.7791 46.76C101.031 46.76 129.608 76.2012 129.608 112.519C129.608 148.836 101.031 178.278 65.7791 178.278Z" fill="#1C0E0C"/>
<path d="M65.7791 171.677C30.5271 171.677 1.94977 142.236 1.94977 105.919C1.94977 69.6011 30.5271 40.1599 65.7791 40.1599C101.031 40.1599 129.608 69.6011 129.608 105.919C129.608 142.236 101.031 171.677 65.7791 171.677Z" fill="#F4F1ED" stroke="#070707" stroke-width="2" stroke-linecap="round" stroke-linejoin="round"/>
<path d="M52.1735 140.578H88.7256L82.4214 87.5353H45.8693L52.1735 140.578Z" fill="#F4F1ED"/>
<path d="M36.0837 140.578H52.1484L45.8442 87.5353H42.3879L36.0837 140.578Z" fill="#FFBF00"/>
<path d="M38.7117 139.931H54.5361L47.9405 84.438H45.3074L38.7117 139.931Z" stroke="#070707" stroke-width="2" stroke-linecap="round" stroke-linejoin="round"/>
<path d="M47.9399 84.438L54.5355 139.931H92.1152L85.5247 84.438H47.9399Z" stroke="#070707" stroke-width="2" stroke-linecap="round" stroke-linejoin="round"/>
<path d="M63.3508 67.793H60.7535C59.1565 67.7958 57.6258 68.4513 56.4976 69.6156C55.3693 70.78 54.7356 72.358 54.7356 74.0033V84.4644H69.3789V74.0033C69.3789 72.3562 68.7438 70.7766 67.6133 69.6119C66.4828 68.4473 64.9495 67.793 63.3508 67.793Z" stroke="#070707" stroke-width="2" stroke-linecap="round" stroke-linejoin="round"/>
<path d="M67.6354 67.793H65.0381C63.4394 67.793 61.9061 68.4473 60.7756 69.6119C59.6451 70.7766 59.01 72.3562 59.01 74.0033V84.4644H73.6533V74.0033C73.6533 72.3562 73.0182 70.7766 71.8877 69.6119C70.7573 68.4473 69.224 67.793 67.6252 67.793H67.6354Z" stroke="#070707" stroke-width="2" stroke-linecap="round" stroke-linejoin="round"/>
<path d="M202.753 92.1812C202.025 92.1803 201.311 91.9823 200.682 91.607C200.053 91.2317 199.531 90.6923 199.168 90.0432C198.805 89.394 198.615 88.6579 198.616 87.9088C198.617 87.1597 198.809 86.4241 199.174 85.776C200.255 83.8842 201.796 82.316 203.646 81.2268C205.496 80.1375 207.591 79.5649 209.721 79.5656H220.581C222.102 73.0634 225.703 67.2779 230.804 63.1413C235.905 59.0047 242.21 56.7579 248.702 56.7629H252.409C260.952 56.7629 269.145 60.2591 275.186 66.4825C281.226 72.7059 284.62 81.1466 284.62 89.9478C284.619 90.5993 284.367 91.2236 283.919 91.6838C283.471 92.144 282.865 92.4024 282.232 92.4024H219.773L202.753 92.1812Z" fill="#F4F1ED" stroke="#070707" stroke-width="2" stroke-linecap="round" stroke-linejoin="round"/>
<path d="M131.909 268.514C130.887 268.678 129.864 268.82 128.872 268.936" stroke="#070707" stroke-width="2" stroke-linecap="round" stroke-linejoin="round"/>
<path d="M118.968 269.315C111.015 269.017 103.177 267.269 95.8166 264.153C90.7855 262.014 85.9232 259.164 82.3237 254.961C78.7242 250.758 76.5205 245.042 77.3795 239.512C77.9368 235.888 80.0689 232.269 83.4536 231.126C87.682 229.704 92.5444 232.943 93.7663 237.347C94.9883 241.75 93.025 246.665 89.676 249.657C86.3271 252.649 81.7664 253.934 77.3284 254.15C65.5227 254.713 53.712 247.702 48.2616 236.909C44.0588 228.576 43.8338 218.326 47.2748 209.661" stroke="#070707" stroke-width="2" stroke-linecap="round" stroke-linejoin="round" stroke-dasharray="11.64 19.39"/>
<path d="M49.5251 205.115C50.0621 204.219 50.644 203.352 51.2686 202.518" stroke="#070707" stroke-width="2" stroke-linecap="round" stroke-linejoin="round"/>
<path d="M88.9404 9.45601L80.2638 23.9415" stroke="#070707" stroke-width="2" stroke-linecap="round" stroke-linejoin="round"/>
<path d="M37.1926 9.45601L45.8691 23.9415" stroke="#070707" stroke-width="2" stroke-linecap="round" stroke-linejoin="round"/>
<path d="M63.0684 19.0902V1.54433" stroke="#070707" stroke-width="2" stroke-linecap="round" stroke-linejoin="round"/>
</svg>
