<svg width="25" height="25" viewBox="0 0 25 25" fill="none" xmlns="http://www.w3.org/2000/svg">
<path d="M23.4904 24.705L14.5434 15.7817C13.8071 16.4208 12.9541 16.9186 11.9845 17.2751C11.015 17.6315 10.0025 17.8097 8.94698 17.8097C6.4433 17.8097 4.32621 16.9432 2.59573 15.2102C0.865243 13.4771 0 11.3692 0 8.88643C0 6.42822 0.865243 4.3326 2.59573 2.59956C4.32621 0.866519 6.43103 0 8.91016 0C11.3893 0 13.4941 0.866519 15.2246 2.59956C16.9551 4.3326 17.8203 6.42822 17.8203 8.88643C17.8203 9.91888 17.6424 10.9267 17.2864 11.91C16.9305 12.8933 16.4212 13.7783 15.7585 14.5649L24.7423 23.5251C24.9141 23.6971 25 23.8938 25 24.115C25 24.3363 24.9018 24.5329 24.7054 24.705C24.5336 24.9017 24.325 25 24.0795 25C23.8341 25 23.6377 24.9017 23.4904 24.705V24.705ZM8.94698 16.1504C10.9352 16.1504 12.6289 15.4437 14.028 14.0302C15.4271 12.6168 16.1267 10.9022 16.1267 8.88643C16.1267 6.8707 15.4271 5.16224 14.028 3.76106C12.6289 2.35988 10.9352 1.65929 8.94698 1.65929C6.90967 1.65929 5.19146 2.35988 3.79234 3.76106C2.39322 5.16224 1.69367 6.8707 1.69367 8.88643C1.69367 10.9022 2.39322 12.6168 3.79234 14.0302C5.19146 15.4437 6.90967 16.1504 8.94698 16.1504V16.1504Z" fill="#878787"/>
</svg>
